<svg width="1280" height="720" xmlns="http://www.w3.org/2000/svg" xmlns:xlink="http://www.w3.org/1999/xlink" overflow="hidden"><defs><clipPath id="clip0"><path d="M0 0 1280 0 1280 720 0 720Z" fill-rule="evenodd" clip-rule="evenodd"/></clipPath><clipPath id="clip1"><path d="M168 95 1112 95 1112 625 168 625Z" fill-rule="evenodd" clip-rule="evenodd"/></clipPath><clipPath id="clip2"><path d="M168 95 1112 95 1112 625 168 625Z" fill-rule="evenodd" clip-rule="evenodd"/></clipPath><clipPath id="clip3"><path d="M168 95 1112 95 1112 625 168 625Z" fill-rule="evenodd" clip-rule="evenodd"/></clipPath><clipPath id="clip4"><path d="M168 95 1112 95 1112 625 168 625Z" fill-rule="evenodd" clip-rule="evenodd"/></clipPath></defs><g clip-path="url(#clip0)"><rect x="0" y="0" width="1280" height="720" fill="#FFFFFF"/><g clip-path="url(#clip1)"><g clip-path="url(#clip2)"><g clip-path="url(#clip3)"><g clip-path="url(#clip4)"><path d="M0 0 942.222 0 942.222 530 0 530Z" fill="#FFFFFF" transform="matrix(1.00189 0 -0 1 168 95)"/><path d="M70.6667 165.625C70.6667 150.99 82.5313 139.125 97.1667 139.125 111.802 139.125 123.667 150.99 123.667 165.625 123.667 180.26 111.802 192.125 97.1667 192.125 82.5313 192.125 70.6667 180.26 70.6667 165.625Z" stroke="#FFFFFF" stroke-width="1.47222" stroke-miterlimit="8" fill="#A5A5A5" fill-rule="evenodd" transform="matrix(1.00189 0 -0 1 168 95)"/><path d="M70.6667 231.507C70.6667 217.075 82.5313 205.375 97.1667 205.375 111.802 205.375 123.667 217.075 123.667 231.507 123.667 245.939 111.802 257.639 97.1667 257.639 82.5313 257.639 70.6667 245.939 70.6667 231.507Z" stroke="#FFFFFF" stroke-width="1.47222" stroke-miterlimit="8" fill="#A5A5A5" fill-rule="evenodd" transform="matrix(1.00189 0 -0 1 168 95)"/><path d="M70.6667 297.389C70.6667 282.754 82.5313 270.889 97.1667 270.889 111.802 270.889 123.667 282.754 123.667 297.389 123.667 312.024 111.802 323.889 97.1667 323.889 82.5313 323.889 70.6667 312.024 70.6667 297.389Z" stroke="#FFFFFF" stroke-width="1.47222" stroke-miterlimit="8" fill="#A5A5A5" fill-rule="evenodd" transform="matrix(1.00189 0 -0 1 168 95)"/><path d="M69.9306 363.271C69.9306 348.839 81.7952 337.139 96.4306 337.139 111.066 337.139 122.931 348.839 122.931 363.271 122.931 377.703 111.066 389.403 96.4306 389.403 81.7952 389.403 69.9306 377.703 69.9306 363.271Z" stroke="#FFFFFF" stroke-width="1.47222" stroke-miterlimit="8" fill="#A5A5A5" fill-rule="evenodd" transform="matrix(1.00189 0 -0 1 168 95)"/><path d="M278.25 165.625C278.25 150.99 289.95 139.125 304.382 139.125 318.814 139.125 330.514 150.99 330.514 165.625 330.514 180.26 318.814 192.125 304.382 192.125 289.95 192.125 278.25 180.26 278.25 165.625Z" stroke="#FFFFFF" stroke-width="1.47222" stroke-miterlimit="8" fill="#A5A5A5" fill-rule="evenodd" transform="matrix(1.00189 0 -0 1 168 95)"/><path d="M278.25 231.507C278.25 217.075 289.95 205.375 304.382 205.375 318.814 205.375 330.514 217.075 330.514 231.507 330.514 245.939 318.814 257.639 304.382 257.639 289.95 257.639 278.25 245.939 278.25 231.507Z" stroke="#FFFFFF" stroke-width="1.47222" stroke-miterlimit="8" fill="#A5A5A5" fill-rule="evenodd" transform="matrix(1.00189 0 -0 1 168 95)"/><path d="M278.25 297.389C278.25 282.754 289.95 270.889 304.382 270.889 318.814 270.889 330.514 282.754 330.514 297.389 330.514 312.024 318.814 323.889 304.382 323.889 289.95 323.889 278.25 312.024 278.25 297.389Z" stroke="#FFFFFF" stroke-width="1.47222" stroke-miterlimit="8" fill="#A5A5A5" fill-rule="evenodd" transform="matrix(1.00189 0 -0 1 168 95)"/><path d="M277.514 363.271C277.514 348.839 289.214 337.139 303.646 337.139 318.078 337.139 329.778 348.839 329.778 363.271 329.778 377.703 318.078 389.403 303.646 389.403 289.214 389.403 277.514 377.703 277.514 363.271Z" stroke="#FFFFFF" stroke-width="1.47222" stroke-miterlimit="8" fill="#A5A5A5" fill-rule="evenodd" transform="matrix(1.00189 0 -0 1 168 95)"/><path d="M278.25 99.375C278.25 84.7396 289.95 72.875 304.382 72.875 318.814 72.875 330.514 84.7396 330.514 99.375 330.514 114.01 318.814 125.875 304.382 125.875 289.95 125.875 278.25 114.01 278.25 99.375Z" stroke="#FFFFFF" stroke-width="1.47222" stroke-miterlimit="8" fill="#A5A5A5" fill-rule="evenodd" transform="matrix(1.00189 0 -0 1 168 95)"/><path d="M278.25 429.521C278.25 415.089 289.95 403.389 304.382 403.389 318.814 403.389 330.514 415.089 330.514 429.521 330.514 443.953 318.814 455.653 304.382 455.653 289.95 455.653 278.25 443.953 278.25 429.521Z" stroke="#FFFFFF" stroke-width="1.47222" stroke-miterlimit="8" fill="#A5A5A5" fill-rule="evenodd" transform="matrix(1.00189 0 -0 1 168 95)"/><path d="M448.292 165.625C448.292 150.99 459.991 139.125 474.424 139.125 488.856 139.125 500.556 150.99 500.556 165.625 500.556 180.26 488.856 192.125 474.424 192.125 459.991 192.125 448.292 180.26 448.292 165.625Z" stroke="#FFFFFF" stroke-width="1.47222" stroke-miterlimit="8" fill="#A5A5A5" fill-rule="evenodd" transform="matrix(1.00189 0 -0 1 168 95)"/><path d="M448.292 231.507C448.292 217.075 459.991 205.375 474.424 205.375 488.856 205.375 500.556 217.075 500.556 231.507 500.556 245.939 488.856 257.639 474.424 257.639 459.991 257.639 448.292 245.939 448.292 231.507Z" stroke="#FFFFFF" stroke-width="1.47222" stroke-miterlimit="8" fill="#A5A5A5" fill-rule="evenodd" transform="matrix(1.00189 0 -0 1 168 95)"/><path d="M448.292 297.389C448.292 282.754 459.991 270.889 474.424 270.889 488.856 270.889 500.556 282.754 500.556 297.389 500.556 312.024 488.856 323.889 474.424 323.889 459.991 323.889 448.292 312.024 448.292 297.389Z" stroke="#FFFFFF" stroke-width="1.47222" stroke-miterlimit="8" fill="#A5A5A5" fill-rule="evenodd" transform="matrix(1.00189 0 -0 1 168 95)"/><path d="M447.556 363.271C447.556 348.839 459.255 337.139 473.688 337.139 488.12 337.139 499.819 348.839 499.819 363.271 499.819 377.703 488.12 389.403 473.688 389.403 459.255 389.403 447.556 377.703 447.556 363.271Z" stroke="#FFFFFF" stroke-width="1.47222" stroke-miterlimit="8" fill="#A5A5A5" fill-rule="evenodd" transform="matrix(1.00189 0 -0 1 168 95)"/><path d="M448.292 99.375C448.292 84.7396 459.991 72.875 474.424 72.875 488.856 72.875 500.556 84.7396 500.556 99.375 500.556 114.01 488.856 125.875 474.424 125.875 459.991 125.875 448.292 114.01 448.292 99.375Z" stroke="#FFFFFF" stroke-width="1.47222" stroke-miterlimit="8" fill="#A5A5A5" fill-rule="evenodd" transform="matrix(1.00189 0 -0 1 168 95)"/><path d="M448.292 429.521C448.292 415.089 459.991 403.389 474.424 403.389 488.856 403.389 500.556 415.089 500.556 429.521 500.556 443.953 488.856 455.653 474.424 455.653 459.991 455.653 448.292 443.953 448.292 429.521Z" stroke="#FFFFFF" stroke-width="1.47222" stroke-miterlimit="8" fill="#A5A5A5" fill-rule="evenodd" transform="matrix(1.00189 0 -0 1 168 95)"/><path d="M603.611 165.625C603.611 150.99 615.311 139.125 629.743 139.125 644.175 139.125 655.875 150.99 655.875 165.625 655.875 180.26 644.175 192.125 629.743 192.125 615.311 192.125 603.611 180.26 603.611 165.625Z" stroke="#FFFFFF" stroke-width="1.47222" stroke-miterlimit="8" fill="#A5A5A5" fill-rule="evenodd" transform="matrix(1.00189 0 -0 1 168 95)"/><path d="M603.611 231.507C603.611 217.075 615.311 205.375 629.743 205.375 644.175 205.375 655.875 217.075 655.875 231.507 655.875 245.939 644.175 257.639 629.743 257.639 615.311 257.639 603.611 245.939 603.611 231.507Z" stroke="#FFFFFF" stroke-width="1.47222" stroke-miterlimit="8" fill="#A5A5A5" fill-rule="evenodd" transform="matrix(1.00189 0 -0 1 168 95)"/><path d="M603.611 297.389C603.611 282.754 615.311 270.889 629.743 270.889 644.175 270.889 655.875 282.754 655.875 297.389 655.875 312.024 644.175 323.889 629.743 323.889 615.311 323.889 603.611 312.024 603.611 297.389Z" stroke="#FFFFFF" stroke-width="1.47222" stroke-miterlimit="8" fill="#A5A5A5" fill-rule="evenodd" transform="matrix(1.00189 0 -0 1 168 95)"/><path d="M602.139 363.271C602.139 348.839 614.003 337.139 628.639 337.139 643.274 337.139 655.139 348.839 655.139 363.271 655.139 377.703 643.274 389.403 628.639 389.403 614.003 389.403 602.139 377.703 602.139 363.271Z" stroke="#FFFFFF" stroke-width="1.47222" stroke-miterlimit="8" fill="#A5A5A5" fill-rule="evenodd" transform="matrix(1.00189 0 -0 1 168 95)"/><path d="M603.611 99.375C603.611 84.7396 615.311 72.875 629.743 72.875 644.175 72.875 655.875 84.7396 655.875 99.375 655.875 114.01 644.175 125.875 629.743 125.875 615.311 125.875 603.611 114.01 603.611 99.375Z" stroke="#FFFFFF" stroke-width="1.47222" stroke-miterlimit="8" fill="#A5A5A5" fill-rule="evenodd" transform="matrix(1.00189 0 -0 1 168 95)"/><path d="M603.611 429.521C603.611 415.089 615.311 403.389 629.743 403.389 644.175 403.389 655.875 415.089 655.875 429.521 655.875 443.953 644.175 455.653 629.743 455.653 615.311 455.653 603.611 443.953 603.611 429.521Z" stroke="#FFFFFF" stroke-width="1.47222" stroke-miterlimit="8" fill="#A5A5A5" fill-rule="evenodd" transform="matrix(1.00189 0 -0 1 168 95)"/><path d="M800.153 165.625C800.153 150.99 812.019 139.125 826.653 139.125 841.287 139.125 853.153 150.99 853.153 165.625 853.153 180.26 841.287 192.125 826.653 192.125 812.019 192.125 800.153 180.26 800.153 165.625Z" stroke="#FFFFFF" stroke-width="1.47222" stroke-miterlimit="8" fill="#A5A5A5" fill-rule="evenodd" transform="matrix(1.00189 0 -0 1 168 95)"/><path d="M799.417 363.271C799.417 348.839 811.283 337.139 825.917 337.139 840.551 337.139 852.417 348.839 852.417 363.271 852.417 377.703 840.551 389.403 825.917 389.403 811.283 389.403 799.417 377.703 799.417 363.271Z" stroke="#FFFFFF" stroke-width="1.47222" stroke-miterlimit="8" fill="#A5A5A5" fill-rule="evenodd" transform="matrix(1.00189 0 -0 1 168 95)"/><path d="M603.611 495.403C603.611 480.767 615.311 468.903 629.743 468.903 644.175 468.903 655.875 480.767 655.875 495.403 655.875 510.038 644.175 521.903 629.743 521.903 615.311 521.903 603.611 510.038 603.611 495.403Z" stroke="#FFFFFF" stroke-width="1.47222" stroke-miterlimit="8" fill="#A5A5A5" fill-rule="evenodd" transform="matrix(1.00189 0 -0 1 168 95)"/><path d="M602.139 33.4931C602.139 19.0608 614.003 7.36111 628.639 7.36111 643.274 7.36111 655.139 19.0608 655.139 33.4931 655.139 47.9253 643.274 59.625 628.639 59.625 614.003 59.625 602.139 47.9253 602.139 33.4931Z" stroke="#FFFFFF" stroke-width="1.47222" stroke-miterlimit="8" fill="#A5A5A5" fill-rule="evenodd" transform="matrix(1.00189 0 -0 1 168 95)"/><path d="M-0.288734 0.677121-150.503-63.3765-149.926-64.7307 0.288734-0.677121ZM-150.466-60.9601-154.728-65.9784-148.156-66.3771Z" transform="matrix(-1.00189 -0 -0 1 291.9 260.353)"/><path d="M123.667 164.889 273.487 164.889 273.487 166.361 123.667 166.361ZM272.506 162.681 278.395 165.625 272.506 168.569Z" transform="matrix(1.00189 0 -0 1 168 95)"/><path d="M123.955 164.948 274.17 229.001 273.593 230.356 123.378 166.302ZM274.133 226.585 278.395 231.603 271.823 232.002Z" transform="matrix(1.00189 0 -0 1 168 95)"/><path d="M124.144 165.065 275.138 293.837 274.183 294.958 123.189 166.185ZM275.825 291.52 278.395 297.582 272.004 296.001Z" transform="matrix(1.00189 0 -0 1 168 95)"/><path d="M124.247 165.173 275.148 359.235 273.986 360.139 123.086 166.077ZM276.289 357.104 277.579 363.56 271.64 360.719Z" transform="matrix(1.00189 0 -0 1 168 95)"/><path d="M124.302 165.253 276.549 424.934 275.279 425.679 123.031 165.997ZM277.957 422.969 278.395 429.538 272.876 425.948Z" transform="matrix(1.00189 0 -0 1 168 95)"/><path d="M124.247 230.685 275.953 424.755 274.793 425.661 123.087 231.592ZM277.088 422.621 278.395 429.074 272.449 426.248Z" transform="matrix(1.00189 0 -0 1 168 95)"/><path d="M124.146 230.58 274.332 359.343 273.375 360.46 123.187 231.698ZM275.025 357.027 277.579 363.096 271.192 361.498Z" transform="matrix(1.00189 0 -0 1 168 95)"/><path d="M123.955 230.462 274.17 294.515 273.593 295.87 123.378 231.816ZM274.133 292.099 278.395 297.117 271.823 297.516Z" transform="matrix(1.00189 0 -0 1 168 95)"/><path d="M123.667 230.403 273.487 230.403 273.487 231.875 123.667 231.875ZM272.506 228.194 278.395 231.139 272.506 234.083Z" transform="matrix(1.00189 0 -0 1 168 95)"/><path d="M-0.288734 0.677121-150.503-63.3765-149.926-64.7307 0.288734-0.677121ZM-150.466-60.9601-154.728-65.9784-148.156-66.3771Z" transform="matrix(-1.00189 -0 -0 1 291.9 326.603)"/><path d="M-0.47766 0.560089-151.472-128.212-150.516-129.333 0.47766-0.560089ZM-152.159-125.895-154.728-131.957-148.337-130.376Z" transform="matrix(-1.00189 -0 -0 1 291.9 326.332)"/><path d="M-0.579944 0.453349-152.287-193.616-151.127-194.523 0.579944-0.453349ZM-153.422-191.482-154.728-197.935-148.782-195.109Z" transform="matrix(-1.00189 -0 -0 1 291.9 392.31)"/><path d="M-0.47766 0.560089-151.472-128.212-150.516-129.333 0.47766-0.560089ZM-152.159-125.895-154.728-131.957-148.337-130.376Z" transform="matrix(-1.00189 -0 -0 1 291.9 392.582)"/><path d="M-0.288734 0.677121-150.503-63.3765-149.926-64.7307 0.288734-0.677121ZM-150.466-60.9601-154.728-65.9784-148.156-66.3771Z" transform="matrix(-1.00189 -0 -0 1 291.9 392.117)"/><path d="M123.667 296.653 273.487 296.653 273.487 298.125 123.667 298.125ZM272.506 294.444 278.395 297.389 272.506 300.333Z" transform="matrix(1.00189 0 -0 1 168 95)"/><path d="M123.957 296.712 273.359 360.758 272.779 362.111 123.377 298.065ZM273.327 358.341 277.579 363.367 271.007 363.754Z" transform="matrix(1.00189 0 -0 1 168 95)"/><path d="M124.144 296.829 275.138 425.601 274.183 426.721 123.189 297.949ZM275.825 423.284 278.395 429.346 272.004 427.765Z" transform="matrix(1.00189 0 -0 1 168 95)"/><path d="M123.218 362.961 274.244 427.023 273.669 428.378 122.643 364.317ZM274.204 424.607 278.475 429.617 271.904 430.028Z" transform="matrix(1.00189 0 -0 1 168 95)"/><path d="M122.931 362.903 272.751 362.903 272.751 364.375 122.931 364.375ZM271.77 360.694 277.659 363.639 271.77 366.583Z" transform="matrix(1.00189 0 -0 1 168 95)"/><path d="M-0.287451 0.677666-151.314-63.3843-150.739-64.7396 0.287451-0.677666ZM-151.273-60.9682-155.545-65.9784-148.973-66.3895Z" transform="matrix(-1.00189 -0 -0 1 291.163 458.367)"/><path d="M-0.476205 0.561327-152.279-128.221-151.326-129.344 0.476205-0.561327ZM-152.959-125.902-155.545-131.957-149.149-130.393Z" transform="matrix(-1.00189 -0 -0 1 291.163 458.096)"/><path d="M-0.578784 0.454828-153.091-193.622-151.933-194.531 0.578784-0.454828ZM-154.221-191.486-155.545-197.935-149.59-195.125Z" transform="matrix(-1.00189 -0 -0 1 291.163 458.56)"/><path d="M-0.634163 0.37376-153.687-259.313-152.418-260.06 0.634163-0.37376ZM-155.091-257.345-155.545-263.913-150.017-260.335Z" transform="matrix(-1.00189 -0 -0 1 291.163 458.289)"/><path d="M330.514 98.6389 443.041 98.6389 443.041 100.111 330.514 100.111ZM442.06 96.4306 447.949 99.375 442.06 102.319Z" transform="matrix(1.00189 0 -0 1 168 95)"/><path d="M330.875 98.7331 444.03 162.308 443.31 163.591 330.153 100.017ZM444.257 159.902 447.949 165.353 441.372 165.036Z" transform="matrix(1.00189 0 -0 1 168 95)"/><path d="M331.064 98.8855 445.236 227.177 444.136 228.155 329.964 99.8645ZM446.233 224.975 447.949 231.332 441.834 228.89Z" transform="matrix(1.00189 0 -0 1 168 95)"/><path d="M331.147 98.9996 446.077 292.714 444.811 293.465 329.881 99.7504ZM447.476 290.743 447.949 297.31 442.412 293.748Z" transform="matrix(1.00189 0 -0 1 168 95)"/><path d="M331.187 99.0776 445.823 358.504 444.476 359.099 329.84 99.6724ZM447.446 356.712 447.133 363.288 442.059 359.093Z" transform="matrix(1.00189 0 -0 1 168 95)"/><path d="M331.207 99.1284 446.996 424.396 445.609 424.89 329.82 99.6216ZM448.747 422.732 447.949 429.267 443.2 424.707Z" transform="matrix(1.00189 0 -0 1 168 95)"/><path d="M-0.36056 0.64176-113.516-62.9329-112.796-64.2164 0.36056-0.64176ZM-113.743-60.5269-117.435-65.9784-110.858-65.661Z" transform="matrix(-1.00189 -0 -0 1 499.138 260.353)"/><path d="M330.514 164.889 443.041 164.889 443.041 166.361 330.514 166.361ZM442.06 162.681 447.949 165.625 442.06 168.569Z" transform="matrix(1.00189 0 -0 1 168 95)"/><path d="M330.875 164.983 444.03 228.558 443.31 229.841 330.153 166.267ZM444.257 226.152 447.949 231.603 441.372 231.286Z" transform="matrix(1.00189 0 -0 1 168 95)"/><path d="M331.064 165.135 445.236 293.427 444.136 294.405 329.964 166.115ZM446.233 291.225 447.949 297.582 441.834 295.14Z" transform="matrix(1.00189 0 -0 1 168 95)"/><path d="M331.148 165.251 445.276 358.959 444.007 359.707 329.879 165.999ZM446.68 356.992 447.133 363.56 441.606 359.981Z" transform="matrix(1.00189 0 -0 1 168 95)"/><path d="M331.187 165.325 446.627 424.757 445.282 425.356 329.841 165.925ZM448.245 422.961 447.949 429.538 442.864 425.355Z" transform="matrix(1.00189 0 -0 1 168 95)"/><path d="M330.514 230.403 443.041 230.403 443.041 231.875 330.514 231.875ZM442.06 228.194 447.949 231.139 442.06 234.083Z" transform="matrix(1.00189 0 -0 1 168 95)"/><path d="M-0.549888 0.48937-114.722-127.802-113.622-128.78 0.549888-0.48937ZM-115.719-125.6-117.435-131.957-111.32-129.515Z" transform="matrix(-1.00189 -0 -0 1 499.138 326.332)"/><path d="M-0.36056 0.64176-113.516-62.9329-112.796-64.2164 0.36056-0.64176ZM-113.743-60.5269-117.435-65.9784-110.858-65.661Z" transform="matrix(-1.00189 -0 -0 1 499.138 326.603)"/><path d="M330.875 230.497 444.03 294.072 443.31 295.355 330.153 231.781ZM444.257 291.666 447.949 297.117 441.372 296.8Z" transform="matrix(1.00189 0 -0 1 168 95)"/><path d="M330.875 230.497 444.03 294.072 443.31 295.355 330.153 231.781ZM444.257 291.666 447.949 297.117 441.372 296.8Z" transform="matrix(1.00189 0 -0 1 168 95)"/><path d="M331.065 230.652 444.434 358.931 443.331 359.906 329.963 231.626ZM445.439 356.733 447.133 363.096 441.027 360.633Z" transform="matrix(1.00189 0 -0 1 168 95)"/><path d="M331.147 230.763 446.077 424.478 444.811 425.229 329.881 231.514ZM447.476 422.507 447.949 429.074 442.412 425.512Z" transform="matrix(1.00189 0 -0 1 168 95)"/><path d="M331.064 296.899 445.236 425.191 444.136 426.169 329.964 297.878ZM446.233 422.989 447.949 429.346 441.834 426.904Z" transform="matrix(1.00189 0 -0 1 168 95)"/><path d="M330.876 296.748 443.224 360.31 442.499 361.592 330.152 298.029ZM443.457 357.905 447.133 363.367 440.557 363.03Z" transform="matrix(1.00189 0 -0 1 168 95)"/><path d="M330.514 296.653 443.041 296.653 443.041 298.125 330.514 298.125ZM442.06 294.444 447.949 297.389 442.06 300.333Z" transform="matrix(1.00189 0 -0 1 168 95)"/><path d="M-0.36056 0.64176-113.516-62.9329-112.796-64.2164 0.36056-0.64176ZM-113.743-60.5269-117.435-65.9784-110.858-65.661Z" transform="matrix(-1.00189 -0 -0 1 499.138 392.117)"/><path d="M-0.549888 0.48937-114.722-127.802-113.622-128.78 0.549888-0.48937ZM-115.719-125.6-117.435-131.957-111.32-129.515Z" transform="matrix(-1.00189 -0 -0 1 499.138 392.582)"/><path d="M-0.633074 0.375601-115.564-193.339-114.297-194.09 0.633074-0.375601ZM-116.962-191.368-117.435-197.935-111.898-194.373Z" transform="matrix(-1.00189 -0 -0 1 499.138 392.31)"/><path d="M330.136 362.996 444.102 426.584 443.384 427.869 329.419 364.281ZM444.32 424.177 448.028 429.617 441.451 429.319Z" transform="matrix(1.00189 0 -0 1 168 95)"/><path d="M329.778 362.903 442.305 362.903 442.305 364.375 329.778 364.375ZM441.324 360.694 447.213 363.639 441.324 366.583Z" transform="matrix(1.00189 0 -0 1 168 95)"/><path d="M-0.358665 0.642821-114.324-62.9446-113.606-64.2302 0.358665-0.642821ZM-114.543-60.5378-118.25-65.9784-111.673-65.6804Z" transform="matrix(-1.00189 -0 -0 1 498.4 458.367)"/><path d="M-0.548201 0.491259-115.524-127.811-114.428-128.794 0.548201-0.491259ZM-116.513-125.606-118.25-131.957-112.127-129.536Z" transform="matrix(-1.00189 -0 -0 1 498.4 458.096)"/><path d="M-0.631928 0.377526-116.366-193.346-115.102-194.101 0.631928-0.377526ZM-117.758-191.37-118.25-197.935-112.702-194.39Z" transform="matrix(-1.00189 -0 -0 1 498.4 458.56)"/><path d="M-0.671761 0.300993-116.916-259.135-115.572-259.737 0.671761-0.300993ZM-118.529-257.336-118.25-263.913-113.156-259.743Z" transform="matrix(-1.00189 -0 -0 1 498.4 458.289)"/><path d="M330.514 428.417 443.041 428.417 443.041 429.889 330.514 429.889ZM442.06 426.208 447.949 429.153 442.06 432.097Z" transform="matrix(1.00189 0 -0 1 168 95)"/><path d="M-0.362473 0.640682-112.71-62.9213-111.985-64.2027 0.362473-0.640682ZM-112.943-60.5159-116.619-65.9784-110.043-65.6414Z" transform="matrix(-1.00189 -0 -0 1 499.138 524.617)"/><path d="M-0.549888 0.48937-114.722-127.802-113.622-128.78 0.549888-0.48937ZM-115.719-125.6-117.435-131.957-111.32-129.515Z" transform="matrix(-1.00189 -0 -0 1 499.138 524.346)"/><path d="M-0.633074 0.375601-115.564-193.339-114.297-194.09 0.633074-0.375601ZM-116.962-191.368-117.435-197.935-111.898-194.373Z" transform="matrix(-1.00189 -0 -0 1 499.138 524.074)"/><path d="M-0.672535 0.29926-116.113-259.132-114.768-259.731 0.672535-0.29926ZM-117.731-257.336-117.435-263.913-112.35-259.73Z" transform="matrix(-1.00189 -0 -0 1 499.138 524.539)"/><path d="M-0.693482 0.246865-116.482-325.021-115.095-325.515 0.693482-0.246865ZM-118.233-323.357-117.435-329.892-112.686-325.332Z" transform="matrix(-1.00189 -0 -0 1 499.138 524.267)"/><path d="M500.955 428.534 599.266 491.855 598.469 493.093 500.157 429.772ZM599.636 489.467 602.993 495.131 596.448 494.418Z" transform="matrix(1.00189 0 -0 1 168 95)"/><path d="M500.556 428.417 598.086 428.417 598.086 429.889 500.556 429.889ZM597.104 426.208 602.993 429.153 597.104 432.097Z" transform="matrix(1.00189 0 -0 1 168 95)"/><path d="M-0.400849 0.617397-97.9065-62.6888-97.1048-63.9235 0.400849-0.617397ZM-98.2856-60.3021-101.622-65.9784-95.0791-65.2412Z" transform="matrix(-1.00189 -0 -0 1 669.5 524.617)"/><path d="M-0.581469 0.451391-100.01-127.629-98.8472-128.532 0.581469-0.451391ZM-101.152-125.5-102.437-131.957-96.5005-129.111Z" transform="matrix(-1.00189 -0 -0 1 669.5 524.346)"/><path d="M-0.65375 0.338335-100.835-193.239-99.5281-193.915 0.65375-0.338335ZM-102.346-191.352-102.437-197.935-97.1159-194.059Z" transform="matrix(-1.00189 -0 -0 1 669.5 524.074)"/><path d="M-0.686231 0.266359-101.348-259.073-99.9757-259.605 0.686231-0.266359ZM-103.051-257.358-102.437-263.913-97.5612-259.489Z" transform="matrix(-1.00189 -0 -0 1 669.5 524.539)"/><path d="M-0.702999 0.218294-101.685-324.988-100.279-325.424 0.702999-0.218294ZM-103.503-323.395-102.437-329.892-97.8792-325.141Z" transform="matrix(-1.00189 -0 -0 1 669.5 524.267)"/><path d="M-0.712994 0.183028-101.114-390.932-99.6879-391.298 0.712994-0.183028ZM-103.009-389.434-101.622-395.87-97.3051-390.899Z" transform="matrix(-1.00189 -0 -0 1 669.5 524.731)"/><path d="M500.4 363.185 600.628 491.277 599.468 492.184 499.239 364.092ZM601.763 489.144 603.073 495.596 597.125 492.773Z" transform="matrix(1.00189 0 -0 1 168 95)"/><path d="M500.215 363.018 599.334 426.355 598.541 427.595 499.423 364.259ZM599.696 423.965 603.073 429.617 596.525 428.927Z" transform="matrix(1.00189 0 -0 1 168 95)"/><path d="M499.819 362.903 597.35 362.903 597.35 364.375 499.819 364.375ZM596.368 360.694 602.257 363.639 596.368 366.583Z" transform="matrix(1.00189 0 -0 1 168 95)"/><path d="M-0.396361 0.620288-99.5141-62.7157-98.7213-63.9563 0.396361-0.620288ZM-99.8763-60.3264-103.254-65.9784-96.7059-65.2887Z" transform="matrix(-1.00189 -0 -0 1 668.763 458.367)"/><path d="M-0.579728 0.453624-100.808-127.638-99.6488-128.546 0.579728-0.453624ZM-101.943-125.505-103.254-131.957-97.3051-129.134Z" transform="matrix(-1.00189 -0 -0 1 668.763 458.096)"/><path d="M-0.652649 0.340455-101.636-193.244-100.33-193.925 0.652649-0.340455ZM-103.14-191.352-103.254-197.935-97.919-194.076Z" transform="matrix(-1.00189 -0 -0 1 668.763 458.56)"/><path d="M-0.685514 0.268199-102.151-259.075-100.78-259.612 0.685514-0.268199ZM-103.85-257.357-103.254-263.913-98.3658-259.503Z" transform="matrix(-1.00189 -0 -0 1 668.763 458.289)"/><path d="M-0.702999 0.218294-101.685-324.988-100.279-325.424 0.702999-0.218294ZM-103.503-323.395-102.437-329.892-97.8792-325.141Z" transform="matrix(-1.00189 -0 -0 1 668.763 458.753)"/><path d="M501.209 297.05 601.391 490.628 600.084 491.304 499.902 297.727ZM602.901 488.741 602.993 495.324 597.671 491.448Z" transform="matrix(1.00189 0 -0 1 168 95)"/><path d="M501.137 296.938 600.565 425.018 599.403 425.921 499.974 297.84ZM601.708 422.888 602.993 429.346 597.056 426.5Z" transform="matrix(1.00189 0 -0 1 168 95)"/><path d="M500.957 296.771 598.462 360.078 597.66 361.313 500.154 298.006ZM598.841 357.691 602.177 363.367 595.635 362.63Z" transform="matrix(1.00189 0 -0 1 168 95)"/><path d="M500.556 296.653 598.086 296.653 598.086 298.125 500.556 298.125ZM597.104 294.444 602.993 297.389 597.104 300.333Z" transform="matrix(1.00189 0 -0 1 168 95)"/><path d="M-0.398595 0.618855-98.7103-62.7022-97.9131-63.9399 0.398595-0.618855ZM-99.0806-60.3142-102.437-65.9784-95.8925-65.2651Z" transform="matrix(-1.00189 -0 -0 1 669.5 392.117)"/><path d="M-0.581469 0.451391-100.01-127.629-98.8472-128.532 0.581469-0.451391ZM-101.152-125.5-102.437-131.957-96.5005-129.111Z" transform="matrix(-1.00189 -0 -0 1 669.5 392.582)"/><path d="M-0.65375 0.338335-100.835-193.239-99.5281-193.915 0.65375-0.338335ZM-102.346-191.352-102.437-197.935-97.1159-194.059Z" transform="matrix(-1.00189 -0 -0 1 669.5 392.31)"/><path d="M-0.686945 0.264512-100.545-259.069-99.1711-259.598 0.686945-0.264512ZM-102.253-257.36-101.622-263.913-96.7574-259.476Z" transform="matrix(-1.00189 -0 -0 1 669.5 392.775)"/><path d="M-0.654848 0.336204-100.035-193.233-98.725-193.906 0.654848-0.336204ZM-101.551-191.351-101.622-197.935-96.3128-194.041Z" transform="matrix(-1.00189 -0 -0 1 669.5 326.796)"/><path d="M-0.581469 0.451391-100.01-127.629-98.8472-128.532 0.581469-0.451391ZM-101.152-125.5-102.437-131.957-96.5005-129.111Z" transform="matrix(-1.00189 -0 -0 1 669.5 326.332)"/><path d="M-0.398595 0.618855-98.7103-62.7022-97.9131-63.9399 0.398595-0.618855ZM-99.0806-60.3142-102.437-65.9784-95.8925-65.2651Z" transform="matrix(-1.00189 -0 -0 1 669.5 326.603)"/><path d="M500.556 230.403 598.086 230.403 598.086 231.875 500.556 231.875ZM597.104 228.194 602.993 231.139 597.104 234.083Z" transform="matrix(1.00189 0 -0 1 168 95)"/><path d="M500.955 230.52 599.266 293.841 598.469 295.079 500.157 231.758ZM599.636 291.453 602.993 297.117 596.448 296.404Z" transform="matrix(1.00189 0 -0 1 168 95)"/><path d="M501.139 230.69 599.766 358.758 598.6 359.657 499.973 231.588ZM600.917 356.633 602.177 363.096 596.251 360.226Z" transform="matrix(1.00189 0 -0 1 168 95)"/><path d="M501.209 230.8 601.391 424.378 600.084 425.054 499.902 231.477ZM602.901 422.491 602.993 429.074 597.671 425.198Z" transform="matrix(1.00189 0 -0 1 168 95)"/><path d="M501.242 230.872 601.903 490.212 600.531 490.744 499.869 231.405ZM603.607 488.497 602.993 495.052 598.117 490.628Z" transform="matrix(1.00189 0 -0 1 168 95)"/><path d="M-0.583211 0.449137-99.2101-127.62-98.0441-128.518 0.583211-0.449137ZM-100.361-125.494-101.622-131.957-95.6959-129.087Z" transform="matrix(-1.00189 -0 -0 1 669.5 260.818)"/><path d="M-0.398595 0.618855-98.7103-62.7022-97.9131-63.9399 0.398595-0.618855ZM-99.0806-60.3142-102.437-65.9784-95.8925-65.2651Z" transform="matrix(-1.00189 -0 -0 1 669.5 260.353)"/><path d="M500.556 164.889 598.086 164.889 598.086 166.361 500.556 166.361ZM597.104 162.681 602.993 165.625 597.104 168.569Z" transform="matrix(1.00189 0 -0 1 168 95)"/><path d="M500.955 165.006 599.266 228.327 598.469 229.565 500.157 166.244ZM599.636 225.939 602.993 231.603 596.448 230.89Z" transform="matrix(1.00189 0 -0 1 168 95)"/><path d="M501.137 165.174 600.565 293.254 599.403 294.157 499.974 166.076ZM601.708 291.125 602.993 297.582 597.056 294.736Z" transform="matrix(1.00189 0 -0 1 168 95)"/><path d="M501.211 165.289 600.59 358.858 599.281 359.531 499.9 165.961ZM602.107 356.976 602.177 363.56 596.868 359.666Z" transform="matrix(1.00189 0 -0 1 168 95)"/><path d="M501.211 165.289 600.59 358.858 599.281 359.531 499.9 165.961ZM602.107 356.976 602.177 363.56 596.868 359.666Z" transform="matrix(1.00189 0 -0 1 168 95)"/><path d="M501.242 165.359 601.903 424.698 600.531 425.23 499.869 165.891ZM603.607 422.983 602.993 429.538 598.117 425.114Z" transform="matrix(1.00189 0 -0 1 168 95)"/><path d="M501.259 165.406 602.24 490.613 600.835 491.049 499.853 165.844ZM604.059 489.02 602.993 495.517 598.435 490.766Z" transform="matrix(1.00189 0 -0 1 168 95)"/><path d="M-0.400849 0.617397-97.9065-62.6888-97.1048-63.9235 0.400849-0.617397ZM-98.2856-60.3021-101.622-65.9784-95.0791-65.2412Z" transform="matrix(-1.00189 -0 -0 1 669.5 194.839)"/><path d="M500.556 98.6389 598.086 98.6389 598.086 100.111 500.556 100.111ZM597.104 96.4306 602.993 99.375 597.104 102.319Z" transform="matrix(1.00189 0 -0 1 168 95)"/><path d="M500.955 98.7559 599.266 162.077 598.469 163.315 500.157 99.9941ZM599.636 159.689 602.993 165.353 596.448 164.64Z" transform="matrix(1.00189 0 -0 1 168 95)"/><path d="M501.137 98.9238 600.565 227.004 599.403 227.907 499.974 99.8262ZM601.708 224.875 602.993 231.332 597.056 228.486Z" transform="matrix(1.00189 0 -0 1 168 95)"/><path d="M501.209 99.0364 601.391 292.614 600.084 293.29 499.902 99.7136ZM602.901 290.727 602.993 297.31 597.671 293.434Z" transform="matrix(1.00189 0 -0 1 168 95)"/><path d="M501.242 99.1107 601.1 358.444 599.727 358.973 499.869 99.6393ZM602.809 356.735 602.177 363.288 597.313 358.851Z" transform="matrix(1.00189 0 -0 1 168 95)"/><path d="M501.259 99.1564 602.24 424.363 600.835 424.799 499.853 99.5936ZM604.059 422.77 602.993 429.267 598.435 424.516Z" transform="matrix(1.00189 0 -0 1 168 95)"/><path d="M501.268 99.1902 602.476 490.31 601.051 490.679 499.843 99.5598ZM604.369 488.806 602.993 495.245 598.667 490.282Z" transform="matrix(1.00189 0 -0 1 168 95)"/><path d="M-0.497849 0.542223-140.602-128.096-139.606-129.18 0.497849-0.542223ZM-141.372-125.805-143.718-131.957-137.389-130.143Z" transform="matrix(-1.00189 -0 -0 1 825.112 590.596)"/><path d="M-0.674239 0.295401-143.239-325.101-141.891-325.692 0.674239-0.295401ZM-144.868-323.317-144.534-329.892-139.474-325.68Z" transform="matrix(-1.00189 -0 -0 1 825.112 590.517)"/><path d="M-0.307117 0.668983-139.566-63.2621-138.951-64.6 0.307117-0.668983ZM-139.595-60.8455-143.718-65.9784-137.138-66.1974Z" transform="matrix(-1.00189 -0 -0 1 825.112 524.617)"/><path d="M-0.64563 0.353584-142.824-259.258-141.532-259.965 0.64563-0.353584ZM-144.288-257.334-144.534-263.913-139.123-260.163Z" transform="matrix(-1.00189 -0 -0 1 825.112 524.539)"/><path d="M-0.593321 0.435695-143.04-193.545-141.853-194.417 0.593321-0.435695ZM-144.238-191.446-145.35-197.935-139.492-194.932Z" transform="matrix(-1.00189 -0 -0 1 824.375 458.56)"/><path d="M655.139 362.903 794.764 362.903 794.764 364.375 655.139 364.375ZM793.785 360.694 799.674 363.639 793.785 366.583Z" transform="matrix(1.00189 0 -0 1 168 95)"/><path d="M656.182 296.72 795.442 360.651 794.823 361.989 655.568 298.058ZM795.471 358.234 799.593 363.367 793.013 363.587Z" transform="matrix(1.00189 0 -0 1 168 95)"/><path d="M-0.305683 0.66964-140.376-63.271-139.765-64.6102 0.305683-0.66964ZM-140.4-60.8544-144.534-65.9784-137.955-66.2115Z" transform="matrix(-1.00189 -0 -0 1 825.112 326.603)"/><path d="M-0.496318 0.543625-141.407-128.105-140.414-129.192 0.496318-0.543625ZM-142.17-125.812-144.534-131.957-138.2-130.161Z" transform="matrix(-1.00189 -0 -0 1 825.112 392.582)"/><path d="M656.373 230.596 796.48 359.235 795.478 360.319 655.377 231.681ZM797.245 356.944 799.593 363.096 793.263 361.282Z" transform="matrix(1.00189 0 -0 1 168 95)"/><path d="M655.875 164.889 795.501 164.889 795.501 166.361 655.875 166.361ZM794.521 162.681 800.41 165.625 794.521 168.569Z" transform="matrix(1.00189 0 -0 1 168 95)"/><path d="M656.471 165.192 797.304 359.157 796.112 360.022 655.279 166.058ZM798.519 357.065 799.593 363.56 793.749 360.525Z" transform="matrix(1.00189 0 -0 1 168 95)"/><path d="M656.521 99.0231 797.893 358.627 796.597 359.331 655.229 99.7269ZM799.365 356.709 799.593 363.288 794.19 359.525Z" transform="matrix(1.00189 0 -0 1 168 95)"/><path d="M656.18 98.7051 796.251 162.646 795.64 163.985 655.57 100.045ZM796.273 160.229 800.41 165.353 793.83 165.587Z" transform="matrix(1.00189 0 -0 1 168 95)"/><path d="M655.634 33.3161 797.348 161.975 796.362 163.065 654.644 34.4061ZM798.106 159.679 800.491 165.818 794.146 164.039Z" transform="matrix(1.00189 0 -0 1 168 95)"/><path d="M655.813 33.5657 798.379 358.962 797.032 359.553 654.465 34.1565ZM800.006 357.178 799.674 363.753 794.61 359.541Z" transform="matrix(1.00189 0 -0 1 168 95)"/><text font-family="Calibri,Calibri_MSFontService,sans-serif" font-weight="400" font-size="24" transform="matrix(4.51588e-17 0.736111 -0.7375 4.50738e-17 990.762 347)">……</text></g></g></g></g><text font-family="Calibri,Calibri_MSFontService,sans-serif" font-weight="400" font-size="19" transform="translate(248.202 216)">Input<tspan x="174.447" y="-60">Convolutional</tspan><tspan x="335.301" y="-60">Convolutional</tspan><tspan x="525.825" y="-132">Dense</tspan><tspan x="718.913" y="0">Output</tspan></text></g></svg>