<svg width="1280" height="720" xmlns="http://www.w3.org/2000/svg" xmlns:xlink="http://www.w3.org/1999/xlink" overflow="hidden"><defs><clipPath id="clip0"><path d="M0 0 1280 0 1280 720 0 720Z" fill-rule="evenodd" clip-rule="evenodd"/></clipPath></defs><g clip-path="url(#clip0)"><rect x="0" y="0" width="1280" height="720" fill="#FFFFFF"/><path d="M96 225C96 205.118 112.118 189 132 189 151.882 189 168 205.118 168 225 168 244.882 151.882 261 132 261 112.118 261 96 244.882 96 225Z" stroke="#FFFFFF" stroke-width="2" stroke-miterlimit="8" fill="#A5A5A5" fill-rule="evenodd"/><path d="M96 314.5C96 294.894 112.118 279 132 279 151.882 279 168 294.894 168 314.5 168 334.106 151.882 350 132 350 112.118 350 96 334.106 96 314.5Z" stroke="#FFFFFF" stroke-width="2" stroke-miterlimit="8" fill="#A5A5A5" fill-rule="evenodd"/><path d="M96 404C96 384.118 112.118 368 132 368 151.882 368 168 384.118 168 404 168 423.882 151.882 440 132 440 112.118 440 96 423.882 96 404Z" stroke="#FFFFFF" stroke-width="2" stroke-miterlimit="8" fill="#A5A5A5" fill-rule="evenodd"/><path d="M95 493.5C95 473.894 111.118 458 131 458 150.882 458 167 473.894 167 493.5 167 513.106 150.882 529 131 529 111.118 529 95 513.106 95 493.5Z" stroke="#FFFFFF" stroke-width="2" stroke-miterlimit="8" fill="#A5A5A5" fill-rule="evenodd"/><path d="M378 225C378 205.118 393.894 189 413.5 189 433.106 189 449 205.118 449 225 449 244.882 433.106 261 413.5 261 393.894 261 378 244.882 378 225Z" stroke="#FFFFFF" stroke-width="2" stroke-miterlimit="8" fill="#A5A5A5" fill-rule="evenodd"/><path d="M378 314.5C378 294.894 393.894 279 413.5 279 433.106 279 449 294.894 449 314.5 449 334.106 433.106 350 413.5 350 393.894 350 378 334.106 378 314.5Z" stroke="#FFFFFF" stroke-width="2" stroke-miterlimit="8" fill="#A5A5A5" fill-rule="evenodd"/><path d="M378 404C378 384.118 393.894 368 413.5 368 433.106 368 449 384.118 449 404 449 423.882 433.106 440 413.5 440 393.894 440 378 423.882 378 404Z" stroke="#FFFFFF" stroke-width="2" stroke-miterlimit="8" fill="#A5A5A5" fill-rule="evenodd"/><path d="M377 493.5C377 473.894 392.894 458 412.5 458 432.106 458 448 473.894 448 493.5 448 513.106 432.106 529 412.5 529 392.894 529 377 513.106 377 493.5Z" stroke="#FFFFFF" stroke-width="2" stroke-miterlimit="8" fill="#A5A5A5" fill-rule="evenodd"/><path d="M378 135C378 115.118 393.894 99 413.5 99 433.106 99 449 115.118 449 135 449 154.882 433.106 171 413.5 171 393.894 171 378 154.882 378 135Z" stroke="#FFFFFF" stroke-width="2" stroke-miterlimit="8" fill="#A5A5A5" fill-rule="evenodd"/><path d="M378 583.5C378 563.894 393.894 548 413.5 548 433.106 548 449 563.894 449 583.5 449 603.106 433.106 619 413.5 619 393.894 619 378 603.106 378 583.5Z" stroke="#FFFFFF" stroke-width="2" stroke-miterlimit="8" fill="#A5A5A5" fill-rule="evenodd"/><path d="M609 225C609 205.118 624.894 189 644.5 189 664.106 189 680 205.118 680 225 680 244.882 664.106 261 644.5 261 624.894 261 609 244.882 609 225Z" stroke="#FFFFFF" stroke-width="2" stroke-miterlimit="8" fill="#A5A5A5" fill-rule="evenodd"/><path d="M609 314.5C609 294.894 624.894 279 644.5 279 664.106 279 680 294.894 680 314.5 680 334.106 664.106 350 644.5 350 624.894 350 609 334.106 609 314.5Z" stroke="#FFFFFF" stroke-width="2" stroke-miterlimit="8" fill="#A5A5A5" fill-rule="evenodd"/><path d="M609 404C609 384.118 624.894 368 644.5 368 664.106 368 680 384.118 680 404 680 423.882 664.106 440 644.5 440 624.894 440 609 423.882 609 404Z" stroke="#FFFFFF" stroke-width="2" stroke-miterlimit="8" fill="#A5A5A5" fill-rule="evenodd"/><path d="M608 493.5C608 473.894 623.894 458 643.5 458 663.106 458 679 473.894 679 493.5 679 513.106 663.106 529 643.5 529 623.894 529 608 513.106 608 493.5Z" stroke="#FFFFFF" stroke-width="2" stroke-miterlimit="8" fill="#A5A5A5" fill-rule="evenodd"/><path d="M609 135C609 115.118 624.894 99 644.5 99 664.106 99 680 115.118 680 135 680 154.882 664.106 171 644.5 171 624.894 171 609 154.882 609 135Z" stroke="#FFFFFF" stroke-width="2" stroke-miterlimit="8" fill="#A5A5A5" fill-rule="evenodd"/><path d="M609 583.5C609 563.894 624.894 548 644.5 548 664.106 548 680 563.894 680 583.5 680 603.106 664.106 619 644.5 619 624.894 619 609 603.106 609 583.5Z" stroke="#FFFFFF" stroke-width="2" stroke-miterlimit="8" fill="#A5A5A5" fill-rule="evenodd"/><path d="M820 225C820 205.118 835.894 189 855.5 189 875.106 189 891 205.118 891 225 891 244.882 875.106 261 855.5 261 835.894 261 820 244.882 820 225Z" stroke="#FFFFFF" stroke-width="2" stroke-miterlimit="8" fill="#A5A5A5" fill-rule="evenodd"/><path d="M820 314.5C820 294.894 835.894 279 855.5 279 875.106 279 891 294.894 891 314.5 891 334.106 875.106 350 855.5 350 835.894 350 820 334.106 820 314.5Z" stroke="#FFFFFF" stroke-width="2" stroke-miterlimit="8" fill="#A5A5A5" fill-rule="evenodd"/><path d="M820 404C820 384.118 835.894 368 855.5 368 875.106 368 891 384.118 891 404 891 423.882 875.106 440 855.5 440 835.894 440 820 423.882 820 404Z" stroke="#FFFFFF" stroke-width="2" stroke-miterlimit="8" fill="#A5A5A5" fill-rule="evenodd"/><path d="M818 493.5C818 473.894 834.118 458 854 458 873.882 458 890 473.894 890 493.5 890 513.106 873.882 529 854 529 834.118 529 818 513.106 818 493.5Z" stroke="#FFFFFF" stroke-width="2" stroke-miterlimit="8" fill="#A5A5A5" fill-rule="evenodd"/><path d="M820 135C820 115.118 835.894 99 855.5 99 875.106 99 891 115.118 891 135 891 154.882 875.106 171 855.5 171 835.894 171 820 154.882 820 135Z" stroke="#FFFFFF" stroke-width="2" stroke-miterlimit="8" fill="#A5A5A5" fill-rule="evenodd"/><path d="M820 583.5C820 563.894 835.894 548 855.5 548 875.106 548 891 563.894 891 583.5 891 603.106 875.106 619 855.5 619 835.894 619 820 603.106 820 583.5Z" stroke="#FFFFFF" stroke-width="2" stroke-miterlimit="8" fill="#A5A5A5" fill-rule="evenodd"/><path d="M1087 225C1087 205.118 1103.12 189 1123 189 1142.88 189 1159 205.118 1159 225 1159 244.882 1142.88 261 1123 261 1103.12 261 1087 244.882 1087 225Z" stroke="#FFFFFF" stroke-width="2" stroke-miterlimit="8" fill="#A5A5A5" fill-rule="evenodd"/><path d="M1086 493.5C1086 473.894 1102.12 458 1122 458 1141.88 458 1158 473.894 1158 493.5 1158 513.106 1141.88 529 1122 529 1102.12 529 1086 513.106 1086 493.5Z" stroke="#FFFFFF" stroke-width="2" stroke-miterlimit="8" fill="#A5A5A5" fill-rule="evenodd"/><path d="M820 673C820 653.118 835.894 637 855.5 637 875.106 637 891 653.118 891 673 891 692.882 875.106 709 855.5 709 835.894 709 820 692.882 820 673Z" stroke="#FFFFFF" stroke-width="2" stroke-miterlimit="8" fill="#A5A5A5" fill-rule="evenodd"/><path d="M818 45.5C818 25.8939 834.118 10 854 10 873.882 10 890 25.8939 890 45.5 890 65.1061 873.882 81 854 81 834.118 81 818 65.1061 818 45.5Z" stroke="#FFFFFF" stroke-width="2" stroke-miterlimit="8" fill="#A5A5A5" fill-rule="evenodd"/><path d="M0.392242-0.919862 204.457 86.0964 203.673 87.9361-0.392242 0.919862ZM204.407 82.8137 210.197 89.6311 201.269 90.1726Z" transform="matrix(1 0 0 -1 168 224.631)"/><path d="M168 224 371.53 224 371.53 226 168 226ZM370.197 221 378.197 225 370.197 229Z"/><path d="M168.392 224.08 372.457 311.096 371.673 312.936 167.608 225.92ZM372.407 307.814 378.197 314.631 369.269 315.173Z"/><path d="M168.649 224.239 373.773 399.175 372.475 400.697 167.351 225.761ZM374.706 396.027 378.197 404.262 369.515 402.114Z"/><path d="M168.789 224.386 373.786 488.017 372.208 489.245 167.211 225.614ZM375.336 485.122 377.089 493.893 369.02 490.033Z"/><path d="M168.863 224.494 375.689 577.269 373.964 578.281 167.137 225.506ZM377.602 574.6 378.197 583.524 370.7 578.646Z"/><path d="M168.788 313.384 374.88 577.026 373.304 578.257 167.212 314.616ZM376.422 574.127 378.197 582.893 370.119 579.054Z"/><path d="M168.651 313.241 372.678 488.164 371.377 489.682 167.349 314.759ZM373.619 485.018 377.089 493.262 368.412 491.092Z"/><path d="M168.392 313.08 372.457 400.096 371.673 401.936 167.608 314.92ZM372.407 396.814 378.197 403.631 369.269 404.173Z"/><path d="M168 313 371.53 313 371.53 315 168 315ZM370.197 310 378.197 314 370.197 318Z"/><path d="M0.392242-0.919862 204.457 86.0964 203.673 87.9361-0.392242 0.919862ZM204.407 82.8137 210.197 89.6311 201.269 90.1726Z" transform="matrix(1 0 0 -1 168 314.631)"/><path d="M0.648897-0.760876 205.773 174.175 204.475 175.697-0.648897 0.760876ZM206.706 171.027 210.197 179.262 201.515 177.114Z" transform="matrix(1 0 0 -1 168 314.262)"/><path d="M0.787848-0.61587 206.88 263.026 205.304 264.257-0.787848 0.61587ZM208.422 260.127 210.197 268.893 202.119 265.054Z" transform="matrix(1 0 0 -1 168 403.893)"/><path d="M0.648897-0.760876 205.773 174.175 204.475 175.697-0.648897 0.760876ZM206.706 171.027 210.197 179.262 201.515 177.114Z" transform="matrix(1 0 0 -1 168 404.262)"/><path d="M0.392242-0.919862 204.457 86.0964 203.673 87.9361-0.392242 0.919862ZM204.407 82.8137 210.197 89.6311 201.269 90.1726Z" transform="matrix(1 0 0 -1 168 403.631)"/><path d="M168 403 371.53 403 371.53 405 168 405ZM370.197 400 378.197 404 370.197 408Z"/><path d="M168.394 403.081 371.356 490.086 370.568 491.924 167.606 404.919ZM371.312 486.803 377.089 493.631 368.16 494.156Z"/><path d="M168.649 403.239 373.773 578.175 372.475 579.697 167.351 404.761ZM374.706 575.027 378.197 583.262 369.515 581.115Z"/><path d="M167.391 493.079 372.558 580.107 371.777 581.948 166.609 494.921ZM372.503 576.825 378.306 583.631 369.379 584.189Z"/><path d="M167 493 370.53 493 370.53 495 167 495ZM369.197 490 377.197 494 369.197 498Z"/><path d="M0.390499-0.920603 205.558 86.107 204.777 87.9482-0.390499 0.920603ZM205.503 82.8247 211.306 89.6311 202.379 90.1895Z" transform="matrix(1 0 0 -1 167 493.631)"/><path d="M0.64692-0.762558 206.869 174.187 205.575 175.712-0.64692 0.762558ZM207.793 171.037 211.306 179.262 202.617 177.137Z" transform="matrix(1 0 0 -1 167 493.262)"/><path d="M0.786272-0.61788 207.973 263.034 206.4 264.269-0.786272 0.61788ZM209.508 260.132 211.306 268.893 203.217 265.075Z" transform="matrix(1 0 0 -1 167 493.893)"/><path d="M0.861505-0.50775 208.782 352.274 207.059 353.289-0.861505 0.50775ZM210.69 349.601 211.306 358.524 203.797 353.663Z" transform="matrix(1 0 0 -1 167 493.524)"/><path d="M449 134 601.867 134 601.867 136 449 136ZM600.534 131 608.534 135 600.534 139Z"/><path d="M449.49 134.128 603.211 220.494 602.232 222.237 448.51 135.872ZM603.519 217.225 608.534 224.631 599.6 224.2Z"/><path d="M449.747 134.335 604.849 308.618 603.355 309.947 448.253 135.665ZM606.203 305.627 608.534 314.262 600.227 310.945Z"/><path d="M449.86 134.49 605.992 397.649 604.272 398.67 448.14 135.51ZM607.892 394.972 608.534 403.893 601.012 399.054Z"/><path d="M449.915 134.596 605.646 487.024 603.817 487.832 448.085 135.404ZM607.851 484.59 607.426 493.524 600.533 487.824Z"/><path d="M449.942 134.665 607.24 576.538 605.355 577.209 448.058 135.335ZM609.619 574.277 608.534 583.155 602.083 576.96Z"/><path d="M0.489818-0.871825 154.211 85.4938 153.232 87.2374-0.489818 0.871825ZM154.519 82.2252 159.534 89.6311 150.6 89.1998Z" transform="matrix(1 0 0 -1 449 224.631)"/><path d="M449 224 601.867 224 601.867 226 449 226ZM600.534 221 608.534 225 600.534 229Z"/><path d="M449.49 224.128 603.211 310.494 602.232 312.237 448.51 225.872ZM603.519 307.225 608.534 314.631 599.6 314.2Z"/><path d="M449.747 224.335 604.849 398.618 603.355 399.947 448.253 225.665ZM606.203 395.627 608.534 404.262 600.227 400.945Z"/><path d="M449.862 224.492 604.903 487.642 603.18 488.658 448.138 225.508ZM606.811 484.97 607.426 493.893 599.918 489.031Z"/><path d="M449.914 224.593 606.738 577.029 604.911 577.842 448.086 225.407ZM608.936 574.589 608.534 583.524 601.627 577.841Z"/><path d="M449 313 601.867 313 601.867 315 449 315ZM600.534 310 608.534 314 600.534 318Z"/><path d="M0.747017-0.664805 155.849 173.618 154.355 174.947-0.747017 0.664805ZM157.203 170.627 159.534 179.262 151.227 175.945Z" transform="matrix(1 0 0 -1 449 314.262)"/><path d="M0.489818-0.871825 154.211 85.4938 153.232 87.2374-0.489818 0.871825ZM154.519 82.2252 159.534 89.6311 150.6 89.1998Z" transform="matrix(1 0 0 -1 449 314.631)"/><path d="M449.49 313.128 603.211 399.494 602.232 401.237 448.51 314.872ZM603.519 396.225 608.534 403.631 599.6 403.2Z"/><path d="M449.49 313.128 603.211 399.494 602.232 401.237 448.51 314.872ZM603.519 396.225 608.534 403.631 599.6 403.2Z"/><path d="M449.749 313.338 603.76 487.604 602.261 488.929 448.251 314.662ZM605.125 484.619 607.426 493.262 599.131 489.917Z"/><path d="M449.86 313.49 605.992 576.649 604.272 577.67 448.14 314.51ZM607.892 573.972 608.534 582.893 601.012 578.054Z"/><path d="M449.747 403.335 604.849 577.618 603.355 578.947 448.253 404.665ZM606.203 574.627 608.534 583.262 600.227 579.945Z"/><path d="M449.492 403.13 602.116 489.478 601.131 491.219 448.508 404.87ZM602.432 486.21 607.426 493.631 598.493 493.173Z"/><path d="M449 403 601.867 403 601.867 405 449 405ZM600.534 400 608.534 404 600.534 408Z"/><path d="M0.489818-0.871825 154.211 85.4938 153.232 87.2374-0.489818 0.871825ZM154.519 82.2252 159.534 89.6311 150.6 89.1998Z" transform="matrix(1 0 0 -1 449 403.631)"/><path d="M0.747017-0.664805 155.849 173.618 154.355 174.947-0.747017 0.664805ZM157.203 170.627 159.534 179.262 151.227 175.945Z" transform="matrix(1 0 0 -1 449 404.262)"/><path d="M0.860025-0.510251 156.992 262.649 155.272 263.67-0.860025 0.510251ZM158.892 259.972 159.534 268.893 152.012 264.054Z" transform="matrix(1 0 0 -1 449 403.893)"/><path d="M448.487 493.127 603.308 579.51 602.333 581.256 447.513 494.873ZM603.605 576.24 608.642 583.631 599.707 583.226Z"/><path d="M448 493 600.867 493 600.867 495 448 495ZM599.534 490 607.534 494 599.534 498Z"/><path d="M0.487243-0.873266 155.308 85.5096 154.333 87.2561-0.487243 0.873266ZM155.605 82.2401 160.642 89.6311 151.707 89.2262Z" transform="matrix(1 0 0 -1 448 493.631)"/><path d="M0.744726-0.667371 156.938 173.63 155.449 174.965-0.744726 0.667371ZM158.282 170.635 160.642 179.262 152.324 175.974Z" transform="matrix(1 0 0 -1 448 493.262)"/><path d="M0.858468-0.512866 158.082 262.659 156.365 263.684-0.858468 0.512866ZM159.973 259.974 160.642 268.893 153.105 264.077Z" transform="matrix(1 0 0 -1 448 493.893)"/><path d="M0.912581-0.408896 158.829 352.032 157.004 352.85-0.912581 0.408896ZM161.021 349.588 160.642 358.524 153.721 352.859Z" transform="matrix(1 0 0 -1 448 493.524)"/><path d="M449 582 601.867 582 601.867 584 449 584ZM600.534 579 608.534 583 600.534 587Z"/><path d="M0.492416-0.87036 153.116 85.478 152.131 87.2187-0.492416 0.87036ZM153.432 82.2103 158.426 89.6311 149.493 89.1732Z" transform="matrix(1 0 0 -1 449 583.631)"/><path d="M0.747017-0.664805 155.849 173.618 154.355 174.947-0.747017 0.664805ZM157.203 170.627 159.534 179.262 151.227 175.945Z" transform="matrix(1 0 0 -1 449 583.262)"/><path d="M0.860025-0.510251 156.992 262.649 155.272 263.67-0.860025 0.510251ZM158.892 259.972 159.534 268.893 152.012 264.054Z" transform="matrix(1 0 0 -1 449 582.893)"/><path d="M0.913632-0.406542 157.738 352.029 155.911 352.842-0.913632 0.406542ZM159.936 349.589 159.534 358.524 152.627 352.841Z" transform="matrix(1 0 0 -1 449 583.524)"/><path d="M0.942089-0.335364 158.24 441.538 156.355 442.209-0.942089 0.335364ZM160.619 439.277 159.534 448.155 153.083 441.96Z" transform="matrix(1 0 0 -1 449 583.155)"/><path d="M680.542 582.159 814.097 668.18 813.014 669.862 679.458 583.841ZM814.6 664.936 819.16 672.631 810.269 671.662Z"/><path d="M680 582 812.494 582 812.494 584 680 584ZM811.16 579 819.16 583 811.16 587Z"/><path d="M0.54455-0.838728 133.005 85.1621 131.916 86.8395-0.54455 0.838728ZM133.52 81.9198 138.052 89.6311 129.164 88.6296Z" transform="matrix(1 0 0 -1 680 583.631)"/><path d="M0.78992-0.61321 135.862 173.383 134.283 174.61-0.78992 0.61321ZM137.414 170.49 139.16 179.262 131.095 175.396Z" transform="matrix(1 0 0 -1 680 583.262)"/><path d="M0.888113-0.459625 136.984 262.513 135.208 263.432-0.888113 0.459625ZM139.036 259.95 139.16 268.893 131.931 263.627Z" transform="matrix(1 0 0 -1 680 582.893)"/><path d="M0.932238-0.361846 137.68 351.948 135.816 352.671-0.932238 0.361846ZM139.994 349.619 139.16 358.524 132.536 352.514Z" transform="matrix(1 0 0 -1 680 583.524)"/><path d="M0.955017-0.29655 138.138 441.493 136.228 442.086-0.955017 0.29655ZM140.608 439.329 139.16 448.155 132.968 441.701Z" transform="matrix(1 0 0 -1 680 583.155)"/><path d="M0.968595-0.248642 137.362 531.078 135.425 531.575-0.968595 0.248642ZM139.937 529.043 138.052 537.786 132.188 531.032Z" transform="matrix(1 0 0 -1 680 583.786)"/><path d="M679.788 493.384 815.947 667.395 814.372 668.628 678.212 494.616ZM817.489 664.497 819.269 673.262 811.188 669.427Z"/><path d="M679.538 493.157 814.189 579.199 813.112 580.884 678.462 494.843ZM814.681 575.953 819.269 583.631 810.374 582.694Z"/><path d="M679 493 811.494 493 811.494 495 679 495ZM810.16 490 818.16 494 810.16 498Z"/><path d="M0.538453-0.842655 135.189 85.1987 134.112 86.884-0.538453 0.842655ZM135.681 81.9528 140.269 89.6311 131.374 88.6941Z" transform="matrix(1 0 0 -1 679 493.631)"/><path d="M0.787555-0.616244 136.947 173.395 135.372 174.628-0.787555 0.616244ZM138.489 170.497 140.269 179.262 132.188 175.427Z" transform="matrix(1 0 0 -1 679 493.262)"/><path d="M0.886617-0.462505 138.072 262.52 136.298 263.445-0.886617 0.462505ZM140.115 259.95 140.269 268.893 133.022 263.65Z" transform="matrix(1 0 0 -1 679 493.893)"/><path d="M0.931264-0.364346 138.771 351.951 136.908 352.68-0.931264 0.364346ZM141.079 349.617 140.269 358.524 133.629 352.532Z" transform="matrix(1 0 0 -1 679 493.524)"/><path d="M0.955017-0.29655 138.138 441.493 136.228 442.086-0.955017 0.29655ZM140.608 439.329 139.16 448.155 132.968 441.701Z" transform="matrix(1 0 0 -1 679 494.155)"/><path d="M680.888 403.54 816.984 666.513 815.208 667.432 679.112 404.46ZM819.036 663.95 819.16 672.893 811.931 667.627Z"/><path d="M680.79 403.387 815.862 577.383 814.283 578.61 679.21 404.613ZM817.414 574.49 819.16 583.262 811.095 579.396Z"/><path d="M680.545 403.161 813.005 489.162 811.916 490.84 679.455 404.839ZM813.52 485.92 818.052 493.631 809.164 492.63Z"/><path d="M680 403 812.494 403 812.494 405 680 405ZM811.16 400 819.16 404 811.16 408Z"/><path d="M0.541488-0.840708 134.097 85.1804 133.014 86.8618-0.541488 0.840708ZM134.6 81.9363 139.16 89.6311 130.269 88.662Z" transform="matrix(1 0 0 -1 680 403.631)"/><path d="M0.78992-0.61321 135.862 173.383 134.283 174.61-0.78992 0.61321ZM137.414 170.49 139.16 179.262 131.095 175.396Z" transform="matrix(1 0 0 -1 680 404.262)"/><path d="M0.888113-0.459625 136.984 262.513 135.208 263.432-0.888113 0.459625ZM139.036 259.95 139.16 268.893 131.931 263.627Z" transform="matrix(1 0 0 -1 680 403.893)"/><path d="M0.933208-0.359337 136.589 351.943 134.723 352.662-0.933208 0.359337ZM138.91 349.621 138.052 358.524 131.444 352.496Z" transform="matrix(1 0 0 -1 680 404.524)"/><path d="M0.889605-0.45673 135.896 262.505 134.117 263.419-0.889605 0.45673ZM137.956 259.949 138.052 268.893 130.84 263.603Z" transform="matrix(1 0 0 -1 680 314.893)"/><path d="M0.78992-0.61321 135.862 173.383 134.283 174.61-0.78992 0.61321ZM137.414 170.49 139.16 179.262 131.095 175.396Z" transform="matrix(1 0 0 -1 680 314.262)"/><path d="M0.541488-0.840708 134.097 85.1804 133.014 86.8618-0.541488 0.840708ZM134.6 81.9363 139.16 89.6311 130.269 88.662Z" transform="matrix(1 0 0 -1 680 314.631)"/><path d="M680 313 812.494 313 812.494 315 680 315ZM811.16 310 819.16 314 811.16 318Z"/><path d="M680.542 313.159 814.097 399.18 813.014 400.862 679.458 314.841ZM814.6 395.936 819.16 403.631 810.269 402.662Z"/><path d="M680.792 313.39 814.776 487.37 813.192 488.59 679.208 314.61ZM816.34 484.483 818.052 493.262 810.002 489.364Z"/><path d="M680.888 313.54 816.984 576.513 815.208 577.432 679.112 314.46ZM819.036 573.95 819.16 582.893 811.931 577.627Z"/><path d="M680.932 313.638 817.68 665.948 815.816 666.671 679.068 314.362ZM819.994 663.619 819.16 672.524 812.536 666.514Z"/><path d="M0.792287-0.610149 134.776 173.37 133.192 174.59-0.792287 0.610149ZM136.34 170.483 138.052 179.262 130.002 175.364Z" transform="matrix(1 0 0 -1 680 225.262)"/><path d="M0.541488-0.840708 134.097 85.1804 133.014 86.8618-0.541488 0.840708ZM134.6 81.9363 139.16 89.6311 130.269 88.662Z" transform="matrix(1 0 0 -1 680 224.631)"/><path d="M680 224 812.494 224 812.494 226 680 226ZM811.16 221 819.16 225 811.16 229Z"/><path d="M680.542 224.159 814.097 310.18 813.014 311.862 679.458 225.841ZM814.6 306.936 819.16 314.631 810.269 313.662Z"/><path d="M680.79 224.387 815.862 398.383 814.283 399.61 679.21 225.613ZM817.414 395.49 819.16 404.262 811.095 400.396Z"/><path d="M680.89 224.543 815.896 487.505 814.117 488.419 679.11 225.457ZM817.956 484.949 818.052 493.893 810.84 488.603Z"/><path d="M680.89 224.543 815.896 487.505 814.117 488.419 679.11 225.457ZM817.956 484.949 818.052 493.893 810.84 488.603Z"/><path d="M680.932 224.638 817.68 576.948 815.816 577.671 679.068 225.362ZM819.994 574.619 819.16 583.524 812.536 577.514Z"/><path d="M680.955 224.703 818.138 666.493 816.228 667.086 679.045 225.297ZM820.608 664.329 819.16 673.155 812.968 666.701Z"/><path d="M0.54455-0.838728 133.005 85.1621 131.916 86.8395-0.54455 0.838728ZM133.52 81.9198 138.052 89.6311 129.164 88.6296Z" transform="matrix(1 0 0 -1 680 135.631)"/><path d="M680 134 812.494 134 812.494 136 680 136ZM811.16 131 819.16 135 811.16 139Z"/><path d="M680.542 134.159 814.097 220.18 813.014 221.862 679.458 135.841ZM814.6 216.936 819.16 224.631 810.269 223.662Z"/><path d="M680.79 134.387 815.862 308.383 814.283 309.61 679.21 135.613ZM817.414 305.49 819.16 314.262 811.095 310.396Z"/><path d="M680.888 134.54 816.984 397.513 815.208 398.432 679.112 135.46ZM819.036 394.95 819.16 403.893 811.931 398.627Z"/><path d="M680.933 134.641 816.589 486.943 814.723 487.662 679.067 135.359ZM818.91 484.621 818.052 493.524 811.444 487.496Z"/><path d="M680.955 134.703 818.138 576.493 816.228 577.086 679.045 135.297ZM820.608 574.329 819.16 583.155 812.968 576.701Z"/><path d="M680.968 134.749 818.458 666.081 816.522 666.583 679.032 135.251ZM821.029 664.039 819.16 672.786 813.284 666.044Z"/><path d="M0.676323-0.736605 191.006 174.017 189.653 175.49-0.676323 0.736605ZM192.053 170.905 195.24 179.262 186.642 176.798Z" transform="matrix(1 0 0 -1 891 673.262)"/><path d="M0.915947-0.4013 194.589 441.647 192.757 442.45-0.915947 0.4013ZM196.802 439.223 196.348 448.155 189.474 442.433Z" transform="matrix(1 0 0 -1 891 673.155)"/><path d="M0.417216-0.908807 189.599 85.9409 188.764 87.7585-0.417216 0.908807ZM189.639 82.6581 195.24 89.6311 186.301 89.9286Z" transform="matrix(1 0 0 -1 891 583.631)"/><path d="M0.877082-0.48034 194.025 352.199 192.27 353.16-0.877082 0.48034ZM196.014 349.586 196.348 358.524 188.997 353.429Z" transform="matrix(1 0 0 -1 891 583.524)"/><path d="M0.806021-0.591887 194.318 262.929 192.706 264.113-0.806021 0.591887ZM195.946 260.077 197.457 268.893 189.498 264.813Z" transform="matrix(1 0 0 -1 890 493.893)"/><path d="M890 493 1079.68 493 1079.68 495 890 495ZM1078.35 490 1086.35 494 1078.35 498Z"/><path d="M891.417 403.091 1080.6 489.941 1079.76 491.759 890.583 404.909ZM1080.64 486.658 1086.24 493.631 1077.3 493.929Z"/><path d="M0.415268-0.909699 190.699 85.953 189.869 87.7724-0.415268 0.909699ZM190.732 82.6701 196.348 89.6311 187.41 89.9477Z" transform="matrix(1 0 0 -1 891 314.631)"/><path d="M0.674244-0.738509 192.1 174.029 190.751 175.506-0.674244 0.738509ZM193.137 170.914 196.348 179.262 187.743 176.822Z" transform="matrix(1 0 0 -1 891 404.262)"/><path d="M891.676 313.263 1082.01 488.017 1080.65 489.49 890.324 314.737ZM1083.05 484.905 1086.24 493.262 1077.64 490.798Z"/><path d="M891 224 1080.68 224 1080.68 226 891 226ZM1079.35 221 1087.35 225 1079.35 229Z"/><path d="M891.809 224.412 1083.13 487.912 1081.51 489.087 890.191 225.588ZM1084.78 485.07 1086.24 493.893 1078.3 489.77Z"/><path d="M891.878 134.522 1083.93 487.192 1082.17 488.148 890.122 135.478ZM1085.93 484.586 1086.24 493.524 1078.9 488.411Z"/><path d="M891.415 134.09 1081.7 220.953 1080.87 222.772 890.585 135.91ZM1081.73 217.67 1087.35 224.631 1078.41 224.948Z"/><path d="M890.672 45.2596 1083.19 220.041 1081.85 221.522 889.328 46.7404ZM1084.22 216.923 1087.46 225.262 1078.84 222.846Z"/><path d="M890.916 45.5987 1084.59 487.647 1082.76 488.45 889.084 46.4013ZM1086.8 485.223 1086.35 494.155 1079.47 488.433Z"/><text font-family="Calibri,Calibri_MSFontService,sans-serif" font-weight="400" font-size="24" transform="matrix(6.12323e-17 1 -1 6.12323e-17 1115.61 343)">……</text></g></svg>