<svg width="1280" height="720" xmlns="http://www.w3.org/2000/svg" xmlns:xlink="http://www.w3.org/1999/xlink" overflow="hidden"><defs><clipPath id="clip0"><path d="M0 0 1280 0 1280 720 0 720Z" fill-rule="evenodd" clip-rule="evenodd"/></clipPath></defs><g clip-path="url(#clip0)"><rect x="0" y="0" width="1280" height="720" fill="#FFFFFF"/><path d="M37 225C37 205.118 52.8939 189 72.5 189 92.1061 189 108 205.118 108 225 108 244.882 92.1061 261 72.5 261 52.8939 261 37 244.882 37 225Z" stroke="#FFFFFF" stroke-width="2" stroke-miterlimit="8" fill="#A5A5A5" fill-rule="evenodd"/><path d="M37 314.5C37 294.894 52.8939 279 72.5 279 92.1061 279 108 294.894 108 314.5 108 334.106 92.1061 350 72.5 350 52.8939 350 37 334.106 37 314.5Z" stroke="#FFFFFF" stroke-width="2" stroke-miterlimit="8" fill="#A5A5A5" fill-rule="evenodd"/><path d="M37 404C37 384.118 52.8939 368 72.5 368 92.1061 368 108 384.118 108 404 108 423.882 92.1061 440 72.5 440 52.8939 440 37 423.882 37 404Z" stroke="#FFFFFF" stroke-width="2" stroke-miterlimit="8" fill="#A5A5A5" fill-rule="evenodd"/><path d="M36 493.5C36 473.894 51.8939 458 71.5 458 91.1061 458 107 473.894 107 493.5 107 513.106 91.1061 529 71.5 529 51.8939 529 36 513.106 36 493.5Z" stroke="#FFFFFF" stroke-width="2" stroke-miterlimit="8" fill="#A5A5A5" fill-rule="evenodd"/><path d="M318 225C318 205.118 334.118 189 354 189 373.882 189 390 205.118 390 225 390 244.882 373.882 261 354 261 334.118 261 318 244.882 318 225Z" stroke="#FFFFFF" stroke-width="2" stroke-miterlimit="8" fill="#A5A5A5" fill-rule="evenodd"/><path d="M318 314.5C318 294.894 334.118 279 354 279 373.882 279 390 294.894 390 314.5 390 334.106 373.882 350 354 350 334.118 350 318 334.106 318 314.5Z" stroke="#FFFFFF" stroke-width="2" stroke-miterlimit="8" fill="#A5A5A5" fill-rule="evenodd"/><path d="M318 404C318 384.118 334.118 368 354 368 373.882 368 390 384.118 390 404 390 423.882 373.882 440 354 440 334.118 440 318 423.882 318 404Z" stroke="#FFFFFF" stroke-width="2" stroke-miterlimit="8" fill="#A5A5A5" fill-rule="evenodd"/><path d="M317 493.5C317 473.894 333.118 458 353 458 372.882 458 389 473.894 389 493.5 389 513.106 372.882 529 353 529 333.118 529 317 513.106 317 493.5Z" stroke="#FFFFFF" stroke-width="2" stroke-miterlimit="8" fill="#A5A5A5" fill-rule="evenodd"/><path d="M318 135C318 115.118 334.118 99 354 99 373.882 99 390 115.118 390 135 390 154.882 373.882 171 354 171 334.118 171 318 154.882 318 135Z" stroke="#FFFFFF" stroke-width="2" stroke-miterlimit="8" fill="#A5A5A5" fill-rule="evenodd"/><path d="M318 583.5C318 563.894 334.118 548 354 548 373.882 548 390 563.894 390 583.5 390 603.106 373.882 619 354 619 334.118 619 318 603.106 318 583.5Z" stroke="#FFFFFF" stroke-width="2" stroke-miterlimit="8" fill="#A5A5A5" fill-rule="evenodd"/><path d="M549 225C549 205.118 565.118 189 585 189 604.882 189 621 205.118 621 225 621 244.882 604.882 261 585 261 565.118 261 549 244.882 549 225Z" stroke="#FFFFFF" stroke-width="2" stroke-miterlimit="8" fill="#A5A5A5" fill-rule="evenodd"/><path d="M549 314.5C549 294.894 565.118 279 585 279 604.882 279 621 294.894 621 314.5 621 334.106 604.882 350 585 350 565.118 350 549 334.106 549 314.5Z" stroke="#FFFFFF" stroke-width="2" stroke-miterlimit="8" fill="#A5A5A5" fill-rule="evenodd"/><path d="M549 404C549 384.118 565.118 368 585 368 604.882 368 621 384.118 621 404 621 423.882 604.882 440 585 440 565.118 440 549 423.882 549 404Z" stroke="#FFFFFF" stroke-width="2" stroke-miterlimit="8" fill="#A5A5A5" fill-rule="evenodd"/><path d="M548 493.5C548 473.894 564.118 458 584 458 603.882 458 620 473.894 620 493.5 620 513.106 603.882 529 584 529 564.118 529 548 513.106 548 493.5Z" stroke="#FFFFFF" stroke-width="2" stroke-miterlimit="8" fill="#A5A5A5" fill-rule="evenodd"/><path d="M549 135C549 115.118 565.118 99 585 99 604.882 99 621 115.118 621 135 621 154.882 604.882 171 585 171 565.118 171 549 154.882 549 135Z" stroke="#FFFFFF" stroke-width="2" stroke-miterlimit="8" fill="#A5A5A5" fill-rule="evenodd"/><path d="M549 583.5C549 563.894 565.118 548 585 548 604.882 548 621 563.894 621 583.5 621 603.106 604.882 619 585 619 565.118 619 549 603.106 549 583.5Z" stroke="#FFFFFF" stroke-width="2" stroke-miterlimit="8" fill="#A5A5A5" fill-rule="evenodd"/><path d="M760 225C760 205.118 775.894 189 795.5 189 815.106 189 831 205.118 831 225 831 244.882 815.106 261 795.5 261 775.894 261 760 244.882 760 225Z" stroke="#FFFFFF" stroke-width="2" stroke-miterlimit="8" fill="#A5A5A5" fill-rule="evenodd"/><path d="M760 314.5C760 294.894 775.894 279 795.5 279 815.106 279 831 294.894 831 314.5 831 334.106 815.106 350 795.5 350 775.894 350 760 334.106 760 314.5Z" stroke="#FFFFFF" stroke-width="2" stroke-miterlimit="8" fill="#A5A5A5" fill-rule="evenodd"/><path d="M760 404C760 384.118 775.894 368 795.5 368 815.106 368 831 384.118 831 404 831 423.882 815.106 440 795.5 440 775.894 440 760 423.882 760 404Z" stroke="#FFFFFF" stroke-width="2" stroke-miterlimit="8" fill="#A5A5A5" fill-rule="evenodd"/><path d="M759 493.5C759 473.894 774.894 458 794.5 458 814.106 458 830 473.894 830 493.5 830 513.106 814.106 529 794.5 529 774.894 529 759 513.106 759 493.5Z" stroke="#FFFFFF" stroke-width="2" stroke-miterlimit="8" fill="#A5A5A5" fill-rule="evenodd"/><path d="M760 135C760 115.118 775.894 99 795.5 99 815.106 99 831 115.118 831 135 831 154.882 815.106 171 795.5 171 775.894 171 760 154.882 760 135Z" stroke="#FFFFFF" stroke-width="2" stroke-miterlimit="8" fill="#A5A5A5" fill-rule="evenodd"/><path d="M760 583.5C760 563.894 775.894 548 795.5 548 815.106 548 831 563.894 831 583.5 831 603.106 815.106 619 795.5 619 775.894 619 760 603.106 760 583.5Z" stroke="#FFFFFF" stroke-width="2" stroke-miterlimit="8" fill="#A5A5A5" fill-rule="evenodd"/><path d="M1028 225C1028 205.118 1043.89 189 1063.5 189 1083.11 189 1099 205.118 1099 225 1099 244.882 1083.11 261 1063.5 261 1043.89 261 1028 244.882 1028 225Z" stroke="#FFFFFF" stroke-width="2" stroke-miterlimit="8" fill="#A5A5A5" fill-rule="evenodd"/><path d="M1027 493.5C1027 473.894 1042.89 458 1062.5 458 1082.11 458 1098 473.894 1098 493.5 1098 513.106 1082.11 529 1062.5 529 1042.89 529 1027 513.106 1027 493.5Z" stroke="#FFFFFF" stroke-width="2" stroke-miterlimit="8" fill="#A5A5A5" fill-rule="evenodd"/><path d="M760 673C760 653.118 775.894 637 795.5 637 815.106 637 831 653.118 831 673 831 692.882 815.106 709 795.5 709 775.894 709 760 692.882 760 673Z" stroke="#FFFFFF" stroke-width="2" stroke-miterlimit="8" fill="#A5A5A5" fill-rule="evenodd"/><path d="M759 45.5C759 25.8939 774.894 10 794.5 10 814.106 10 830 25.8939 830 45.5 830 65.1061 814.106 81 794.5 81 774.894 81 759 65.1061 759 45.5Z" stroke="#FFFFFF" stroke-width="2" stroke-miterlimit="8" fill="#A5A5A5" fill-rule="evenodd"/><path d="M0.392242-0.919862 204.457 86.0964 203.673 87.9361-0.392242 0.919862ZM204.407 82.8137 210.197 89.6311 201.269 90.1726Z" transform="matrix(1 0 0 -1 108 224.631)"/><path d="M108 224 311.53 224 311.53 226 108 226ZM310.197 221 318.197 225 310.197 229Z"/><path d="M108.392 224.08 312.457 311.096 311.673 312.936 107.608 225.92ZM312.407 307.814 318.197 314.631 309.269 315.173Z"/><path d="M108.649 224.239 313.773 399.175 312.475 400.697 107.351 225.761ZM314.706 396.027 318.197 404.262 309.515 402.114Z"/><path d="M108.789 224.386 313.786 488.017 312.208 489.245 107.211 225.614ZM315.336 485.122 317.089 493.893 309.02 490.033Z"/><path d="M108.863 224.494 315.689 577.269 313.964 578.281 107.137 225.506ZM317.602 574.6 318.197 583.524 310.7 578.646Z"/><path d="M108.788 313.384 314.88 577.026 313.304 578.257 107.212 314.616ZM316.422 574.127 318.197 582.893 310.119 579.054Z"/><path d="M108.651 313.241 312.678 488.164 311.377 489.682 107.349 314.759ZM313.619 485.018 317.089 493.262 308.412 491.092Z"/><path d="M108.392 313.08 312.457 400.096 311.673 401.936 107.608 314.92ZM312.407 396.814 318.197 403.631 309.269 404.173Z"/><path d="M108 313 311.53 313 311.53 315 108 315ZM310.197 310 318.197 314 310.197 318Z"/><path d="M0.392242-0.919862 204.457 86.0964 203.673 87.9361-0.392242 0.919862ZM204.407 82.8137 210.197 89.6311 201.269 90.1726Z" transform="matrix(1 0 0 -1 108 314.631)"/><path d="M0.648897-0.760876 205.773 174.175 204.475 175.697-0.648897 0.760876ZM206.706 171.027 210.197 179.262 201.515 177.114Z" transform="matrix(1 0 0 -1 108 314.262)"/><path d="M0.787848-0.61587 206.88 263.026 205.304 264.257-0.787848 0.61587ZM208.422 260.127 210.197 268.893 202.119 265.054Z" transform="matrix(1 0 0 -1 108 403.893)"/><path d="M0.648897-0.760876 205.773 174.175 204.475 175.697-0.648897 0.760876ZM206.706 171.027 210.197 179.262 201.515 177.114Z" transform="matrix(1 0 0 -1 108 404.262)"/><path d="M0.392242-0.919862 204.457 86.0964 203.673 87.9361-0.392242 0.919862ZM204.407 82.8137 210.197 89.6311 201.269 90.1726Z" transform="matrix(1 0 0 -1 108 403.631)"/><path d="M108 403 311.53 403 311.53 405 108 405ZM310.197 400 318.197 404 310.197 408Z"/><path d="M108.394 403.081 311.356 490.086 310.568 491.924 107.606 404.919ZM311.312 486.803 317.089 493.631 308.16 494.156Z"/><path d="M108.649 403.239 313.773 578.175 312.475 579.697 107.351 404.761ZM314.706 575.027 318.197 583.262 309.515 581.115Z"/><path d="M107.391 493.079 312.558 580.107 311.777 581.948 106.609 494.921ZM312.503 576.825 318.306 583.631 309.379 584.189Z"/><path d="M107 493 310.53 493 310.53 495 107 495ZM309.197 490 317.197 494 309.197 498Z"/><path d="M0.390499-0.920603 205.558 86.107 204.777 87.9482-0.390499 0.920603ZM205.503 82.8247 211.306 89.6311 202.379 90.1895Z" transform="matrix(1 0 0 -1 107 493.631)"/><path d="M0.64692-0.762558 206.869 174.187 205.575 175.712-0.64692 0.762558ZM207.793 171.037 211.306 179.262 202.617 177.137Z" transform="matrix(1 0 0 -1 107 493.262)"/><path d="M0.786272-0.61788 207.973 263.034 206.4 264.269-0.786272 0.61788ZM209.508 260.132 211.306 268.893 203.217 265.075Z" transform="matrix(1 0 0 -1 107 493.893)"/><path d="M0.861505-0.50775 208.782 352.274 207.059 353.289-0.861505 0.50775ZM210.69 349.601 211.306 358.524 203.797 353.663Z" transform="matrix(1 0 0 -1 107 493.524)"/><path d="M390 134 542.867 134 542.867 136 390 136ZM541.534 131 549.534 135 541.534 139Z"/><path d="M390.49 134.128 544.211 220.494 543.232 222.237 389.51 135.872ZM544.519 217.225 549.534 224.631 540.6 224.2Z"/><path d="M390.747 134.335 545.849 308.618 544.355 309.947 389.253 135.665ZM547.203 305.627 549.534 314.262 541.227 310.945Z"/><path d="M390.86 134.49 546.992 397.649 545.272 398.67 389.14 135.51ZM548.892 394.972 549.534 403.893 542.012 399.054Z"/><path d="M390.915 134.596 546.646 487.024 544.817 487.832 389.085 135.404ZM548.851 484.59 548.426 493.524 541.533 487.824Z"/><path d="M390.942 134.665 548.24 576.538 546.355 577.209 389.058 135.335ZM550.619 574.277 549.534 583.155 543.083 576.96Z"/><path d="M0.489818-0.871825 154.211 85.4938 153.232 87.2374-0.489818 0.871825ZM154.519 82.2252 159.534 89.6311 150.6 89.1998Z" transform="matrix(1 0 0 -1 390 224.631)"/><path d="M390 224 542.867 224 542.867 226 390 226ZM541.534 221 549.534 225 541.534 229Z"/><path d="M390.49 224.128 544.211 310.494 543.232 312.237 389.51 225.872ZM544.519 307.225 549.534 314.631 540.6 314.2Z"/><path d="M390.747 224.335 545.849 398.618 544.355 399.947 389.253 225.665ZM547.203 395.627 549.534 404.262 541.227 400.945Z"/><path d="M390.862 224.492 545.903 487.642 544.18 488.658 389.138 225.508ZM547.811 484.97 548.426 493.893 540.918 489.031Z"/><path d="M390.914 224.593 547.738 577.029 545.911 577.842 389.086 225.407ZM549.936 574.589 549.534 583.524 542.627 577.841Z"/><path d="M390 313 542.867 313 542.867 315 390 315ZM541.534 310 549.534 314 541.534 318Z"/><path d="M0.747017-0.664805 155.849 173.618 154.355 174.947-0.747017 0.664805ZM157.203 170.627 159.534 179.262 151.227 175.945Z" transform="matrix(1 0 0 -1 390 314.262)"/><path d="M0.489818-0.871825 154.211 85.4938 153.232 87.2374-0.489818 0.871825ZM154.519 82.2252 159.534 89.6311 150.6 89.1998Z" transform="matrix(1 0 0 -1 390 314.631)"/><path d="M390.49 313.128 544.211 399.494 543.232 401.237 389.51 314.872ZM544.519 396.225 549.534 403.631 540.6 403.2Z"/><path d="M390.49 313.128 544.211 399.494 543.232 401.237 389.51 314.872ZM544.519 396.225 549.534 403.631 540.6 403.2Z"/><path d="M390.749 313.338 544.76 487.604 543.261 488.929 389.251 314.662ZM546.125 484.619 548.426 493.262 540.131 489.917Z"/><path d="M390.86 313.49 546.992 576.649 545.272 577.67 389.14 314.51ZM548.892 573.972 549.534 582.893 542.012 578.054Z"/><path d="M390.747 403.335 545.849 577.618 544.355 578.947 389.253 404.665ZM547.203 574.627 549.534 583.262 541.227 579.945Z"/><path d="M390.492 403.13 543.116 489.478 542.131 491.219 389.508 404.87ZM543.432 486.21 548.426 493.631 539.493 493.173Z"/><path d="M390 403 542.867 403 542.867 405 390 405ZM541.534 400 549.534 404 541.534 408Z"/><path d="M0.489818-0.871825 154.211 85.4938 153.232 87.2374-0.489818 0.871825ZM154.519 82.2252 159.534 89.6311 150.6 89.1998Z" transform="matrix(1 0 0 -1 390 403.631)"/><path d="M0.747017-0.664805 155.849 173.618 154.355 174.947-0.747017 0.664805ZM157.203 170.627 159.534 179.262 151.227 175.945Z" transform="matrix(1 0 0 -1 390 404.262)"/><path d="M0.860025-0.510251 156.992 262.649 155.272 263.67-0.860025 0.510251ZM158.892 259.972 159.534 268.893 152.012 264.054Z" transform="matrix(1 0 0 -1 390 403.893)"/><path d="M389.487 493.127 544.308 579.51 543.333 581.256 388.513 494.873ZM544.605 576.24 549.642 583.631 540.707 583.226Z"/><path d="M389 493 541.867 493 541.867 495 389 495ZM540.534 490 548.534 494 540.534 498Z"/><path d="M0.487243-0.873266 155.308 85.5096 154.333 87.2561-0.487243 0.873266ZM155.605 82.2401 160.642 89.6311 151.707 89.2262Z" transform="matrix(1 0 0 -1 389 493.631)"/><path d="M0.744726-0.667371 156.938 173.63 155.449 174.965-0.744726 0.667371ZM158.282 170.635 160.642 179.262 152.324 175.974Z" transform="matrix(1 0 0 -1 389 493.262)"/><path d="M0.858468-0.512866 158.082 262.659 156.365 263.684-0.858468 0.512866ZM159.973 259.974 160.642 268.893 153.105 264.077Z" transform="matrix(1 0 0 -1 389 493.893)"/><path d="M0.912581-0.408896 158.829 352.032 157.004 352.85-0.912581 0.408896ZM161.021 349.588 160.642 358.524 153.721 352.859Z" transform="matrix(1 0 0 -1 389 493.524)"/><path d="M390 582 542.867 582 542.867 584 390 584ZM541.534 579 549.534 583 541.534 587Z"/><path d="M0.492416-0.87036 153.116 85.478 152.131 87.2187-0.492416 0.87036ZM153.432 82.2103 158.426 89.6311 149.493 89.1732Z" transform="matrix(1 0 0 -1 390 583.631)"/><path d="M0.747017-0.664805 155.849 173.618 154.355 174.947-0.747017 0.664805ZM157.203 170.627 159.534 179.262 151.227 175.945Z" transform="matrix(1 0 0 -1 390 583.262)"/><path d="M0.860025-0.510251 156.992 262.649 155.272 263.67-0.860025 0.510251ZM158.892 259.972 159.534 268.893 152.012 264.054Z" transform="matrix(1 0 0 -1 390 582.893)"/><path d="M0.913632-0.406542 157.738 352.029 155.911 352.842-0.913632 0.406542ZM159.936 349.589 159.534 358.524 152.627 352.841Z" transform="matrix(1 0 0 -1 390 583.524)"/><path d="M0.942089-0.335364 158.24 441.538 156.355 442.209-0.942089 0.335364ZM160.619 439.277 159.534 448.155 153.083 441.96Z" transform="matrix(1 0 0 -1 390 583.155)"/><path d="M621.542 582.159 755.097 668.18 754.014 669.862 620.458 583.841ZM755.6 664.936 760.16 672.631 751.269 671.662Z"/><path d="M621 582 753.494 582 753.494 584 621 584ZM752.16 579 760.16 583 752.16 587Z"/><path d="M0.54455-0.838728 133.005 85.1621 131.916 86.8395-0.54455 0.838728ZM133.52 81.9198 138.052 89.6311 129.164 88.6296Z" transform="matrix(1 0 0 -1 621 583.631)"/><path d="M0.78992-0.61321 135.862 173.383 134.283 174.61-0.78992 0.61321ZM137.414 170.49 139.16 179.262 131.095 175.396Z" transform="matrix(1 0 0 -1 621 583.262)"/><path d="M0.888113-0.459625 136.984 262.513 135.208 263.432-0.888113 0.459625ZM139.036 259.95 139.16 268.893 131.931 263.627Z" transform="matrix(1 0 0 -1 621 582.893)"/><path d="M0.932238-0.361846 137.68 351.948 135.816 352.671-0.932238 0.361846ZM139.994 349.619 139.16 358.524 132.536 352.514Z" transform="matrix(1 0 0 -1 621 583.524)"/><path d="M0.955017-0.29655 138.138 441.493 136.228 442.086-0.955017 0.29655ZM140.608 439.329 139.16 448.155 132.968 441.701Z" transform="matrix(1 0 0 -1 621 583.155)"/><path d="M0.968595-0.248642 137.362 531.078 135.425 531.575-0.968595 0.248642ZM139.937 529.043 138.052 537.786 132.188 531.032Z" transform="matrix(1 0 0 -1 621 583.786)"/><path d="M620.788 493.384 756.947 667.395 755.372 668.628 619.212 494.616ZM758.489 664.497 760.269 673.262 752.188 669.427Z"/><path d="M620.538 493.157 755.189 579.199 754.112 580.884 619.462 494.843ZM755.681 575.953 760.269 583.631 751.374 582.694Z"/><path d="M620 493 752.494 493 752.494 495 620 495ZM751.16 490 759.16 494 751.16 498Z"/><path d="M0.538453-0.842655 135.189 85.1987 134.112 86.884-0.538453 0.842655ZM135.681 81.9528 140.269 89.6311 131.374 88.6941Z" transform="matrix(1 0 0 -1 620 493.631)"/><path d="M0.787555-0.616244 136.947 173.395 135.372 174.628-0.787555 0.616244ZM138.489 170.497 140.269 179.262 132.188 175.427Z" transform="matrix(1 0 0 -1 620 493.262)"/><path d="M0.886617-0.462505 138.072 262.52 136.298 263.445-0.886617 0.462505ZM140.115 259.95 140.269 268.893 133.022 263.65Z" transform="matrix(1 0 0 -1 620 493.893)"/><path d="M0.931264-0.364346 138.771 351.951 136.908 352.68-0.931264 0.364346ZM141.079 349.617 140.269 358.524 133.629 352.532Z" transform="matrix(1 0 0 -1 620 493.524)"/><path d="M0.955017-0.29655 138.138 441.493 136.228 442.086-0.955017 0.29655ZM140.608 439.329 139.16 448.155 132.968 441.701Z" transform="matrix(1 0 0 -1 620 494.155)"/><path d="M621.888 403.54 757.984 666.513 756.208 667.432 620.112 404.46ZM760.036 663.95 760.16 672.893 752.931 667.627Z"/><path d="M621.79 403.387 756.862 577.383 755.283 578.61 620.21 404.613ZM758.414 574.49 760.16 583.262 752.095 579.396Z"/><path d="M621.545 403.161 754.005 489.162 752.916 490.84 620.455 404.839ZM754.52 485.92 759.052 493.631 750.164 492.63Z"/><path d="M621 403 753.494 403 753.494 405 621 405ZM752.16 400 760.16 404 752.16 408Z"/><path d="M0.541488-0.840708 134.097 85.1804 133.014 86.8618-0.541488 0.840708ZM134.6 81.9363 139.16 89.6311 130.269 88.662Z" transform="matrix(1 0 0 -1 621 403.631)"/><path d="M0.78992-0.61321 135.862 173.383 134.283 174.61-0.78992 0.61321ZM137.414 170.49 139.16 179.262 131.095 175.396Z" transform="matrix(1 0 0 -1 621 404.262)"/><path d="M0.888113-0.459625 136.984 262.513 135.208 263.432-0.888113 0.459625ZM139.036 259.95 139.16 268.893 131.931 263.627Z" transform="matrix(1 0 0 -1 621 403.893)"/><path d="M0.933208-0.359337 136.589 351.943 134.723 352.662-0.933208 0.359337ZM138.91 349.621 138.052 358.524 131.444 352.496Z" transform="matrix(1 0 0 -1 621 404.524)"/><path d="M0.889605-0.45673 135.896 262.505 134.117 263.419-0.889605 0.45673ZM137.956 259.949 138.052 268.893 130.84 263.603Z" transform="matrix(1 0 0 -1 621 314.893)"/><path d="M0.78992-0.61321 135.862 173.383 134.283 174.61-0.78992 0.61321ZM137.414 170.49 139.16 179.262 131.095 175.396Z" transform="matrix(1 0 0 -1 621 314.262)"/><path d="M0.541488-0.840708 134.097 85.1804 133.014 86.8618-0.541488 0.840708ZM134.6 81.9363 139.16 89.6311 130.269 88.662Z" transform="matrix(1 0 0 -1 621 314.631)"/><path d="M621 313 753.494 313 753.494 315 621 315ZM752.16 310 760.16 314 752.16 318Z"/><path d="M621.542 313.159 755.097 399.18 754.014 400.862 620.458 314.841ZM755.6 395.936 760.16 403.631 751.269 402.662Z"/><path d="M621.792 313.39 755.776 487.37 754.192 488.59 620.208 314.61ZM757.34 484.483 759.052 493.262 751.002 489.364Z"/><path d="M621.888 313.54 757.984 576.513 756.208 577.432 620.112 314.46ZM760.036 573.95 760.16 582.893 752.931 577.627Z"/><path d="M621.932 313.638 758.68 665.948 756.816 666.671 620.068 314.362ZM760.994 663.619 760.16 672.524 753.536 666.514Z"/><path d="M0.792287-0.610149 134.776 173.37 133.192 174.59-0.792287 0.610149ZM136.34 170.483 138.052 179.262 130.002 175.364Z" transform="matrix(1 0 0 -1 621 225.262)"/><path d="M0.541488-0.840708 134.097 85.1804 133.014 86.8618-0.541488 0.840708ZM134.6 81.9363 139.16 89.6311 130.269 88.662Z" transform="matrix(1 0 0 -1 621 224.631)"/><path d="M621 224 753.494 224 753.494 226 621 226ZM752.16 221 760.16 225 752.16 229Z"/><path d="M621.542 224.159 755.097 310.18 754.014 311.862 620.458 225.841ZM755.6 306.936 760.16 314.631 751.269 313.662Z"/><path d="M621.79 224.387 756.862 398.383 755.283 399.61 620.21 225.613ZM758.414 395.49 760.16 404.262 752.095 400.396Z"/><path d="M621.89 224.543 756.896 487.505 755.117 488.419 620.11 225.457ZM758.956 484.949 759.052 493.893 751.84 488.603Z"/><path d="M621.89 224.543 756.896 487.505 755.117 488.419 620.11 225.457ZM758.956 484.949 759.052 493.893 751.84 488.603Z"/><path d="M621.932 224.638 758.68 576.948 756.816 577.671 620.068 225.362ZM760.994 574.619 760.16 583.524 753.536 577.514Z"/><path d="M621.955 224.703 759.138 666.493 757.228 667.086 620.045 225.297ZM761.608 664.329 760.16 673.155 753.968 666.701Z"/><path d="M0.54455-0.838728 133.005 85.1621 131.916 86.8395-0.54455 0.838728ZM133.52 81.9198 138.052 89.6311 129.164 88.6296Z" transform="matrix(1 0 0 -1 621 135.631)"/><path d="M621 134 753.494 134 753.494 136 621 136ZM752.16 131 760.16 135 752.16 139Z"/><path d="M621.542 134.159 755.097 220.18 754.014 221.862 620.458 135.841ZM755.6 216.936 760.16 224.631 751.269 223.662Z"/><path d="M621.79 134.387 756.862 308.383 755.283 309.61 620.21 135.613ZM758.414 305.49 760.16 314.262 752.095 310.396Z"/><path d="M621.888 134.54 757.984 397.513 756.208 398.432 620.112 135.46ZM760.036 394.95 760.16 403.893 752.931 398.627Z"/><path d="M621.933 134.641 757.589 486.943 755.723 487.662 620.067 135.359ZM759.91 484.621 759.052 493.524 752.444 487.496Z"/><path d="M621.955 134.703 759.138 576.493 757.228 577.086 620.045 135.297ZM761.608 574.329 760.16 583.155 753.968 576.701Z"/><path d="M621.968 134.749 759.458 666.081 757.522 666.583 620.032 135.251ZM762.029 664.039 760.16 672.786 754.284 666.044Z"/><path d="M0.676323-0.736605 191.006 174.017 189.653 175.49-0.676323 0.736605ZM192.053 170.905 195.24 179.262 186.642 176.798Z" transform="matrix(1 0 0 -1 831 673.262)"/><path d="M0.915947-0.4013 194.589 441.647 192.757 442.45-0.915947 0.4013ZM196.802 439.223 196.348 448.155 189.474 442.433Z" transform="matrix(1 0 0 -1 831 673.155)"/><path d="M0.417216-0.908807 189.599 85.9409 188.764 87.7585-0.417216 0.908807ZM189.639 82.6581 195.24 89.6311 186.301 89.9286Z" transform="matrix(1 0 0 -1 831 583.631)"/><path d="M0.877082-0.48034 194.025 352.199 192.27 353.16-0.877082 0.48034ZM196.014 349.586 196.348 358.524 188.997 353.429Z" transform="matrix(1 0 0 -1 831 583.524)"/><path d="M0.806021-0.591887 194.318 262.929 192.706 264.113-0.806021 0.591887ZM195.946 260.077 197.457 268.893 189.498 264.813Z" transform="matrix(1 0 0 -1 830 493.893)"/><path d="M830 493 1019.68 493 1019.68 495 830 495ZM1018.35 490 1026.35 494 1018.35 498Z"/><path d="M831.417 403.091 1020.6 489.941 1019.76 491.759 830.583 404.909ZM1020.64 486.658 1026.24 493.631 1017.3 493.929Z"/><path d="M0.415268-0.909699 190.699 85.953 189.869 87.7724-0.415268 0.909699ZM190.732 82.6701 196.348 89.6311 187.41 89.9477Z" transform="matrix(1 0 0 -1 831 314.631)"/><path d="M0.674244-0.738509 192.1 174.029 190.751 175.506-0.674244 0.738509ZM193.137 170.914 196.348 179.262 187.743 176.822Z" transform="matrix(1 0 0 -1 831 404.262)"/><path d="M831.676 313.263 1022.01 488.017 1020.65 489.49 830.324 314.737ZM1023.05 484.905 1026.24 493.262 1017.64 490.798Z"/><path d="M831 224 1020.68 224 1020.68 226 831 226ZM1019.35 221 1027.35 225 1019.35 229Z"/><path d="M831.809 224.412 1023.13 487.912 1021.51 489.087 830.191 225.588ZM1024.78 485.07 1026.24 493.893 1018.3 489.77Z"/><path d="M831.878 134.522 1023.93 487.192 1022.17 488.148 830.122 135.478ZM1025.93 484.586 1026.24 493.524 1018.9 488.411Z"/><path d="M831.415 134.09 1021.7 220.953 1020.87 222.772 830.585 135.91ZM1021.73 217.67 1027.35 224.631 1018.41 224.948Z"/><path d="M830.672 45.2596 1023.19 220.041 1021.85 221.522 829.328 46.7404ZM1024.22 216.923 1027.46 225.262 1018.84 222.846Z"/><path d="M830.916 45.5987 1024.59 487.647 1022.76 488.45 829.084 46.4013ZM1026.8 485.223 1026.35 494.155 1019.47 488.433Z"/><path d="M1027 310C1027 290.118 1042.89 274 1062.5 274 1082.11 274 1098 290.118 1098 310 1098 329.882 1082.11 346 1062.5 346 1042.89 346 1027 329.882 1027 310Z" stroke="#FFFFFF" stroke-width="2" stroke-miterlimit="8" fill="#A5A5A5" fill-rule="evenodd"/><path d="M1025 399.5C1025 379.894 1041.12 364 1061 364 1080.88 364 1097 379.894 1097 399.5 1097 419.106 1080.88 435 1061 435 1041.12 435 1025 419.106 1025 399.5Z" stroke="#FFFFFF" stroke-width="2" stroke-miterlimit="8" fill="#A5A5A5" fill-rule="evenodd"/><path d="M0.815356-0.57896 191.087 267.383 189.456 268.541-0.815356 0.57896ZM192.762 264.559 194.132 273.398 186.239 269.191Z" transform="matrix(1 0 0 -1 831 673.398)"/><path d="M0.880711-0.473654 192.964 356.686 191.203 357.633-0.880711 0.473654ZM194.974 354.089 195.24 363.029 187.928 357.878Z" transform="matrix(1 0 0 -1 831 673.029)"/><path d="M0.687454-0.726228 189.978 178.458 188.603 179.91-0.687454 0.726228ZM191.072 175.362 194.132 183.767 185.572 181.172Z" transform="matrix(1 0 0 -1 831 583.767)"/><path d="M0.813796-0.581151 192.179 267.391 190.552 268.554-0.813796 0.581151ZM193.846 264.563 195.24 273.398 187.336 269.212Z" transform="matrix(1 0 0 -1 831 583.398)"/><path d="M0.434308-0.900764 189.669 90.3398 188.801 92.1413-0.434308 0.900764ZM189.771 87.0584 195.24 94.136 186.297 94.2645Z" transform="matrix(1 0 0 -1 830 494.136)"/><path d="M0.683328-0.730111 192.165 178.482 190.798 179.942-0.683328 0.730111ZM193.241 175.38 196.348 183.767 187.774 181.221Z" transform="matrix(1 0 0 -1 830 493.767)"/><path d="M0.023199-0.999731 187.49 3.3505 187.444 5.34996-0.023199 0.999731ZM186.227 0.320366 194.132 4.50488 186.041 8.31821Z" transform="matrix(1 0 0 -1 831 404.505)"/><path d="M0.434308-0.900764 189.669 90.3398 188.801 92.1413-0.434308 0.900764ZM189.771 87.0584 195.24 94.136 186.297 94.2645Z" transform="matrix(1 0 0 -1 831 404.136)"/><path d="M831.402 313.084 1019.43 395.533 1018.62 397.365 830.598 314.916ZM1019.41 392.25 1025.13 399.126 1016.2 399.577Z"/><path d="M0.0230674-0.999734 188.599 3.35137 188.552 5.35084-0.0230674 0.999734ZM187.334 0.321407 195.24 4.50488 187.15 8.31928Z" transform="matrix(1 0 0 -1 831 314.505)"/><path d="M831.669 224.257 1020.85 394.553 1019.51 396.04 830.331 225.743ZM1021.86 391.432 1025.13 399.757 1016.51 397.378Z"/><path d="M831.4 224.083 1020.53 306.545 1019.73 308.379 830.6 225.917ZM1020.51 303.262 1026.24 310.126 1017.31 310.595Z"/><path d="M831.667 134.255 1021.94 304.566 1020.61 306.056 830.333 135.745ZM1022.95 301.441 1026.24 309.757 1017.61 307.402Z"/><path d="M831.806 134.408 1021.99 393.424 1020.38 394.607 830.194 135.592ZM1023.62 390.573 1025.13 399.388 1017.17 395.307Z"/><path d="M830.803 45.4038 1023.18 304.442 1021.57 305.635 829.197 46.5962ZM1024.79 301.581 1026.35 310.388 1018.37 306.351Z"/><path d="M830.876 45.5171 1022.9 393.7 1021.15 394.666 829.124 46.4829ZM1024.88 391.082 1025.24 400.019 1017.87 394.946Z"/><path d="M1098 493 1140.57 493 1140.57 495 1098 495ZM1139.23 490 1147.23 494 1139.23 498Z"/><path d="M1173.24 247.762 1180.29 247.762 1180.29 248.817 1175.7 248.817 1175.7 273.832 1175.7 276.789 1175.7 297.826 1175.7 303.129 1175.7 321.819 1175.7 327.122 1175.7 345.812 1175.7 351.116 1175.7 369.812 1175.7 375.109 1175.7 393.812 1175.7 399.109 1175.7 417.812 1175.7 423.109 1175.7 444.162 1175.7 447.109 1175.7 472.134 1180.29 472.134 1180.29 473.189 1173.24 473.189 1173.24 447.109 1173.24 444.162 1173.24 423.109 1173.24 417.812 1173.24 399.109 1173.24 393.812 1173.24 375.109 1173.24 369.812 1173.24 351.116 1173.24 345.812 1173.24 327.122 1173.24 321.819 1173.24 303.129 1173.24 297.826 1173.24 276.789 1173.24 273.832ZM1263.18 247.762 1270.23 247.762 1270.23 273.832 1270.23 276.789 1270.23 297.826 1270.23 303.129 1270.23 321.819 1270.23 327.122 1270.23 345.812 1270.23 351.116 1270.23 369.812 1270.23 375.109 1270.23 393.812 1270.23 399.109 1270.23 417.812 1270.23 423.109 1270.23 444.162 1270.23 447.109 1270.23 473.189 1263.18 473.189 1263.18 472.134 1267.77 472.134 1267.77 447.109 1267.77 444.162 1267.77 423.109 1267.77 417.812 1267.77 399.109 1267.77 393.812 1267.77 375.109 1267.77 369.812 1267.77 351.116 1267.77 345.812 1267.77 327.122 1267.77 321.819 1267.77 303.129 1267.77 297.826 1267.77 276.789 1267.77 273.832 1267.77 248.816 1263.18 248.816Z" fill-rule="evenodd"/><path d="M1190.53 246.537C1189.69 246.537 1188.9 246.838 1188.17 247.439 1187.44 248.041 1186.8 248.9 1186.25 250.017 1185.7 251.134 1185.27 252.361 1184.97 253.697 1184.66 255.033 1184.51 256.213 1184.51 257.236 1184.51 259.65 1185.39 260.857 1187.15 260.857 1188.23 260.857 1189.23 260.351 1190.14 259.34 1191.04 258.328 1191.77 256.927 1192.33 255.138 1192.88 253.349 1193.16 251.677 1193.16 250.123 1193.16 248.959 1192.94 248.07 1192.52 247.457 1192.09 246.843 1191.43 246.537 1190.53 246.537ZM1190.66 245.506C1192.17 245.506 1193.33 245.943 1194.15 246.818 1194.97 247.693 1195.37 248.959 1195.37 250.615 1195.37 251.709 1195.2 252.931 1194.86 254.283 1194.52 255.634 1194.04 256.828 1193.44 257.863 1192.84 258.898 1192.14 259.732 1191.35 260.365 1190.56 260.998 1189.69 261.435 1188.77 261.677 1188.94 262.248 1189.11 262.718 1189.27 263.09 1189.43 263.461 1189.58 263.761 1189.72 263.992 1189.86 264.222 1190.01 264.394 1190.15 264.508 1190.29 264.621 1190.43 264.697 1190.57 264.736 1190.71 264.775 1190.87 264.795 1191.06 264.795 1191.36 264.795 1191.66 264.709 1191.96 264.537 1192.27 264.365 1192.61 264.068 1192.98 263.646L1193.59 264.302C1192.97 264.982 1192.39 265.463 1191.85 265.744 1191.31 266.025 1190.75 266.166 1190.18 266.166 1189.53 266.166 1189.01 266.021 1188.6 265.732 1188.18 265.443 1187.83 264.982 1187.53 264.349 1187.23 263.716 1186.94 262.888 1186.66 261.865 1185.24 261.787 1184.16 261.318 1183.42 260.459 1182.68 259.599 1182.31 258.388 1182.31 256.826 1182.31 255.654 1182.51 254.33 1182.9 252.853 1183.29 251.377 1183.86 250.074 1184.61 248.945 1185.36 247.816 1186.25 246.961 1187.28 246.379 1188.32 245.797 1189.44 245.506 1190.66 245.506Z" fill-rule="evenodd"/><text fill="#000000" fill-opacity="0" font-family="Arial,Arial_MSFontService,sans-serif" font-size="20.6602" x="1182.31" y="263.583">𝑄</text><path d="M1206.79 244.756 1207.11 245.658C1205.28 246.259 1203.93 247.433 1203.05 249.179 1202.17 250.925 1201.73 253.119 1201.73 255.759 1201.73 258.494 1202.17 260.748 1203.05 262.521 1203.93 264.295 1205.27 265.482 1207.07 266.084L1206.79 266.986C1204.5 266.384 1202.75 265.09 1201.53 263.101 1200.31 261.113 1199.7 258.705 1199.7 255.877 1199.7 253.056 1200.31 250.648 1201.54 248.652 1202.76 246.656 1204.51 245.357 1206.79 244.756Z" fill-rule="evenodd"/><text fill="#000000" fill-opacity="0" font-family="Arial,Arial_MSFontService,sans-serif" font-size="22.2305" x="1199.7" y="264.207">(</text><path d="M1214.13 250.299C1214.86 250.299 1215.52 250.341 1216.12 250.427 1216.72 250.513 1217.31 250.662 1217.91 250.873L1217.38 253.334 1216.43 253.334C1216.34 252.638 1216.11 252.111 1215.74 251.752 1215.37 251.392 1214.79 251.213 1213.99 251.213 1213.37 251.213 1212.87 251.371 1212.49 251.687 1212.11 252.004 1211.92 252.42 1211.92 252.935 1211.92 253.216 1211.97 253.465 1212.06 253.679 1212.16 253.894 1212.36 254.131 1212.66 254.388 1212.95 254.646 1213.41 254.963 1214.04 255.338 1214.53 255.634 1214.92 255.906 1215.22 256.152 1215.52 256.398 1215.75 256.642 1215.92 256.884 1216.1 257.127 1216.22 257.383 1216.3 257.652 1216.38 257.922 1216.42 258.248 1216.42 258.631 1216.42 259.326 1216.23 259.922 1215.86 260.418 1215.49 260.914 1214.99 261.283 1214.35 261.525 1213.71 261.767 1212.99 261.888 1212.17 261.888 1211.53 261.888 1210.89 261.84 1210.26 261.742 1209.64 261.644 1208.94 261.478 1208.18 261.244L1208.74 258.689 1209.66 258.689C1209.69 259.439 1209.9 260.006 1210.29 260.388 1210.68 260.771 1211.3 260.963 1212.15 260.963 1212.89 260.963 1213.47 260.797 1213.89 260.465 1214.31 260.133 1214.52 259.662 1214.52 259.052 1214.52 258.701 1214.46 258.398 1214.34 258.144 1214.23 257.89 1214.03 257.646 1213.77 257.412 1213.5 257.177 1213.08 256.884 1212.5 256.533 1211.89 256.166 1211.42 255.834 1211.08 255.537 1210.74 255.24 1210.48 254.918 1210.31 254.57 1210.14 254.222 1210.05 253.822 1210.05 253.369 1210.05 252.752 1210.22 252.211 1210.55 251.746 1210.88 251.281 1211.36 250.924 1211.98 250.674 1212.59 250.424 1213.31 250.299 1214.13 250.299Z" fill-rule="evenodd"/><text fill="#000000" fill-opacity="0" font-family="Arial,Arial_MSFontService,sans-serif" font-size="11.5898" x="1208.18" y="260.44">𝑠</text><path d="M1220.82 258.97 1222.87 258.97C1222.98 259.517 1223.04 260.056 1223.04 260.588 1223.04 261.134 1222.94 261.634 1222.76 262.088 1222.57 262.541 1222.27 262.992 1221.86 263.441 1221.45 263.89 1220.89 264.384 1220.17 264.924L1219.53 264.209C1219.93 263.834 1220.22 263.496 1220.4 263.195 1220.58 262.894 1220.71 262.552 1220.79 262.17 1220.87 261.787 1220.91 261.306 1220.91 260.728 1220.91 260.134 1220.88 259.549 1220.82 258.97Z" fill-rule="evenodd"/><text fill="#000000" fill-opacity="0" font-family="Arial,Arial_MSFontService,sans-serif" font-size="5.95313" x="1219.53" y="264.179">,</text><path d="M1235.76 251.213C1234.96 251.213 1234.24 251.537 1233.6 252.185 1232.96 252.834 1232.46 253.703 1232.1 254.793 1231.74 255.883 1231.56 256.97 1231.56 258.056 1231.56 258.869 1231.67 259.476 1231.89 259.879 1232.11 260.281 1232.49 260.482 1233.01 260.482 1233.53 260.482 1234.03 260.259 1234.53 259.814 1235.02 259.369 1235.54 258.734 1236.06 257.91 1236.59 257.086 1236.96 256.134 1237.18 255.056L1237.29 254.552C1237.36 254.232 1237.41 253.955 1237.43 253.72 1237.45 253.486 1237.46 253.232 1237.46 252.959 1237.46 252.357 1237.33 251.916 1237.08 251.634 1236.82 251.353 1236.38 251.213 1235.76 251.213ZM1235.53 250.287C1236.04 250.287 1236.51 250.343 1236.95 250.457 1237.4 250.57 1237.85 250.771 1238.32 251.06L1239.4 250.287 1240.15 250.474 1238.42 257.904C1238.25 258.646 1238.17 259.224 1238.17 259.638 1238.17 259.951 1238.22 260.177 1238.32 260.318 1238.42 260.459 1238.58 260.529 1238.8 260.529 1239.03 260.529 1239.28 260.433 1239.55 260.242 1239.82 260.05 1240.19 259.685 1240.67 259.146L1241.34 259.802C1240.64 260.552 1240.04 261.086 1239.54 261.402 1239.05 261.718 1238.51 261.877 1237.93 261.877 1237.45 261.877 1237.06 261.716 1236.77 261.396 1236.48 261.076 1236.34 260.65 1236.34 260.119 1236.34 259.689 1236.43 259.232 1236.61 258.748L1236.46 258.701C1235.71 259.795 1234.99 260.595 1234.32 261.103 1233.65 261.611 1232.94 261.865 1232.19 261.865 1231.33 261.865 1230.66 261.541 1230.19 260.892 1229.72 260.244 1229.48 259.334 1229.48 258.162 1229.48 256.818 1229.75 255.527 1230.27 254.289 1230.8 253.05 1231.53 252.074 1232.45 251.359 1233.37 250.644 1234.4 250.287 1235.53 250.287Z" fill-rule="evenodd"/><text fill="#000000" fill-opacity="0" font-family="Arial,Arial_MSFontService,sans-serif" font-size="11.5898" x="1229.48" y="260.428">𝑎</text><path d="M1246.8 256.06C1246.39 256.06 1246.04 256.167 1245.77 256.381 1245.49 256.595 1245.28 256.908 1245.11 257.321 1244.95 257.734 1244.84 258.238 1244.77 258.833 1244.7 259.428 1244.67 260.103 1244.67 260.859 1244.67 261.732 1244.71 262.486 1244.8 263.122 1244.88 263.758 1245.02 264.281 1245.19 264.691 1245.37 265.101 1245.6 265.403 1245.87 265.596 1246.14 265.789 1246.46 265.886 1246.83 265.886 1247.18 265.886 1247.49 265.795 1247.76 265.614 1248.02 265.432 1248.24 265.149 1248.41 264.765 1248.58 264.382 1248.71 263.895 1248.8 263.306 1248.89 262.718 1248.93 262.022 1248.93 261.219 1248.93 260.317 1248.89 259.54 1248.79 258.89 1248.69 258.24 1248.56 257.705 1248.38 257.286 1248.2 256.867 1247.98 256.558 1247.72 256.359 1247.45 256.159 1247.14 256.06 1246.8 256.06ZM1246.83 255.207C1247.53 255.207 1248.13 255.338 1248.62 255.598 1249.12 255.859 1249.52 256.231 1249.83 256.715 1250.15 257.198 1250.38 257.788 1250.52 258.486 1250.67 259.183 1250.74 259.971 1250.74 260.85 1250.74 262.801 1250.4 264.276 1249.71 265.275 1249.02 266.274 1248.01 266.774 1246.7 266.774 1245.4 266.774 1244.43 266.302 1243.8 265.359 1243.17 264.415 1242.85 262.986 1242.85 261.07 1242.85 260.068 1242.95 259.2 1243.15 258.468 1243.34 257.736 1243.62 257.128 1243.97 256.644 1244.33 256.161 1244.75 255.801 1245.23 255.563 1245.72 255.326 1246.25 255.207 1246.83 255.207Z" fill-rule="evenodd"/><text fill="#000000" fill-opacity="0" font-family="Arial,Arial_MSFontService,sans-serif" font-size="11.5664" x="1242.85" y="265.328">0</text><path d="M1253.51 244.756C1255.79 245.357 1257.54 246.656 1258.76 248.652 1259.99 250.648 1260.6 253.056 1260.6 255.877 1260.6 258.705 1259.99 261.113 1258.77 263.101 1257.55 265.09 1255.8 266.384 1253.51 266.986L1253.23 266.084C1255.03 265.482 1256.37 264.295 1257.25 262.521 1258.13 260.748 1258.57 258.494 1258.57 255.759 1258.57 253.119 1258.13 250.925 1257.26 249.179 1256.38 247.433 1255.03 246.259 1253.19 245.658Z" fill-rule="evenodd"/><text fill="#000000" fill-opacity="0" font-family="Arial,Arial_MSFontService,sans-serif" font-size="22.2305" x="1253.19" y="264.207">)</text><path d="M1190.81 276.423C1189.96 276.423 1189.18 276.724 1188.45 277.326 1187.72 277.927 1187.08 278.787 1186.52 279.904 1185.97 281.021 1185.55 282.248 1185.24 283.584 1184.94 284.92 1184.78 286.099 1184.78 287.123 1184.78 289.537 1185.66 290.744 1187.42 290.744 1188.51 290.744 1189.5 290.238 1190.41 289.226 1191.32 288.214 1192.05 286.814 1192.6 285.025 1193.16 283.236 1193.43 281.564 1193.43 280.009 1193.43 278.845 1193.22 277.957 1192.79 277.343 1192.36 276.73 1191.7 276.423 1190.81 276.423ZM1190.94 275.392C1192.44 275.392 1193.61 275.83 1194.42 276.705 1195.24 277.58 1195.65 278.845 1195.65 280.502 1195.65 281.595 1195.48 282.818 1195.13 284.17 1194.79 285.521 1194.32 286.714 1193.71 287.75 1193.11 288.785 1192.42 289.619 1191.62 290.252 1190.83 290.884 1189.97 291.322 1189.04 291.564 1189.22 292.134 1189.39 292.605 1189.54 292.976 1189.7 293.347 1189.85 293.648 1189.99 293.879 1190.14 294.109 1190.28 294.281 1190.42 294.394 1190.56 294.507 1190.7 294.584 1190.84 294.623 1190.98 294.662 1191.15 294.681 1191.34 294.681 1191.63 294.681 1191.93 294.595 1192.24 294.423 1192.54 294.252 1192.88 293.955 1193.26 293.533L1193.87 294.189C1193.24 294.869 1192.66 295.349 1192.12 295.63 1191.58 295.912 1191.03 296.052 1190.46 296.052 1189.81 296.052 1189.28 295.908 1188.87 295.619 1188.46 295.33 1188.1 294.869 1187.8 294.236 1187.5 293.603 1187.21 292.775 1186.93 291.752 1185.51 291.673 1184.44 291.205 1183.69 290.345 1182.95 289.486 1182.58 288.275 1182.58 286.713 1182.58 285.541 1182.78 284.216 1183.17 282.74 1183.57 281.263 1184.14 279.961 1184.88 278.832 1185.63 277.703 1186.52 276.847 1187.56 276.265 1188.59 275.683 1189.72 275.392 1190.94 275.392Z" fill-rule="evenodd"/><text fill="#000000" fill-opacity="0" font-family="Arial,Arial_MSFontService,sans-serif" font-size="20.6602" x="1182.58" y="293.47">𝑄</text><path d="M1207.07 274.642 1207.38 275.545C1205.55 276.146 1204.2 277.32 1203.32 279.066 1202.44 280.812 1202 283.005 1202 285.646 1202 288.38 1202.44 290.634 1203.32 292.408 1204.2 294.181 1205.54 295.369 1207.35 295.97L1207.07 296.873C1204.78 296.271 1203.02 294.976 1201.8 292.988 1200.58 291 1199.98 288.591 1199.98 285.763 1199.98 282.943 1200.59 280.535 1201.81 278.539 1203.03 276.543 1204.78 275.244 1207.07 274.642Z" fill-rule="evenodd"/><text fill="#000000" fill-opacity="0" font-family="Arial,Arial_MSFontService,sans-serif" font-size="22.2305" x="1199.98" y="294.094">(</text><path d="M1214.41 280.185C1215.13 280.185 1215.79 280.228 1216.39 280.314 1216.99 280.4 1217.58 280.548 1218.18 280.759L1217.65 283.22 1216.7 283.22C1216.62 282.525 1216.39 281.998 1216.02 281.638 1215.65 281.279 1215.06 281.099 1214.26 281.099 1213.65 281.099 1213.15 281.257 1212.76 281.574 1212.38 281.89 1212.19 282.306 1212.19 282.822 1212.19 283.103 1212.24 283.351 1212.34 283.566 1212.43 283.781 1212.63 284.017 1212.93 284.275 1213.23 284.533 1213.69 284.849 1214.31 285.224 1214.8 285.521 1215.2 285.793 1215.49 286.039 1215.79 286.285 1216.03 286.529 1216.2 286.771 1216.37 287.013 1216.49 287.269 1216.57 287.539 1216.65 287.808 1216.69 288.134 1216.69 288.517 1216.69 289.213 1216.5 289.808 1216.13 290.304 1215.76 290.8 1215.26 291.17 1214.62 291.412 1213.99 291.654 1213.26 291.775 1212.45 291.775 1211.8 291.775 1211.16 291.726 1210.54 291.629 1209.91 291.531 1209.22 291.365 1208.45 291.13L1209.01 288.576 1209.93 288.576C1209.96 289.326 1210.17 289.892 1210.56 290.275 1210.95 290.658 1211.57 290.849 1212.42 290.849 1213.17 290.849 1213.75 290.683 1214.16 290.351 1214.58 290.019 1214.79 289.548 1214.79 288.939 1214.79 288.588 1214.73 288.285 1214.62 288.031 1214.5 287.777 1214.31 287.533 1214.04 287.298 1213.78 287.064 1213.35 286.771 1212.78 286.42 1212.17 286.052 1211.69 285.72 1211.35 285.423 1211.01 285.127 1210.76 284.804 1210.58 284.457 1210.41 284.109 1210.33 283.709 1210.33 283.255 1210.33 282.638 1210.49 282.097 1210.82 281.632 1211.16 281.168 1211.63 280.81 1212.25 280.56 1212.87 280.31 1213.58 280.185 1214.41 280.185Z" fill-rule="evenodd"/><text fill="#000000" fill-opacity="0" font-family="Arial,Arial_MSFontService,sans-serif" font-size="11.5898" x="1208.45" y="290.326">𝑠</text><path d="M1221.1 288.857 1223.15 288.857C1223.26 289.404 1223.31 289.943 1223.31 290.474 1223.31 291.021 1223.22 291.521 1223.03 291.974 1222.84 292.427 1222.54 292.879 1222.13 293.328 1221.72 293.777 1221.16 294.271 1220.44 294.81L1219.81 294.095C1220.21 293.72 1220.49 293.382 1220.67 293.082 1220.85 292.781 1220.98 292.439 1221.06 292.056 1221.14 291.673 1221.18 291.193 1221.18 290.615 1221.18 290.021 1221.15 289.435 1221.1 288.857Z" fill-rule="evenodd"/><text fill="#000000" fill-opacity="0" font-family="Arial,Arial_MSFontService,sans-serif" font-size="5.95313" x="1219.81" y="294.066">,</text><path d="M1236.04 281.099C1235.23 281.099 1234.51 281.423 1233.87 282.072 1233.23 282.72 1232.73 283.589 1232.37 284.679 1232.01 285.769 1231.83 286.857 1231.83 287.943 1231.83 288.755 1231.94 289.363 1232.16 289.765 1232.39 290.168 1232.76 290.369 1233.28 290.369 1233.8 290.369 1234.31 290.146 1234.8 289.701 1235.3 289.255 1235.81 288.621 1236.34 287.797 1236.86 286.972 1237.24 286.021 1237.46 284.943L1237.56 284.439C1237.63 284.119 1237.68 283.841 1237.7 283.607 1237.73 283.373 1237.74 283.119 1237.74 282.845 1237.74 282.244 1237.61 281.802 1237.35 281.521 1237.09 281.24 1236.65 281.099 1236.04 281.099ZM1235.8 280.173C1236.31 280.173 1236.79 280.23 1237.23 280.343 1237.67 280.457 1238.12 280.658 1238.59 280.947L1239.67 280.173 1240.42 280.361 1238.7 287.791C1238.53 288.533 1238.44 289.111 1238.44 289.525 1238.44 289.838 1238.49 290.064 1238.59 290.205 1238.69 290.345 1238.85 290.416 1239.07 290.416 1239.31 290.416 1239.56 290.32 1239.82 290.129 1240.09 289.937 1240.46 289.572 1240.95 289.033L1241.62 289.689C1240.91 290.439 1240.31 290.972 1239.82 291.289 1239.32 291.605 1238.78 291.763 1238.21 291.763 1237.72 291.763 1237.33 291.603 1237.05 291.283 1236.76 290.963 1236.61 290.537 1236.61 290.005 1236.61 289.576 1236.7 289.119 1236.88 288.634L1236.73 288.588C1235.98 289.681 1235.27 290.482 1234.6 290.99 1233.92 291.498 1233.21 291.752 1232.46 291.752 1231.6 291.752 1230.94 291.427 1230.47 290.779 1229.99 290.13 1229.76 289.22 1229.76 288.048 1229.76 286.705 1230.02 285.414 1230.55 284.175 1231.07 282.937 1231.8 281.961 1232.72 281.246 1233.64 280.531 1234.67 280.173 1235.8 280.173Z" fill-rule="evenodd"/><text fill="#000000" fill-opacity="0" font-family="Arial,Arial_MSFontService,sans-serif" font-size="11.5898" x="1229.76" y="290.315">𝑎</text><path d="M1247.24 285.155 1247.77 285.155C1247.76 285.478 1247.75 285.766 1247.75 286.021 1247.74 286.276 1247.74 286.524 1247.74 286.764 1247.73 287.004 1247.73 287.241 1247.73 287.476L1247.73 294.155C1247.73 294.337 1247.74 294.494 1247.75 294.626 1247.76 294.758 1247.78 294.869 1247.81 294.96 1247.83 295.051 1247.87 295.128 1247.91 295.193 1247.95 295.257 1248.01 295.313 1248.06 295.36 1248.14 295.43 1248.23 295.484 1248.35 295.522 1248.46 295.56 1248.61 295.592 1248.79 295.619 1248.98 295.645 1249.19 295.666 1249.45 295.68 1249.7 295.695 1250.01 295.705 1250.37 295.711L1250.37 296.476 1243.4 296.476 1243.4 295.711C1243.74 295.699 1244.04 295.686 1244.28 295.672 1244.52 295.657 1244.72 295.636 1244.89 295.61 1245.06 295.584 1245.2 295.554 1245.3 295.522 1245.4 295.49 1245.49 295.45 1245.57 295.404 1245.65 295.351 1245.72 295.294 1245.78 295.232 1245.84 295.171 1245.89 295.093 1245.92 294.999 1245.96 294.905 1245.98 294.791 1246 294.656 1246.02 294.522 1246.03 294.355 1246.03 294.155L1246.03 287.854C1246.03 287.625 1245.99 287.464 1245.9 287.37 1245.81 287.277 1245.69 287.23 1245.52 287.23 1245.34 287.23 1245.07 287.323 1244.72 287.511 1244.36 287.698 1243.9 287.977 1243.33 288.346 1243.25 288.211 1243.18 288.076 1243.12 287.942 1243.05 287.807 1242.98 287.669 1242.91 287.529 1243.64 287.13 1244.36 286.733 1245.07 286.338 1245.78 285.942 1246.51 285.548 1247.24 285.155Z" fill-rule="evenodd"/><text fill="#000000" fill-opacity="0" font-family="Arial,Arial_MSFontService,sans-serif" font-size="11.3203" x="1242.91" y="295.061">1</text><path d="M1253.23 274.642C1255.51 275.244 1257.26 276.543 1258.48 278.539 1259.71 280.535 1260.32 282.943 1260.32 285.763 1260.32 288.591 1259.71 291 1258.49 292.988 1257.27 294.976 1255.52 296.271 1253.23 296.873L1252.95 295.97C1254.75 295.369 1256.09 294.181 1256.97 292.408 1257.85 290.634 1258.29 288.38 1258.29 285.646 1258.29 283.005 1257.85 280.812 1256.98 279.066 1256.1 277.32 1254.75 276.146 1252.91 275.545Z" fill-rule="evenodd"/><text fill="#000000" fill-opacity="0" font-family="Arial,Arial_MSFontService,sans-serif" font-size="22.2305" x="1252.91" y="294.094">)</text><path d="M1190.53 306.31C1189.69 306.31 1188.9 306.611 1188.17 307.212 1187.44 307.814 1186.8 308.673 1186.25 309.791 1185.7 310.908 1185.27 312.134 1184.97 313.47 1184.66 314.806 1184.51 315.986 1184.51 317.009 1184.51 319.423 1185.39 320.63 1187.15 320.63 1188.23 320.63 1189.23 320.125 1190.14 319.113 1191.04 318.101 1191.77 316.701 1192.33 314.912 1192.88 313.123 1193.16 311.451 1193.16 309.896 1193.16 308.732 1192.94 307.843 1192.52 307.23 1192.09 306.617 1191.43 306.31 1190.53 306.31ZM1190.66 305.279C1192.17 305.279 1193.33 305.716 1194.15 306.591 1194.97 307.466 1195.37 308.732 1195.37 310.388 1195.37 311.482 1195.2 312.705 1194.86 314.056 1194.52 315.408 1194.04 316.601 1193.44 317.636 1192.84 318.671 1192.14 319.505 1191.35 320.138 1190.56 320.771 1189.69 321.209 1188.77 321.451 1188.94 322.021 1189.11 322.492 1189.27 322.863 1189.43 323.234 1189.58 323.535 1189.72 323.765 1189.86 323.996 1190.01 324.168 1190.15 324.281 1190.29 324.394 1190.43 324.47 1190.57 324.509 1190.71 324.548 1190.87 324.568 1191.06 324.568 1191.36 324.568 1191.66 324.482 1191.96 324.31 1192.27 324.138 1192.61 323.841 1192.98 323.419L1193.59 324.076C1192.97 324.755 1192.39 325.236 1191.85 325.517 1191.31 325.798 1190.75 325.939 1190.18 325.939 1189.53 325.939 1189.01 325.794 1188.6 325.505 1188.18 325.216 1187.83 324.755 1187.53 324.123 1187.23 323.49 1186.94 322.662 1186.66 321.638 1185.24 321.56 1184.16 321.091 1183.42 320.232 1182.68 319.373 1182.31 318.162 1182.31 316.599 1182.31 315.427 1182.51 314.103 1182.9 312.627 1183.29 311.15 1183.86 309.847 1184.61 308.718 1185.36 307.589 1186.25 306.734 1187.28 306.152 1188.32 305.57 1189.44 305.279 1190.66 305.279Z" fill-rule="evenodd"/><text fill="#000000" fill-opacity="0" font-family="Arial,Arial_MSFontService,sans-serif" font-size="20.6602" x="1182.31" y="323.357">𝑄</text><path d="M1206.79 304.529 1207.11 305.431C1205.28 306.033 1203.93 307.207 1203.05 308.953 1202.17 310.699 1201.73 312.892 1201.73 315.533 1201.73 318.267 1202.17 320.521 1203.05 322.294 1203.93 324.068 1205.27 325.255 1207.07 325.857L1206.79 326.759C1204.5 326.158 1202.75 324.863 1201.53 322.875 1200.31 320.886 1199.7 318.478 1199.7 315.65 1199.7 312.83 1200.31 310.421 1201.54 308.425 1202.76 306.429 1204.51 305.13 1206.79 304.529Z" fill-rule="evenodd"/><text fill="#000000" fill-opacity="0" font-family="Arial,Arial_MSFontService,sans-serif" font-size="22.2305" x="1199.7" y="323.981">(</text><path d="M1214.13 310.072C1214.86 310.072 1215.52 310.115 1216.12 310.201 1216.72 310.287 1217.31 310.435 1217.91 310.646L1217.38 313.107 1216.43 313.107C1216.34 312.412 1216.11 311.884 1215.74 311.525 1215.37 311.166 1214.79 310.986 1213.99 310.986 1213.37 310.986 1212.87 311.144 1212.49 311.461 1212.11 311.777 1211.92 312.193 1211.92 312.709 1211.92 312.99 1211.97 313.238 1212.06 313.453 1212.16 313.668 1212.36 313.904 1212.66 314.162 1212.95 314.419 1213.41 314.736 1214.04 315.111 1214.53 315.408 1214.92 315.679 1215.22 315.925 1215.52 316.171 1215.75 316.416 1215.92 316.658 1216.1 316.9 1216.22 317.156 1216.3 317.425 1216.38 317.695 1216.42 318.021 1216.42 318.404 1216.42 319.099 1216.23 319.695 1215.86 320.191 1215.49 320.687 1214.99 321.056 1214.35 321.298 1213.71 321.541 1212.99 321.662 1212.17 321.662 1211.53 321.662 1210.89 321.613 1210.26 321.515 1209.64 321.418 1208.94 321.252 1208.18 321.017L1208.74 318.462 1209.66 318.462C1209.69 319.212 1209.9 319.779 1210.29 320.162 1210.68 320.544 1211.3 320.736 1212.15 320.736 1212.89 320.736 1213.47 320.57 1213.89 320.238 1214.31 319.906 1214.52 319.435 1214.52 318.826 1214.52 318.474 1214.46 318.171 1214.34 317.918 1214.23 317.664 1214.03 317.419 1213.77 317.185 1213.5 316.951 1213.08 316.658 1212.5 316.306 1211.89 315.939 1211.42 315.607 1211.08 315.31 1210.74 315.013 1210.48 314.691 1210.31 314.343 1210.14 313.996 1210.05 313.595 1210.05 313.142 1210.05 312.525 1210.22 311.984 1210.55 311.519 1210.88 311.054 1211.36 310.697 1211.98 310.447 1212.59 310.197 1213.31 310.072 1214.13 310.072Z" fill-rule="evenodd"/><text fill="#000000" fill-opacity="0" font-family="Arial,Arial_MSFontService,sans-serif" font-size="11.5898" x="1208.18" y="320.213">𝑠</text><path d="M1220.82 318.744 1222.87 318.744C1222.98 319.291 1223.04 319.83 1223.04 320.361 1223.04 320.908 1222.94 321.408 1222.76 321.861 1222.57 322.314 1222.27 322.765 1221.86 323.214 1221.45 323.664 1220.89 324.158 1220.17 324.697L1219.53 323.982C1219.93 323.607 1220.22 323.269 1220.4 322.968 1220.58 322.668 1220.71 322.326 1220.79 321.943 1220.87 321.56 1220.91 321.08 1220.91 320.502 1220.91 319.908 1220.88 319.322 1220.82 318.744Z" fill-rule="evenodd"/><text fill="#000000" fill-opacity="0" font-family="Arial,Arial_MSFontService,sans-serif" font-size="5.95313" x="1219.53" y="323.953">,</text><path d="M1235.76 310.986C1234.96 310.986 1234.24 311.31 1233.6 311.959 1232.96 312.607 1232.46 313.476 1232.1 314.566 1231.74 315.656 1231.56 316.744 1231.56 317.83 1231.56 318.642 1231.67 319.25 1231.89 319.652 1232.11 320.054 1232.49 320.255 1233.01 320.255 1233.53 320.255 1234.03 320.033 1234.53 319.587 1235.02 319.142 1235.54 318.507 1236.06 317.683 1236.59 316.859 1236.96 315.908 1237.18 314.83L1237.29 314.326C1237.36 314.005 1237.41 313.728 1237.43 313.494 1237.45 313.259 1237.46 313.005 1237.46 312.732 1237.46 312.13 1237.33 311.689 1237.08 311.408 1236.82 311.127 1236.38 310.986 1235.76 310.986ZM1235.53 310.06C1236.04 310.06 1236.51 310.117 1236.95 310.23 1237.4 310.343 1237.85 310.544 1238.32 310.834L1239.4 310.06 1240.15 310.248 1238.42 317.677C1238.25 318.419 1238.17 318.998 1238.17 319.412 1238.17 319.724 1238.22 319.951 1238.32 320.091 1238.42 320.232 1238.58 320.302 1238.8 320.302 1239.03 320.302 1239.28 320.207 1239.55 320.015 1239.82 319.824 1240.19 319.459 1240.67 318.919L1241.34 319.576C1240.64 320.326 1240.04 320.859 1239.54 321.175 1239.05 321.492 1238.51 321.65 1237.93 321.65 1237.45 321.65 1237.06 321.49 1236.77 321.169 1236.48 320.849 1236.34 320.423 1236.34 319.892 1236.34 319.462 1236.43 319.005 1236.61 318.521L1236.46 318.474C1235.71 319.568 1234.99 320.369 1234.32 320.877 1233.65 321.384 1232.94 321.638 1232.19 321.638 1231.33 321.638 1230.66 321.314 1230.19 320.666 1229.72 320.017 1229.48 319.107 1229.48 317.935 1229.48 316.591 1229.75 315.3 1230.27 314.062 1230.8 312.824 1231.53 311.847 1232.45 311.132 1233.37 310.418 1234.4 310.06 1235.53 310.06Z" fill-rule="evenodd"/><text fill="#000000" fill-opacity="0" font-family="Arial,Arial_MSFontService,sans-serif" font-size="11.5898" x="1229.48" y="320.201">𝑎</text><path d="M1246.83 314.981C1247.44 314.981 1247.96 315.049 1248.39 315.187 1248.82 315.325 1249.17 315.511 1249.44 315.745 1249.71 315.98 1249.91 316.261 1250.03 316.589 1250.15 316.917 1250.21 317.272 1250.21 317.652 1250.21 317.881 1250.19 318.093 1250.16 318.29 1250.13 318.486 1250.07 318.679 1249.99 318.87 1249.91 319.06 1249.81 319.252 1249.68 319.445 1249.55 319.639 1249.39 319.844 1249.2 320.061 1249.05 320.248 1248.86 320.465 1248.63 320.711 1248.39 320.957 1248.14 321.221 1247.86 321.502 1247.58 321.783 1247.29 322.076 1246.98 322.381 1246.68 322.686 1246.38 322.987 1246.09 323.286 1245.81 323.585 1245.54 323.875 1245.3 324.156 1245.06 324.438 1244.87 324.695 1244.71 324.93L1247.97 324.93C1248.24 324.93 1248.46 324.92 1248.63 324.899 1248.79 324.879 1248.93 324.833 1249.03 324.763 1249.14 324.693 1249.24 324.586 1249.31 324.442 1249.39 324.298 1249.48 324.101 1249.58 323.849L1250.39 323.849C1250.36 324.265 1250.34 324.684 1250.31 325.106 1250.28 325.527 1250.25 325.946 1250.23 326.362L1242.78 326.362 1242.78 325.905C1242.92 325.589 1243.09 325.277 1243.27 324.969 1243.46 324.662 1243.67 324.35 1243.91 324.033 1244.14 323.717 1244.41 323.39 1244.71 323.053 1245 322.716 1245.34 322.366 1245.7 322.003 1246.25 321.452 1246.7 320.982 1247.04 320.592 1247.39 320.203 1247.66 319.856 1247.86 319.551 1248.06 319.246 1248.2 318.965 1248.27 318.707 1248.34 318.449 1248.38 318.174 1248.38 317.881 1248.38 317.582 1248.34 317.307 1248.25 317.055 1248.17 316.803 1248.05 316.589 1247.89 316.413 1247.73 316.237 1247.53 316.1 1247.29 316 1247.04 315.901 1246.76 315.851 1246.45 315.851 1245.9 315.851 1245.44 315.999 1245.08 316.295 1244.71 316.59 1244.42 317.02 1244.21 317.582L1243.06 317.582 1243.06 315.868C1243.81 315.558 1244.5 315.332 1245.13 315.192 1245.76 315.051 1246.33 314.981 1246.83 314.981Z" fill-rule="evenodd"/><text fill="#000000" fill-opacity="0" font-family="Arial,Arial_MSFontService,sans-serif" font-size="11.3818" x="1242.78" y="324.94">2</text><path d="M1253.51 304.529C1255.79 305.13 1257.54 306.429 1258.76 308.425 1259.99 310.421 1260.6 312.83 1260.6 315.65 1260.6 318.478 1259.99 320.886 1258.77 322.875 1257.55 324.863 1255.8 326.158 1253.51 326.759L1253.23 325.857C1255.03 325.255 1256.37 324.068 1257.25 322.294 1258.13 320.521 1258.57 318.267 1258.57 315.533 1258.57 312.892 1258.13 310.699 1257.26 308.953 1256.38 307.207 1255.03 306.033 1253.19 305.431Z" fill-rule="evenodd"/><text fill="#000000" fill-opacity="0" font-family="Arial,Arial_MSFontService,sans-serif" font-size="22.2305" x="1253.19" y="323.981">)</text><path d="M1190.53 336.197C1189.69 336.197 1188.9 336.498 1188.17 337.099 1187.44 337.701 1186.8 338.56 1186.25 339.677 1185.7 340.794 1185.27 342.021 1184.97 343.357 1184.66 344.693 1184.51 345.873 1184.51 346.896 1184.51 349.31 1185.39 350.517 1187.15 350.517 1188.23 350.517 1189.23 350.011 1190.14 349 1191.04 347.988 1191.77 346.587 1192.33 344.798 1192.88 343.009 1193.16 341.337 1193.16 339.783 1193.16 338.619 1192.94 337.73 1192.52 337.117 1192.09 336.503 1191.43 336.197 1190.53 336.197ZM1190.66 335.166C1192.17 335.166 1193.33 335.603 1194.15 336.478 1194.97 337.353 1195.37 338.619 1195.37 340.275 1195.37 341.369 1195.2 342.591 1194.86 343.943 1194.52 345.294 1194.04 346.488 1193.44 347.523 1192.84 348.558 1192.14 349.392 1191.35 350.025 1190.56 350.658 1189.69 351.095 1188.77 351.337 1188.94 351.908 1189.11 352.378 1189.27 352.75 1189.43 353.121 1189.58 353.421 1189.72 353.652 1189.86 353.882 1190.01 354.054 1190.15 354.168 1190.29 354.281 1190.43 354.357 1190.57 354.396 1190.71 354.435 1190.87 354.455 1191.06 354.455 1191.36 354.455 1191.66 354.369 1191.96 354.197 1192.27 354.025 1192.61 353.728 1192.98 353.306L1193.59 353.962C1192.97 354.642 1192.39 355.123 1191.85 355.404 1191.31 355.685 1190.75 355.826 1190.18 355.826 1189.53 355.826 1189.01 355.681 1188.6 355.392 1188.18 355.103 1187.83 354.642 1187.53 354.009 1187.23 353.376 1186.94 352.548 1186.66 351.525 1185.24 351.447 1184.16 350.978 1183.42 350.119 1182.68 349.259 1182.31 348.048 1182.31 346.486 1182.31 345.314 1182.51 343.99 1182.9 342.513 1183.29 341.037 1183.86 339.734 1184.61 338.605 1185.36 337.476 1186.25 336.621 1187.28 336.039 1188.32 335.457 1189.44 335.166 1190.66 335.166Z" fill-rule="evenodd"/><text fill="#000000" fill-opacity="0" font-family="Arial,Arial_MSFontService,sans-serif" font-size="20.6602" x="1182.31" y="353.243">𝑄</text><path d="M1206.79 334.416 1207.11 335.318C1205.28 335.919 1203.93 337.093 1203.05 338.839 1202.17 340.585 1201.73 342.779 1201.73 345.419 1201.73 348.154 1202.17 350.408 1203.05 352.181 1203.93 353.955 1205.27 355.142 1207.07 355.744L1206.79 356.646C1204.5 356.044 1202.75 354.75 1201.53 352.761 1200.31 350.773 1199.7 348.365 1199.7 345.537 1199.7 342.716 1200.31 340.308 1201.54 338.312 1202.76 336.316 1204.51 335.017 1206.79 334.416Z" fill-rule="evenodd"/><text fill="#000000" fill-opacity="0" font-family="Arial,Arial_MSFontService,sans-serif" font-size="22.2305" x="1199.7" y="353.867">(</text><path d="M1214.13 339.959C1214.86 339.959 1215.52 340.001 1216.12 340.087 1216.72 340.173 1217.31 340.322 1217.91 340.533L1217.38 342.994 1216.43 342.994C1216.34 342.298 1216.11 341.771 1215.74 341.412 1215.37 341.052 1214.79 340.873 1213.99 340.873 1213.37 340.873 1212.87 341.031 1212.49 341.347 1212.11 341.664 1211.92 342.08 1211.92 342.595 1211.92 342.876 1211.97 343.125 1212.06 343.339 1212.16 343.554 1212.36 343.791 1212.66 344.048 1212.95 344.306 1213.41 344.623 1214.04 344.998 1214.53 345.294 1214.92 345.566 1215.22 345.812 1215.52 346.058 1215.75 346.302 1215.92 346.544 1216.1 346.787 1216.22 347.043 1216.3 347.312 1216.38 347.582 1216.42 347.908 1216.42 348.291 1216.42 348.986 1216.23 349.582 1215.86 350.078 1215.49 350.574 1214.99 350.943 1214.35 351.185 1213.71 351.427 1212.99 351.548 1212.17 351.548 1211.53 351.548 1210.89 351.5 1210.26 351.402 1209.64 351.304 1208.94 351.138 1208.18 350.904L1208.74 348.349 1209.66 348.349C1209.69 349.099 1209.9 349.666 1210.29 350.048 1210.68 350.431 1211.3 350.623 1212.15 350.623 1212.89 350.623 1213.47 350.457 1213.89 350.125 1214.31 349.793 1214.52 349.322 1214.52 348.712 1214.52 348.361 1214.46 348.058 1214.34 347.804 1214.23 347.55 1214.03 347.306 1213.77 347.072 1213.5 346.837 1213.08 346.544 1212.5 346.193 1211.89 345.826 1211.42 345.494 1211.08 345.197 1210.74 344.9 1210.48 344.578 1210.31 344.23 1210.14 343.882 1210.05 343.482 1210.05 343.029 1210.05 342.412 1210.22 341.871 1210.55 341.406 1210.88 340.941 1211.36 340.584 1211.98 340.334 1212.59 340.084 1213.31 339.959 1214.13 339.959Z" fill-rule="evenodd"/><text fill="#000000" fill-opacity="0" font-family="Arial,Arial_MSFontService,sans-serif" font-size="11.5898" x="1208.18" y="350.1">𝑠</text><path d="M1220.82 348.63 1222.87 348.63C1222.98 349.177 1223.04 349.716 1223.04 350.248 1223.04 350.794 1222.94 351.294 1222.76 351.748 1222.57 352.201 1222.27 352.652 1221.86 353.101 1221.45 353.55 1220.89 354.044 1220.17 354.584L1219.53 353.869C1219.93 353.494 1220.22 353.156 1220.4 352.855 1220.58 352.554 1220.71 352.212 1220.79 351.83 1220.87 351.447 1220.91 350.966 1220.91 350.388 1220.91 349.794 1220.88 349.209 1220.82 348.63Z" fill-rule="evenodd"/><text fill="#000000" fill-opacity="0" font-family="Arial,Arial_MSFontService,sans-serif" font-size="5.95313" x="1219.53" y="353.839">,</text><path d="M1235.76 340.873C1234.96 340.873 1234.24 341.197 1233.6 341.845 1232.96 342.494 1232.46 343.363 1232.1 344.453 1231.74 345.543 1231.56 346.63 1231.56 347.716 1231.56 348.529 1231.67 349.136 1231.89 349.539 1232.11 349.941 1232.49 350.142 1233.01 350.142 1233.53 350.142 1234.03 349.919 1234.53 349.474 1235.02 349.029 1235.54 348.394 1236.06 347.57 1236.59 346.746 1236.96 345.794 1237.18 344.716L1237.29 344.212C1237.36 343.892 1237.41 343.615 1237.43 343.38 1237.45 343.146 1237.46 342.892 1237.46 342.619 1237.46 342.017 1237.33 341.576 1237.08 341.294 1236.82 341.013 1236.38 340.873 1235.76 340.873ZM1235.53 339.947C1236.04 339.947 1236.51 340.003 1236.95 340.117 1237.4 340.23 1237.85 340.431 1238.32 340.72L1239.4 339.947 1240.15 340.134 1238.42 347.564C1238.25 348.306 1238.17 348.884 1238.17 349.298 1238.17 349.611 1238.22 349.837 1238.32 349.978 1238.42 350.119 1238.58 350.189 1238.8 350.189 1239.03 350.189 1239.28 350.093 1239.55 349.902 1239.82 349.71 1240.19 349.345 1240.67 348.806L1241.34 349.462C1240.64 350.212 1240.04 350.746 1239.54 351.062 1239.05 351.378 1238.51 351.537 1237.93 351.537 1237.45 351.537 1237.06 351.376 1236.77 351.056 1236.48 350.736 1236.34 350.31 1236.34 349.779 1236.34 349.349 1236.43 348.892 1236.61 348.408L1236.46 348.361C1235.71 349.455 1234.99 350.255 1234.32 350.763 1233.65 351.271 1232.94 351.525 1232.19 351.525 1231.33 351.525 1230.66 351.201 1230.19 350.552 1229.72 349.904 1229.48 348.994 1229.48 347.822 1229.48 346.478 1229.75 345.187 1230.27 343.949 1230.8 342.71 1231.53 341.734 1232.45 341.019 1233.37 340.304 1234.4 339.947 1235.53 339.947Z" fill-rule="evenodd"/><text fill="#000000" fill-opacity="0" font-family="Arial,Arial_MSFontService,sans-serif" font-size="11.5898" x="1229.48" y="350.088">𝑎</text><path d="M1246.82 344.867C1247.28 344.867 1247.72 344.917 1248.13 345.017 1248.54 345.116 1248.89 345.267 1249.19 345.469 1249.49 345.672 1249.72 345.923 1249.89 346.225 1250.05 346.527 1250.14 346.877 1250.14 347.276 1250.14 347.651 1250.08 347.982 1249.98 348.269 1249.87 348.556 1249.71 348.817 1249.49 349.051 1249.27 349.285 1249 349.498 1248.68 349.688 1248.36 349.879 1248 350.062 1247.58 350.237L1247.58 350.343C1247.97 350.413 1248.34 350.526 1248.68 350.681 1249.02 350.837 1249.32 351.033 1249.57 351.27 1249.83 351.507 1250.03 351.781 1250.17 352.092 1250.32 352.402 1250.39 352.745 1250.39 353.12 1250.39 353.589 1250.3 354.024 1250.13 354.425 1249.95 354.827 1249.69 355.174 1249.34 355.467 1248.99 355.76 1248.55 355.988 1248.04 356.152 1247.52 356.317 1246.92 356.399 1246.23 356.399 1245.68 356.399 1245.13 356.344 1244.57 356.236 1244 356.128 1243.47 355.985 1242.97 355.81L1242.97 353.911 1244.1 353.911C1244.19 354.204 1244.3 354.455 1244.43 354.663 1244.56 354.871 1244.71 355.041 1244.89 355.172 1245.06 355.304 1245.26 355.4 1245.48 355.458 1245.71 355.517 1245.97 355.546 1246.25 355.546 1247.01 355.546 1247.58 355.366 1247.97 355.005 1248.36 354.645 1248.56 354.099 1248.56 353.366 1248.56 352.587 1248.3 351.997 1247.79 351.595 1247.27 351.194 1246.51 350.993 1245.51 350.993L1244.73 350.993 1244.73 350.15C1245.35 350.12 1245.88 350.034 1246.33 349.89 1246.78 349.747 1247.15 349.561 1247.45 349.332 1247.75 349.104 1247.97 348.837 1248.12 348.532 1248.26 348.228 1248.34 347.902 1248.34 347.557 1248.34 346.994 1248.17 346.55 1247.83 346.225 1247.5 345.9 1247.02 345.737 1246.38 345.737 1245.85 345.737 1245.4 345.884 1245.04 346.177 1244.68 346.47 1244.41 346.906 1244.21 347.486L1243.1 347.486 1243.1 345.755C1243.79 345.462 1244.44 345.241 1245.05 345.091 1245.67 344.942 1246.25 344.867 1246.82 344.867Z" fill-rule="evenodd"/><text fill="#000000" fill-opacity="0" font-family="Arial,Arial_MSFontService,sans-serif" font-size="11.5313" x="1242.97" y="354.957">3</text><path d="M1253.51 334.416C1255.79 335.017 1257.54 336.316 1258.76 338.312 1259.99 340.308 1260.6 342.716 1260.6 345.537 1260.6 348.365 1259.99 350.773 1258.77 352.761 1257.55 354.75 1255.8 356.044 1253.51 356.646L1253.23 355.744C1255.03 355.142 1256.37 353.955 1257.25 352.181 1258.13 350.408 1258.57 348.154 1258.57 345.419 1258.57 342.779 1258.13 340.585 1257.26 338.839 1256.38 337.093 1255.03 335.919 1253.19 335.318Z" fill-rule="evenodd"/><text fill="#000000" fill-opacity="0" font-family="Arial,Arial_MSFontService,sans-serif" font-size="22.2305" x="1253.19" y="353.867">)</text><path d="M1190.53 366.083C1189.69 366.083 1188.9 366.384 1188.17 366.986 1187.44 367.587 1186.8 368.447 1186.25 369.564 1185.7 370.681 1185.27 371.908 1184.97 373.244 1184.66 374.58 1184.51 375.759 1184.51 376.783 1184.51 379.197 1185.39 380.404 1187.15 380.404 1188.23 380.404 1189.23 379.898 1190.14 378.886 1191.04 377.874 1191.77 376.474 1192.33 374.685 1192.88 372.896 1193.16 371.224 1193.16 369.669 1193.16 368.505 1192.94 367.617 1192.52 367.003 1192.09 366.39 1191.43 366.083 1190.53 366.083ZM1190.66 365.052C1192.17 365.052 1193.33 365.49 1194.15 366.365 1194.97 367.24 1195.37 368.505 1195.37 370.162 1195.37 371.255 1195.2 372.478 1194.86 373.83 1194.52 375.181 1194.04 376.374 1193.44 377.41 1192.84 378.445 1192.14 379.279 1191.35 379.912 1190.56 380.544 1189.69 380.982 1188.77 381.224 1188.94 381.794 1189.11 382.265 1189.27 382.636 1189.43 383.007 1189.58 383.308 1189.72 383.539 1189.86 383.769 1190.01 383.941 1190.15 384.054 1190.29 384.167 1190.43 384.244 1190.57 384.283 1190.71 384.322 1190.87 384.341 1191.06 384.341 1191.36 384.341 1191.66 384.255 1191.96 384.083 1192.27 383.912 1192.61 383.615 1192.98 383.193L1193.59 383.849C1192.97 384.529 1192.39 385.009 1191.85 385.29 1191.31 385.572 1190.75 385.712 1190.18 385.712 1189.53 385.712 1189.01 385.568 1188.6 385.279 1188.18 384.99 1187.83 384.529 1187.53 383.896 1187.23 383.263 1186.94 382.435 1186.66 381.412 1185.24 381.333 1184.16 380.865 1183.42 380.005 1182.68 379.146 1182.31 377.935 1182.31 376.373 1182.31 375.201 1182.51 373.876 1182.9 372.4 1183.29 370.923 1183.86 369.621 1184.61 368.492 1185.36 367.363 1186.25 366.507 1187.28 365.925 1188.32 365.343 1189.44 365.052 1190.66 365.052Z" fill-rule="evenodd"/><text fill="#000000" fill-opacity="0" font-family="Arial,Arial_MSFontService,sans-serif" font-size="20.6602" x="1182.31" y="383.13">𝑄</text><path d="M1206.79 364.302 1207.11 365.205C1205.28 365.806 1203.93 366.98 1203.05 368.726 1202.17 370.472 1201.73 372.665 1201.73 375.306 1201.73 378.04 1202.17 380.294 1203.05 382.068 1203.93 383.841 1205.27 385.029 1207.07 385.63L1206.79 386.533C1204.5 385.931 1202.75 384.636 1201.53 382.648 1200.31 380.66 1199.7 378.251 1199.7 375.423 1199.7 372.603 1200.31 370.195 1201.54 368.199 1202.76 366.203 1204.51 364.904 1206.79 364.302Z" fill-rule="evenodd"/><text fill="#000000" fill-opacity="0" font-family="Arial,Arial_MSFontService,sans-serif" font-size="22.2305" x="1199.7" y="383.754">(</text><path d="M1214.13 369.845C1214.86 369.845 1215.52 369.888 1216.12 369.974 1216.72 370.06 1217.31 370.208 1217.91 370.419L1217.38 372.88 1216.43 372.88C1216.34 372.185 1216.11 371.658 1215.74 371.298 1215.37 370.939 1214.79 370.759 1213.99 370.759 1213.37 370.759 1212.87 370.917 1212.49 371.234 1212.11 371.55 1211.92 371.966 1211.92 372.482 1211.92 372.763 1211.97 373.011 1212.06 373.226 1212.16 373.441 1212.36 373.677 1212.66 373.935 1212.95 374.193 1213.41 374.509 1214.04 374.884 1214.53 375.181 1214.92 375.453 1215.22 375.699 1215.52 375.945 1215.75 376.189 1215.92 376.431 1216.1 376.673 1216.22 376.929 1216.3 377.199 1216.38 377.468 1216.42 377.794 1216.42 378.177 1216.42 378.873 1216.23 379.468 1215.86 379.964 1215.49 380.46 1214.99 380.83 1214.35 381.072 1213.71 381.314 1212.99 381.435 1212.17 381.435 1211.53 381.435 1210.89 381.386 1210.26 381.289 1209.64 381.191 1208.94 381.025 1208.18 380.79L1208.74 378.236 1209.66 378.236C1209.69 378.986 1209.9 379.552 1210.29 379.935 1210.68 380.318 1211.3 380.509 1212.15 380.509 1212.89 380.509 1213.47 380.343 1213.89 380.011 1214.31 379.679 1214.52 379.208 1214.52 378.599 1214.52 378.248 1214.46 377.945 1214.34 377.691 1214.23 377.437 1214.03 377.193 1213.77 376.958 1213.5 376.724 1213.08 376.431 1212.5 376.08 1211.89 375.712 1211.42 375.38 1211.08 375.083 1210.74 374.787 1210.48 374.464 1210.31 374.117 1210.14 373.769 1210.05 373.369 1210.05 372.915 1210.05 372.298 1210.22 371.757 1210.55 371.292 1210.88 370.828 1211.36 370.47 1211.98 370.22 1212.59 369.97 1213.31 369.845 1214.13 369.845Z" fill-rule="evenodd"/><text fill="#000000" fill-opacity="0" font-family="Arial,Arial_MSFontService,sans-serif" font-size="11.5898" x="1208.18" y="379.986">𝑠</text><path d="M1220.82 378.517 1222.87 378.517C1222.98 379.064 1223.04 379.603 1223.04 380.134 1223.04 380.681 1222.94 381.181 1222.76 381.634 1222.57 382.087 1222.27 382.539 1221.86 382.988 1221.45 383.437 1220.89 383.931 1220.17 384.47L1219.53 383.755C1219.93 383.38 1220.22 383.042 1220.4 382.742 1220.58 382.441 1220.71 382.099 1220.79 381.716 1220.87 381.333 1220.91 380.853 1220.91 380.275 1220.91 379.681 1220.88 379.095 1220.82 378.517Z" fill-rule="evenodd"/><text fill="#000000" fill-opacity="0" font-family="Arial,Arial_MSFontService,sans-serif" font-size="5.95313" x="1219.53" y="383.726">,</text><path d="M1235.76 370.759C1234.96 370.759 1234.24 371.083 1233.6 371.732 1232.96 372.38 1232.46 373.249 1232.1 374.339 1231.74 375.429 1231.56 376.517 1231.56 377.603 1231.56 378.415 1231.67 379.023 1231.89 379.425 1232.11 379.828 1232.49 380.029 1233.01 380.029 1233.53 380.029 1234.03 379.806 1234.53 379.361 1235.02 378.915 1235.54 378.281 1236.06 377.457 1236.59 376.632 1236.96 375.681 1237.18 374.603L1237.29 374.099C1237.36 373.779 1237.41 373.501 1237.43 373.267 1237.45 373.033 1237.46 372.779 1237.46 372.505 1237.46 371.904 1237.33 371.462 1237.08 371.181 1236.82 370.9 1236.38 370.759 1235.76 370.759ZM1235.53 369.833C1236.04 369.833 1236.51 369.89 1236.95 370.003 1237.4 370.117 1237.85 370.318 1238.32 370.607L1239.4 369.833 1240.15 370.021 1238.42 377.451C1238.25 378.193 1238.17 378.771 1238.17 379.185 1238.17 379.498 1238.22 379.724 1238.32 379.865 1238.42 380.005 1238.58 380.076 1238.8 380.076 1239.03 380.076 1239.28 379.98 1239.55 379.789 1239.82 379.597 1240.19 379.232 1240.67 378.693L1241.34 379.349C1240.64 380.099 1240.04 380.632 1239.54 380.949 1239.05 381.265 1238.51 381.423 1237.93 381.423 1237.45 381.423 1237.06 381.263 1236.77 380.943 1236.48 380.623 1236.34 380.197 1236.34 379.665 1236.34 379.236 1236.43 378.779 1236.61 378.294L1236.46 378.248C1235.71 379.341 1234.99 380.142 1234.32 380.65 1233.65 381.158 1232.94 381.412 1232.19 381.412 1231.33 381.412 1230.66 381.087 1230.19 380.439 1229.72 379.79 1229.48 378.88 1229.48 377.708 1229.48 376.365 1229.75 375.074 1230.27 373.835 1230.8 372.597 1231.53 371.621 1232.45 370.906 1233.37 370.191 1234.4 369.833 1235.53 369.833Z" fill-rule="evenodd"/><text fill="#000000" fill-opacity="0" font-family="Arial,Arial_MSFontService,sans-serif" font-size="11.5898" x="1229.48" y="379.975">𝑎</text><path d="M1247.25 376.934C1246.68 377.748 1246.12 378.557 1245.56 379.359 1245 380.162 1244.44 380.968 1243.87 381.776L1243.87 381.882 1247.25 381.882 1247.25 380.115C1247.25 379.916 1247.25 379.67 1247.25 379.377 1247.26 379.084 1247.27 378.787 1247.28 378.485 1247.29 378.183 1247.3 377.896 1247.31 377.624 1247.32 377.351 1247.33 377.121 1247.34 376.934ZM1247.5 374.877 1248.9 374.877 1248.9 381.882 1249.06 381.882C1249.3 381.882 1249.49 381.87 1249.64 381.847 1249.79 381.823 1249.91 381.775 1250 381.702 1250.09 381.628 1250.17 381.526 1250.23 381.394 1250.29 381.262 1250.36 381.091 1250.43 380.88L1251.17 380.88C1251.16 381.202 1251.14 381.522 1251.12 381.838 1251.1 382.154 1251.08 382.477 1251.06 382.805L1248.9 382.805 1248.9 383.956C1248.9 384.296 1248.91 384.56 1248.92 384.747 1248.94 384.935 1248.98 385.081 1249.05 385.187 1249.13 385.292 1249.23 385.371 1249.38 385.424 1249.52 385.477 1249.72 385.538 1249.98 385.608L1249.98 386.136 1246.18 386.136 1246.18 385.608C1246.36 385.562 1246.51 385.519 1246.63 385.481 1246.75 385.443 1246.86 385.399 1246.94 385.349 1247.02 385.299 1247.08 385.241 1247.12 385.173 1247.16 385.106 1247.19 385.021 1247.21 384.919 1247.23 384.816 1247.24 384.687 1247.24 384.532 1247.24 384.377 1247.25 384.185 1247.25 383.956L1247.25 382.805 1242.3 382.805 1242.3 382.11C1243.17 380.898 1244.04 379.692 1244.9 378.494 1245.76 377.295 1246.63 376.09 1247.5 374.877Z" fill-rule="evenodd"/><text fill="#000000" fill-opacity="0" font-family="Arial,Arial_MSFontService,sans-serif" font-size="11.2588" x="1242.3" y="384.728">4</text><path d="M1253.51 364.302C1255.79 364.904 1257.54 366.203 1258.76 368.199 1259.99 370.195 1260.6 372.603 1260.6 375.423 1260.6 378.251 1259.99 380.66 1258.77 382.648 1257.55 384.636 1255.8 385.931 1253.51 386.533L1253.23 385.63C1255.03 385.029 1256.37 383.841 1257.25 382.068 1258.13 380.294 1258.57 378.04 1258.57 375.306 1258.57 372.665 1258.13 370.472 1257.26 368.726 1256.38 366.98 1255.03 365.806 1253.19 365.205Z" fill-rule="evenodd"/><text fill="#000000" fill-opacity="0" font-family="Arial,Arial_MSFontService,sans-serif" font-size="22.2305" x="1253.19" y="383.754">)</text><path d="M1190.53 395.97C1189.69 395.97 1188.9 396.271 1188.17 396.872 1187.44 397.474 1186.8 398.333 1186.25 399.451 1185.7 400.568 1185.27 401.794 1184.97 403.13 1184.66 404.466 1184.51 405.646 1184.51 406.669 1184.51 409.083 1185.39 410.29 1187.15 410.29 1188.23 410.29 1189.23 409.785 1190.14 408.773 1191.04 407.761 1191.77 406.361 1192.33 404.572 1192.88 402.783 1193.16 401.111 1193.16 399.556 1193.16 398.392 1192.94 397.503 1192.52 396.89 1192.09 396.277 1191.43 395.97 1190.53 395.97ZM1190.66 394.939C1192.17 394.939 1193.33 395.376 1194.15 396.251 1194.97 397.126 1195.37 398.392 1195.37 400.048 1195.37 401.142 1195.2 402.365 1194.86 403.716 1194.52 405.068 1194.04 406.261 1193.44 407.296 1192.84 408.331 1192.14 409.165 1191.35 409.798 1190.56 410.431 1189.69 410.869 1188.77 411.111 1188.94 411.681 1189.11 412.152 1189.27 412.523 1189.43 412.894 1189.58 413.195 1189.72 413.425 1189.86 413.656 1190.01 413.828 1190.15 413.941 1190.29 414.054 1190.43 414.13 1190.57 414.169 1190.71 414.208 1190.87 414.228 1191.06 414.228 1191.36 414.228 1191.66 414.142 1191.96 413.97 1192.27 413.798 1192.61 413.501 1192.98 413.079L1193.59 413.736C1192.97 414.415 1192.39 414.896 1191.85 415.177 1191.31 415.458 1190.75 415.599 1190.18 415.599 1189.53 415.599 1189.01 415.454 1188.6 415.165 1188.18 414.876 1187.83 414.415 1187.53 413.783 1187.23 413.15 1186.94 412.322 1186.66 411.298 1185.24 411.22 1184.16 410.751 1183.42 409.892 1182.68 409.033 1182.31 407.822 1182.31 406.259 1182.31 405.087 1182.51 403.763 1182.9 402.287 1183.29 400.81 1183.86 399.507 1184.61 398.378 1185.36 397.249 1186.25 396.394 1187.28 395.812 1188.32 395.23 1189.44 394.939 1190.66 394.939Z" fill-rule="evenodd"/><text fill="#000000" fill-opacity="0" font-family="Arial,Arial_MSFontService,sans-serif" font-size="20.6602" x="1182.31" y="413.017">𝑄</text><path d="M1206.79 394.189 1207.11 395.091C1205.28 395.693 1203.93 396.867 1203.05 398.613 1202.17 400.359 1201.73 402.552 1201.73 405.193 1201.73 407.927 1202.17 410.181 1203.05 411.954 1203.93 413.728 1205.27 414.915 1207.07 415.517L1206.79 416.419C1204.5 415.818 1202.75 414.523 1201.53 412.535 1200.31 410.546 1199.7 408.138 1199.7 405.31 1199.7 402.49 1200.31 400.081 1201.54 398.085 1202.76 396.089 1204.51 394.79 1206.79 394.189Z" fill-rule="evenodd"/><text fill="#000000" fill-opacity="0" font-family="Arial,Arial_MSFontService,sans-serif" font-size="22.2305" x="1199.7" y="413.641">(</text><path d="M1214.13 399.732C1214.86 399.732 1215.52 399.775 1216.12 399.861 1216.72 399.947 1217.31 400.095 1217.91 400.306L1217.38 402.767 1216.43 402.767C1216.34 402.072 1216.11 401.544 1215.74 401.185 1215.37 400.826 1214.79 400.646 1213.99 400.646 1213.37 400.646 1212.87 400.804 1212.49 401.121 1212.11 401.437 1211.92 401.853 1211.92 402.369 1211.92 402.65 1211.97 402.898 1212.06 403.113 1212.16 403.328 1212.36 403.564 1212.66 403.822 1212.95 404.079 1213.41 404.396 1214.04 404.771 1214.53 405.068 1214.92 405.339 1215.22 405.585 1215.52 405.831 1215.75 406.076 1215.92 406.318 1216.1 406.56 1216.22 406.816 1216.3 407.085 1216.38 407.355 1216.42 407.681 1216.42 408.064 1216.42 408.759 1216.23 409.355 1215.86 409.851 1215.49 410.347 1214.99 410.716 1214.35 410.958 1213.71 411.201 1212.99 411.322 1212.17 411.322 1211.53 411.322 1210.89 411.273 1210.26 411.175 1209.64 411.078 1208.94 410.912 1208.18 410.677L1208.74 408.122 1209.66 408.122C1209.69 408.872 1209.9 409.439 1210.29 409.822 1210.68 410.204 1211.3 410.396 1212.15 410.396 1212.89 410.396 1213.47 410.23 1213.89 409.898 1214.31 409.566 1214.52 409.095 1214.52 408.486 1214.52 408.134 1214.46 407.831 1214.34 407.578 1214.23 407.324 1214.03 407.079 1213.77 406.845 1213.5 406.611 1213.08 406.318 1212.5 405.966 1211.89 405.599 1211.42 405.267 1211.08 404.97 1210.74 404.673 1210.48 404.351 1210.31 404.003 1210.14 403.656 1210.05 403.255 1210.05 402.802 1210.05 402.185 1210.22 401.644 1210.55 401.179 1210.88 400.714 1211.36 400.357 1211.98 400.107 1212.59 399.857 1213.31 399.732 1214.13 399.732Z" fill-rule="evenodd"/><text fill="#000000" fill-opacity="0" font-family="Arial,Arial_MSFontService,sans-serif" font-size="11.5898" x="1208.18" y="409.873">𝑠</text><path d="M1220.82 408.404 1222.87 408.404C1222.98 408.951 1223.04 409.49 1223.04 410.021 1223.04 410.568 1222.94 411.068 1222.76 411.521 1222.57 411.974 1222.27 412.425 1221.86 412.874 1221.45 413.324 1220.89 413.818 1220.17 414.357L1219.53 413.642C1219.93 413.267 1220.22 412.929 1220.4 412.628 1220.58 412.328 1220.71 411.986 1220.79 411.603 1220.87 411.22 1220.91 410.74 1220.91 410.162 1220.91 409.568 1220.88 408.982 1220.82 408.404Z" fill-rule="evenodd"/><text fill="#000000" fill-opacity="0" font-family="Arial,Arial_MSFontService,sans-serif" font-size="5.95313" x="1219.53" y="413.613">,</text><path d="M1235.76 400.646C1234.96 400.646 1234.24 400.97 1233.6 401.619 1232.96 402.267 1232.46 403.136 1232.1 404.226 1231.74 405.316 1231.56 406.404 1231.56 407.49 1231.56 408.302 1231.67 408.91 1231.89 409.312 1232.11 409.714 1232.49 409.915 1233.01 409.915 1233.53 409.915 1234.03 409.693 1234.53 409.247 1235.02 408.802 1235.54 408.167 1236.06 407.343 1236.59 406.519 1236.96 405.568 1237.18 404.49L1237.29 403.986C1237.36 403.665 1237.41 403.388 1237.43 403.154 1237.45 402.919 1237.46 402.665 1237.46 402.392 1237.46 401.79 1237.33 401.349 1237.08 401.068 1236.82 400.787 1236.38 400.646 1235.76 400.646ZM1235.53 399.72C1236.04 399.72 1236.51 399.777 1236.95 399.89 1237.4 400.003 1237.85 400.204 1238.32 400.494L1239.4 399.72 1240.15 399.908 1238.42 407.337C1238.25 408.079 1238.17 408.658 1238.17 409.072 1238.17 409.384 1238.22 409.611 1238.32 409.751 1238.42 409.892 1238.58 409.962 1238.8 409.962 1239.03 409.962 1239.28 409.867 1239.55 409.675 1239.82 409.484 1240.19 409.119 1240.67 408.579L1241.34 409.236C1240.64 409.986 1240.04 410.519 1239.54 410.835 1239.05 411.152 1238.51 411.31 1237.93 411.31 1237.45 411.31 1237.06 411.15 1236.77 410.829 1236.48 410.509 1236.34 410.083 1236.34 409.552 1236.34 409.122 1236.43 408.665 1236.61 408.181L1236.46 408.134C1235.71 409.228 1234.99 410.029 1234.32 410.537 1233.65 411.044 1232.94 411.298 1232.19 411.298 1231.33 411.298 1230.66 410.974 1230.19 410.326 1229.72 409.677 1229.48 408.767 1229.48 407.595 1229.48 406.251 1229.75 404.96 1230.27 403.722 1230.8 402.484 1231.53 401.507 1232.45 400.792 1233.37 400.078 1234.4 399.72 1235.53 399.72Z" fill-rule="evenodd"/><text fill="#000000" fill-opacity="0" font-family="Arial,Arial_MSFontService,sans-serif" font-size="11.5898" x="1229.48" y="409.861">𝑎</text><path d="M1249.35 404.219 1250.14 404.219 1250.01 406.346 1244.86 406.346 1244.86 409.782C1245.17 409.677 1245.51 409.592 1245.88 409.527 1246.25 409.463 1246.63 409.431 1247 409.431 1247.54 409.431 1248.03 409.505 1248.46 409.655 1248.9 409.804 1249.27 410.018 1249.59 410.296 1249.9 410.575 1250.15 410.912 1250.32 411.307 1250.49 411.703 1250.58 412.146 1250.58 412.639 1250.58 413.201 1250.48 413.702 1250.29 414.142 1250.09 414.581 1249.82 414.955 1249.46 415.262 1249.1 415.57 1248.66 415.804 1248.14 415.965 1247.62 416.126 1247.04 416.207 1246.38 416.207 1245.87 416.207 1245.34 416.157 1244.8 416.058 1244.26 415.958 1243.7 415.812 1243.12 415.618L1243.12 413.667 1244.25 413.667C1244.42 414.259 1244.69 414.682 1245.04 414.937 1245.39 415.192 1245.85 415.319 1246.43 415.319 1247.2 415.319 1247.78 415.12 1248.17 414.722 1248.56 414.323 1248.76 413.699 1248.76 412.85 1248.76 412.035 1248.55 411.43 1248.13 411.035 1247.72 410.639 1247.13 410.441 1246.38 410.441 1246.19 410.441 1246.01 410.444 1245.84 410.45 1245.68 410.456 1245.52 410.471 1245.37 410.494 1245.21 410.518 1245.05 410.55 1244.9 410.591 1244.74 410.632 1244.57 410.679 1244.37 410.731L1243.65 410.336 1243.65 404.808 1248.52 404.808C1248.66 404.802 1248.77 404.793 1248.86 404.781 1248.94 404.77 1249.01 404.743 1249.07 404.702 1249.12 404.661 1249.17 404.604 1249.21 404.531 1249.25 404.458 1249.29 404.354 1249.35 404.219Z" fill-rule="evenodd"/><text fill="#000000" fill-opacity="0" font-family="Arial,Arial_MSFontService,sans-serif" font-size="11.9883" x="1243.12" y="414.708">5</text><path d="M1253.51 394.189C1255.79 394.79 1257.54 396.089 1258.76 398.085 1259.99 400.081 1260.6 402.49 1260.6 405.31 1260.6 408.138 1259.99 410.546 1258.77 412.535 1257.55 414.523 1255.8 415.818 1253.51 416.419L1253.23 415.517C1255.03 414.915 1256.37 413.728 1257.25 411.954 1258.13 410.181 1258.57 407.927 1258.57 405.193 1258.57 402.552 1258.13 400.359 1257.26 398.613 1256.38 396.867 1255.03 395.693 1253.19 395.091Z" fill-rule="evenodd"/><text fill="#000000" fill-opacity="0" font-family="Arial,Arial_MSFontService,sans-serif" font-size="22.2305" x="1253.19" y="413.641">)</text><path d="M1190.53 425.857C1189.69 425.857 1188.9 426.158 1188.17 426.759 1187.44 427.361 1186.8 428.22 1186.25 429.337 1185.7 430.454 1185.27 431.681 1184.97 433.017 1184.66 434.353 1184.51 435.533 1184.51 436.556 1184.51 438.97 1185.39 440.177 1187.15 440.177 1188.23 440.177 1189.23 439.671 1190.14 438.66 1191.04 437.648 1191.77 436.247 1192.33 434.458 1192.88 432.669 1193.16 430.997 1193.16 429.443 1193.16 428.279 1192.94 427.39 1192.52 426.777 1192.09 426.163 1191.43 425.857 1190.53 425.857ZM1190.66 424.826C1192.17 424.826 1193.33 425.263 1194.15 426.138 1194.97 427.013 1195.37 428.279 1195.37 429.935 1195.37 431.029 1195.2 432.251 1194.86 433.603 1194.52 434.954 1194.04 436.148 1193.44 437.183 1192.84 438.218 1192.14 439.052 1191.35 439.685 1190.56 440.318 1189.69 440.755 1188.77 440.997 1188.94 441.568 1189.11 442.038 1189.27 442.41 1189.43 442.781 1189.58 443.081 1189.72 443.312 1189.86 443.542 1190.01 443.714 1190.15 443.827 1190.29 443.941 1190.43 444.017 1190.57 444.056 1190.71 444.095 1190.87 444.115 1191.06 444.115 1191.36 444.115 1191.66 444.029 1191.96 443.857 1192.27 443.685 1192.61 443.388 1192.98 442.966L1193.59 443.622C1192.97 444.302 1192.39 444.783 1191.85 445.064 1191.31 445.345 1190.75 445.486 1190.18 445.486 1189.53 445.486 1189.01 445.341 1188.6 445.052 1188.18 444.763 1187.83 444.302 1187.53 443.669 1187.23 443.036 1186.94 442.208 1186.66 441.185 1185.24 441.107 1184.16 440.638 1183.42 439.779 1182.68 438.919 1182.31 437.708 1182.31 436.146 1182.31 434.974 1182.51 433.65 1182.9 432.173 1183.29 430.697 1183.86 429.394 1184.61 428.265 1185.36 427.136 1186.25 426.281 1187.28 425.699 1188.32 425.117 1189.44 424.826 1190.66 424.826Z" fill-rule="evenodd"/><text fill="#000000" fill-opacity="0" font-family="Arial,Arial_MSFontService,sans-serif" font-size="20.6602" x="1182.31" y="442.903">𝑄</text><path d="M1206.79 424.076 1207.11 424.978C1205.28 425.579 1203.93 426.753 1203.05 428.499 1202.17 430.245 1201.73 432.439 1201.73 435.079 1201.73 437.814 1202.17 440.068 1203.05 441.841 1203.93 443.615 1205.27 444.802 1207.07 445.404L1206.79 446.306C1204.5 445.704 1202.75 444.41 1201.53 442.421 1200.31 440.433 1199.7 438.025 1199.7 435.197 1199.7 432.376 1200.31 429.968 1201.54 427.972 1202.76 425.976 1204.51 424.677 1206.79 424.076Z" fill-rule="evenodd"/><text fill="#000000" fill-opacity="0" font-family="Arial,Arial_MSFontService,sans-serif" font-size="22.2305" x="1199.7" y="443.527">(</text><path d="M1214.13 429.618C1214.86 429.618 1215.52 429.661 1216.12 429.747 1216.72 429.833 1217.31 429.982 1217.91 430.193L1217.38 432.654 1216.43 432.654C1216.34 431.958 1216.11 431.431 1215.74 431.072 1215.37 430.712 1214.79 430.533 1213.99 430.533 1213.37 430.533 1212.87 430.691 1212.49 431.007 1212.11 431.324 1211.92 431.74 1211.92 432.255 1211.92 432.536 1211.97 432.785 1212.06 432.999 1212.16 433.214 1212.36 433.451 1212.66 433.708 1212.95 433.966 1213.41 434.283 1214.04 434.658 1214.53 434.954 1214.92 435.226 1215.22 435.472 1215.52 435.718 1215.75 435.962 1215.92 436.204 1216.1 436.447 1216.22 436.702 1216.3 436.972 1216.38 437.242 1216.42 437.568 1216.42 437.951 1216.42 438.646 1216.23 439.242 1215.86 439.738 1215.49 440.234 1214.99 440.603 1214.35 440.845 1213.71 441.087 1212.99 441.208 1212.17 441.208 1211.53 441.208 1210.89 441.16 1210.26 441.062 1209.64 440.964 1208.94 440.798 1208.18 440.564L1208.74 438.009 1209.66 438.009C1209.69 438.759 1209.9 439.326 1210.29 439.708 1210.68 440.091 1211.3 440.283 1212.15 440.283 1212.89 440.283 1213.47 440.117 1213.89 439.785 1214.31 439.452 1214.52 438.982 1214.52 438.372 1214.52 438.021 1214.46 437.718 1214.34 437.464 1214.23 437.21 1214.03 436.966 1213.77 436.732 1213.5 436.497 1213.08 436.204 1212.5 435.853 1211.89 435.486 1211.42 435.154 1211.08 434.857 1210.74 434.56 1210.48 434.238 1210.31 433.89 1210.14 433.542 1210.05 433.142 1210.05 432.689 1210.05 432.072 1210.22 431.531 1210.55 431.066 1210.88 430.601 1211.36 430.243 1211.98 429.993 1212.59 429.743 1213.31 429.618 1214.13 429.618Z" fill-rule="evenodd"/><text fill="#000000" fill-opacity="0" font-family="Arial,Arial_MSFontService,sans-serif" font-size="11.5898" x="1208.18" y="439.76">𝑠</text><path d="M1220.82 438.29 1222.87 438.29C1222.98 438.837 1223.04 439.376 1223.04 439.908 1223.04 440.454 1222.94 440.954 1222.76 441.408 1222.57 441.861 1222.27 442.312 1221.86 442.761 1221.45 443.21 1220.89 443.704 1220.17 444.243L1219.53 443.529C1219.93 443.154 1220.22 442.816 1220.4 442.515 1220.58 442.214 1220.71 441.872 1220.79 441.49 1220.87 441.107 1220.91 440.626 1220.91 440.048 1220.91 439.454 1220.88 438.868 1220.82 438.29Z" fill-rule="evenodd"/><text fill="#000000" fill-opacity="0" font-family="Arial,Arial_MSFontService,sans-serif" font-size="5.95313" x="1219.53" y="443.499">,</text><path d="M1235.76 430.533C1234.96 430.533 1234.24 430.857 1233.6 431.505 1232.96 432.154 1232.46 433.023 1232.1 434.113 1231.74 435.202 1231.56 436.29 1231.56 437.376 1231.56 438.189 1231.67 438.796 1231.89 439.199 1232.11 439.601 1232.49 439.802 1233.01 439.802 1233.53 439.802 1234.03 439.579 1234.53 439.134 1235.02 438.689 1235.54 438.054 1236.06 437.23 1236.59 436.406 1236.96 435.454 1237.18 434.376L1237.29 433.872C1237.36 433.552 1237.41 433.275 1237.43 433.04 1237.45 432.806 1237.46 432.552 1237.46 432.279 1237.46 431.677 1237.33 431.236 1237.08 430.954 1236.82 430.673 1236.38 430.533 1235.76 430.533ZM1235.53 429.607C1236.04 429.607 1236.51 429.663 1236.95 429.777 1237.4 429.89 1237.85 430.091 1238.32 430.38L1239.4 429.607 1240.15 429.794 1238.42 437.224C1238.25 437.966 1238.17 438.544 1238.17 438.958 1238.17 439.271 1238.22 439.497 1238.32 439.638 1238.42 439.779 1238.58 439.849 1238.8 439.849 1239.03 439.849 1239.28 439.753 1239.55 439.562 1239.82 439.37 1240.19 439.005 1240.67 438.466L1241.34 439.122C1240.64 439.872 1240.04 440.406 1239.54 440.722 1239.05 441.038 1238.51 441.197 1237.93 441.197 1237.45 441.197 1237.06 441.036 1236.77 440.716 1236.48 440.396 1236.34 439.97 1236.34 439.439 1236.34 439.009 1236.43 438.552 1236.61 438.068L1236.46 438.021C1235.71 439.115 1234.99 439.915 1234.32 440.423 1233.65 440.931 1232.94 441.185 1232.19 441.185 1231.33 441.185 1230.66 440.861 1230.19 440.212 1229.72 439.564 1229.48 438.654 1229.48 437.482 1229.48 436.138 1229.75 434.847 1230.27 433.609 1230.8 432.37 1231.53 431.394 1232.45 430.679 1233.37 429.964 1234.4 429.607 1235.53 429.607Z" fill-rule="evenodd"/><text fill="#000000" fill-opacity="0" font-family="Arial,Arial_MSFontService,sans-serif" font-size="11.5898" x="1229.48" y="439.748">𝑎</text><path d="M1247.18 440.082C1246.78 440.082 1246.42 440.135 1246.09 440.24 1245.76 440.346 1245.44 440.489 1245.15 440.671 1245.02 440.753 1244.93 440.829 1244.86 440.899 1244.79 440.97 1244.74 441.053 1244.71 441.15 1244.68 441.247 1244.66 441.367 1244.64 441.51 1244.63 441.654 1244.63 441.849 1244.63 442.095 1244.63 444.169 1245.38 445.206 1246.89 445.206 1247.3 445.206 1247.65 445.146 1247.94 445.026 1248.24 444.906 1248.48 444.733 1248.67 444.507 1248.86 444.282 1249 444.003 1249.08 443.672 1249.17 443.341 1249.21 442.965 1249.21 442.543 1249.21 441.758 1249.04 441.151 1248.69 440.724 1248.34 440.296 1247.83 440.082 1247.18 440.082ZM1249.5 434.527C1249.58 434.609 1249.64 434.688 1249.7 434.765 1249.76 434.841 1249.82 434.917 1249.89 434.993L1249.89 435.512C1249.18 435.5 1248.54 435.594 1247.98 435.793 1247.41 435.992 1246.91 436.284 1246.47 436.667 1246.04 437.051 1245.68 437.523 1245.38 438.082 1245.09 438.642 1244.86 439.273 1244.7 439.977L1244.79 440.02C1245.03 439.856 1245.27 439.714 1245.51 439.594 1245.74 439.474 1245.98 439.374 1246.22 439.295 1246.46 439.216 1246.71 439.159 1246.96 439.124 1247.22 439.089 1247.5 439.071 1247.79 439.071 1248.31 439.071 1248.76 439.147 1249.16 439.3 1249.55 439.452 1249.89 439.675 1250.16 439.968 1250.44 440.261 1250.65 440.612 1250.79 441.022 1250.93 441.433 1251 441.89 1251 442.394 1251 442.927 1250.91 443.422 1250.74 443.879 1250.56 444.336 1250.3 444.728 1249.94 445.057 1249.59 445.385 1249.16 445.64 1248.64 445.821 1248.12 446.003 1247.51 446.094 1246.82 446.094 1245.5 446.094 1244.5 445.717 1243.83 444.964 1243.16 444.211 1242.83 443.103 1242.83 441.638 1242.83 440.981 1242.9 440.353 1243.04 439.752 1243.19 439.152 1243.41 438.592 1243.69 438.074 1243.98 437.555 1244.32 437.086 1244.72 436.667 1245.13 436.249 1245.58 435.885 1246.08 435.578 1246.58 435.27 1247.11 435.027 1247.69 434.848 1248.27 434.669 1248.88 434.562 1249.5 434.527Z" fill-rule="evenodd"/><text fill="#000000" fill-opacity="0" font-family="Arial,Arial_MSFontService,sans-serif" font-size="11.5664" x="1242.83" y="444.648">6</text><path d="M1253.51 424.076C1255.79 424.677 1257.54 425.976 1258.76 427.972 1259.99 429.968 1260.6 432.376 1260.6 435.197 1260.6 438.025 1259.99 440.433 1258.77 442.421 1257.55 444.41 1255.8 445.704 1253.51 446.306L1253.23 445.404C1255.03 444.802 1256.37 443.615 1257.25 441.841 1258.13 440.068 1258.57 437.814 1258.57 435.079 1258.57 432.439 1258.13 430.245 1257.26 428.499 1256.38 426.753 1255.03 425.579 1253.19 424.978Z" fill-rule="evenodd"/><text fill="#000000" fill-opacity="0" font-family="Arial,Arial_MSFontService,sans-serif" font-size="22.2305" x="1253.19" y="443.527">)</text><path d="M1190.53 455.743C1189.69 455.743 1188.9 456.044 1188.17 456.646 1187.44 457.247 1186.8 458.107 1186.25 459.224 1185.7 460.341 1185.27 461.568 1184.97 462.904 1184.66 464.24 1184.51 465.419 1184.51 466.443 1184.51 468.857 1185.39 470.064 1187.15 470.064 1188.23 470.064 1189.23 469.558 1190.14 468.546 1191.04 467.534 1191.77 466.134 1192.33 464.345 1192.88 462.556 1193.16 460.884 1193.16 459.329 1193.16 458.165 1192.94 457.277 1192.52 456.663 1192.09 456.05 1191.43 455.743 1190.53 455.743ZM1190.66 454.712C1192.17 454.712 1193.33 455.15 1194.15 456.025 1194.97 456.9 1195.37 458.165 1195.37 459.822 1195.37 460.915 1195.2 462.138 1194.86 463.49 1194.52 464.841 1194.04 466.034 1193.44 467.07 1192.84 468.105 1192.14 468.939 1191.35 469.572 1190.56 470.204 1189.69 470.642 1188.77 470.884 1188.94 471.454 1189.11 471.925 1189.27 472.296 1189.43 472.667 1189.58 472.968 1189.72 473.199 1189.86 473.429 1190.01 473.601 1190.15 473.714 1190.29 473.827 1190.43 473.904 1190.57 473.943 1190.71 473.982 1190.87 474.001 1191.06 474.001 1191.36 474.001 1191.66 473.915 1191.96 473.743 1192.27 473.572 1192.61 473.275 1192.98 472.853L1193.59 473.509C1192.97 474.189 1192.39 474.669 1191.85 474.951 1191.31 475.232 1190.75 475.372 1190.18 475.372 1189.53 475.372 1189.01 475.228 1188.6 474.939 1188.18 474.65 1187.83 474.189 1187.53 473.556 1187.23 472.923 1186.94 472.095 1186.66 471.072 1185.24 470.993 1184.16 470.525 1183.42 469.665 1182.68 468.806 1182.31 467.595 1182.31 466.033 1182.31 464.861 1182.51 463.536 1182.9 462.06 1183.29 460.583 1183.86 459.281 1184.61 458.152 1185.36 457.023 1186.25 456.167 1187.28 455.585 1188.32 455.003 1189.44 454.712 1190.66 454.712Z" fill-rule="evenodd"/><text fill="#000000" fill-opacity="0" font-family="Arial,Arial_MSFontService,sans-serif" font-size="20.6602" x="1182.31" y="472.79">𝑄</text><path d="M1206.79 453.962 1207.11 454.865C1205.28 455.466 1203.93 456.64 1203.05 458.386 1202.17 460.132 1201.73 462.326 1201.73 464.966 1201.73 467.701 1202.17 469.954 1203.05 471.728 1203.93 473.501 1205.27 474.689 1207.07 475.29L1206.79 476.193C1204.5 475.591 1202.75 474.296 1201.53 472.308 1200.31 470.32 1199.7 467.911 1199.7 465.083 1199.7 462.263 1200.31 459.855 1201.54 457.859 1202.76 455.863 1204.51 454.564 1206.79 453.962Z" fill-rule="evenodd"/><text fill="#000000" fill-opacity="0" font-family="Arial,Arial_MSFontService,sans-serif" font-size="22.2305" x="1199.7" y="473.414">(</text><path d="M1214.13 459.505C1214.86 459.505 1215.52 459.548 1216.12 459.634 1216.72 459.72 1217.31 459.868 1217.91 460.079L1217.38 462.54 1216.43 462.54C1216.34 461.845 1216.11 461.318 1215.74 460.958 1215.37 460.599 1214.79 460.419 1213.99 460.419 1213.37 460.419 1212.87 460.577 1212.49 460.894 1212.11 461.21 1211.92 461.626 1211.92 462.142 1211.92 462.423 1211.97 462.671 1212.06 462.886 1212.16 463.101 1212.36 463.337 1212.66 463.595 1212.95 463.853 1213.41 464.169 1214.04 464.544 1214.53 464.841 1214.92 465.113 1215.22 465.359 1215.52 465.605 1215.75 465.849 1215.92 466.091 1216.1 466.333 1216.22 466.589 1216.3 466.859 1216.38 467.128 1216.42 467.454 1216.42 467.837 1216.42 468.533 1216.23 469.128 1215.86 469.624 1215.49 470.12 1214.99 470.49 1214.35 470.732 1213.71 470.974 1212.99 471.095 1212.17 471.095 1211.53 471.095 1210.89 471.046 1210.26 470.949 1209.64 470.851 1208.94 470.685 1208.18 470.451L1208.74 467.896 1209.66 467.896C1209.69 468.646 1209.9 469.212 1210.29 469.595 1210.68 469.978 1211.3 470.169 1212.15 470.169 1212.89 470.169 1213.47 470.003 1213.89 469.671 1214.31 469.339 1214.52 468.868 1214.52 468.259 1214.52 467.908 1214.46 467.605 1214.34 467.351 1214.23 467.097 1214.03 466.853 1213.77 466.618 1213.5 466.384 1213.08 466.091 1212.5 465.74 1211.89 465.372 1211.42 465.04 1211.08 464.743 1210.74 464.447 1210.48 464.124 1210.31 463.777 1210.14 463.429 1210.05 463.029 1210.05 462.576 1210.05 461.958 1210.22 461.417 1210.55 460.952 1210.88 460.488 1211.36 460.13 1211.98 459.88 1212.59 459.63 1213.31 459.505 1214.13 459.505Z" fill-rule="evenodd"/><text fill="#000000" fill-opacity="0" font-family="Arial,Arial_MSFontService,sans-serif" font-size="11.5898" x="1208.18" y="469.646">𝑠</text><path d="M1220.82 468.177 1222.87 468.177C1222.98 468.724 1223.04 469.263 1223.04 469.794 1223.04 470.341 1222.94 470.841 1222.76 471.294 1222.57 471.747 1222.27 472.199 1221.86 472.648 1221.45 473.097 1220.89 473.591 1220.17 474.13L1219.53 473.415C1219.93 473.04 1220.22 472.702 1220.4 472.402 1220.58 472.101 1220.71 471.759 1220.79 471.376 1220.87 470.993 1220.91 470.513 1220.91 469.935 1220.91 469.341 1220.88 468.755 1220.82 468.177Z" fill-rule="evenodd"/><text fill="#000000" fill-opacity="0" font-family="Arial,Arial_MSFontService,sans-serif" font-size="5.95313" x="1219.53" y="473.386">,</text><path d="M1235.76 460.419C1234.96 460.419 1234.24 460.743 1233.6 461.392 1232.96 462.04 1232.46 462.909 1232.1 463.999 1231.74 465.089 1231.56 466.177 1231.56 467.263 1231.56 468.076 1231.67 468.683 1231.89 469.085 1232.11 469.488 1232.49 469.689 1233.01 469.689 1233.53 469.689 1234.03 469.466 1234.53 469.021 1235.02 468.576 1235.54 467.941 1236.06 467.117 1236.59 466.292 1236.96 465.341 1237.18 464.263L1237.29 463.759C1237.36 463.439 1237.41 463.161 1237.43 462.927 1237.45 462.693 1237.46 462.439 1237.46 462.165 1237.46 461.564 1237.33 461.122 1237.08 460.841 1236.82 460.56 1236.38 460.419 1235.76 460.419ZM1235.53 459.493C1236.04 459.493 1236.51 459.55 1236.95 459.663 1237.4 459.777 1237.85 459.978 1238.32 460.267L1239.4 459.493 1240.15 459.681 1238.42 467.111C1238.25 467.853 1238.17 468.431 1238.17 468.845 1238.17 469.158 1238.22 469.384 1238.32 469.525 1238.42 469.665 1238.58 469.736 1238.8 469.736 1239.03 469.736 1239.28 469.64 1239.55 469.449 1239.82 469.257 1240.19 468.892 1240.67 468.353L1241.34 469.009C1240.64 469.759 1240.04 470.292 1239.54 470.609 1239.05 470.925 1238.51 471.083 1237.93 471.083 1237.45 471.083 1237.06 470.923 1236.77 470.603 1236.48 470.283 1236.34 469.857 1236.34 469.326 1236.34 468.896 1236.43 468.439 1236.61 467.954L1236.46 467.908C1235.71 469.001 1234.99 469.802 1234.32 470.31 1233.65 470.818 1232.94 471.072 1232.19 471.072 1231.33 471.072 1230.66 470.747 1230.19 470.099 1229.72 469.451 1229.48 468.54 1229.48 467.368 1229.48 466.025 1229.75 464.734 1230.27 463.495 1230.8 462.257 1231.53 461.281 1232.45 460.566 1233.37 459.851 1234.4 459.493 1235.53 459.493Z" fill-rule="evenodd"/><text fill="#000000" fill-opacity="0" font-family="Arial,Arial_MSFontService,sans-serif" font-size="11.5898" x="1229.48" y="469.635">𝑎</text><path d="M1243.24 464.581 1250.88 464.581 1250.88 465.003 1245.73 475.84 1244.38 475.84 1244.38 475.444 1249.11 466.251 1249.11 466.119 1245.38 466.119C1245.13 466.119 1244.92 466.14 1244.78 466.181 1244.64 466.222 1244.51 466.28 1244.4 466.356 1244.35 466.397 1244.31 466.44 1244.28 466.484 1244.24 466.528 1244.21 466.586 1244.17 466.66 1244.13 466.733 1244.1 466.829 1244.06 466.95 1244.02 467.07 1243.98 467.224 1243.92 467.411L1243.04 467.411Z" fill-rule="evenodd"/><text fill="#000000" fill-opacity="0" font-family="Arial,Arial_MSFontService,sans-serif" font-size="11.2588" x="1243.04" y="474.432">7</text><path d="M1253.51 453.962C1255.79 454.564 1257.54 455.863 1258.76 457.859 1259.99 459.855 1260.6 462.263 1260.6 465.083 1260.6 467.911 1259.99 470.32 1258.77 472.308 1257.55 474.296 1255.8 475.591 1253.51 476.193L1253.23 475.29C1255.03 474.689 1256.37 473.501 1257.25 471.728 1258.13 469.954 1258.57 467.701 1258.57 464.966 1258.57 462.326 1258.13 460.132 1257.26 458.386 1256.38 456.64 1255.03 455.466 1253.19 454.865Z" fill-rule="evenodd"/><text fill="#000000" fill-opacity="0" font-family="Arial,Arial_MSFontService,sans-serif" font-size="22.2305" x="1253.19" y="473.414">)</text><path d="M1097 399 1139.57 399 1139.57 401 1097 401ZM1138.23 396 1146.23 400 1138.23 404Z"/><path d="M1098 309 1140.57 309 1140.57 311 1098 311ZM1139.23 306 1147.23 310 1139.23 314Z"/><path d="M1098 224 1140.57 224 1140.57 226 1098 226ZM1139.23 221 1147.23 225 1139.23 229Z"/></g></svg>