<svg width="1280" height="720" xmlns="http://www.w3.org/2000/svg" xmlns:xlink="http://www.w3.org/1999/xlink" overflow="hidden"><defs><clipPath id="clip0"><path d="M0 0 1280 0 1280 720 0 720Z" fill-rule="evenodd" clip-rule="evenodd"/></clipPath><clipPath id="clip1"><path d="M42 176 620 176 620 583 42 583Z" fill-rule="evenodd" clip-rule="evenodd"/></clipPath><clipPath id="clip2"><path d="M42 176 620 176 620 583 42 583Z" fill-rule="evenodd" clip-rule="evenodd"/></clipPath><clipPath id="clip3"><path d="M-105 145 776 145 776 642-105 642Z" fill-rule="evenodd" clip-rule="evenodd"/></clipPath><clipPath id="clip4"><path d="M-105 145 776 145 776 642-105 642Z" fill-rule="evenodd" clip-rule="evenodd"/></clipPath><clipPath id="clip5"><path d="M10 211 660 211 660 577 10 577Z" fill-rule="evenodd" clip-rule="evenodd"/></clipPath><clipPath id="clip6"><path d="M10 211 660 211 660 577 10 577Z" fill-rule="evenodd" clip-rule="evenodd"/></clipPath><clipPath id="clip7"><path d="M10 211 660 211 660 577 10 577Z" fill-rule="evenodd" clip-rule="evenodd"/></clipPath><clipPath id="clip8"><path d="M10 211 660 211 660 577 10 577Z" fill-rule="evenodd" clip-rule="evenodd"/></clipPath><clipPath id="clip9"><path d="M660 177 1238 177 1238 584 660 584Z" fill-rule="evenodd" clip-rule="evenodd"/></clipPath><clipPath id="clip10"><path d="M660 177 1238 177 1238 584 660 584Z" fill-rule="evenodd" clip-rule="evenodd"/></clipPath><clipPath id="clip11"><path d="M513 146 1394 146 1394 643 513 643Z" fill-rule="evenodd" clip-rule="evenodd"/></clipPath><clipPath id="clip12"><path d="M513 146 1394 146 1394 643 513 643Z" fill-rule="evenodd" clip-rule="evenodd"/></clipPath><clipPath id="clip13"><path d="M628 212 1278 212 1278 578 628 578Z" fill-rule="evenodd" clip-rule="evenodd"/></clipPath><clipPath id="clip14"><path d="M628 212 1278 212 1278 578 628 578Z" fill-rule="evenodd" clip-rule="evenodd"/></clipPath><clipPath id="clip15"><path d="M628 212 1278 212 1278 578 628 578Z" fill-rule="evenodd" clip-rule="evenodd"/></clipPath><clipPath id="clip16"><path d="M628 212 1278 212 1278 578 628 578Z" fill-rule="evenodd" clip-rule="evenodd"/></clipPath></defs><g clip-path="url(#clip0)"><rect x="0" y="0" width="1280" height="720" fill="#FFFFFF"/><text font-family="Calibri,Calibri_MSFontService,sans-serif" font-weight="400" font-size="24" transform="translate(229.986 164)">Policy<tspan x="62.02" y="0">Networ</tspan>k</text><g clip-path="url(#clip1)"><g clip-path="url(#clip2)"><g clip-path="url(#clip3)"><g clip-path="url(#clip4)"><path d="M0 0 880.105 0 880.105 495.059 0 495.059Z" fill="#FFFFFF" transform="matrix(1 0 -0 1.00071 -104.757 145.973)"/><g clip-path="url(#clip5)"><g clip-path="url(#clip6)"><g clip-path="url(#clip7)"><g clip-path="url(#clip8)"><path d="M0 0 648.316 0 648.316 364.678 0 364.678Z" fill="#FFFFFF" transform="matrix(1.00118 0 -0 1 10.7563 211.34)"/><path d="M48.6237 113.962C48.6237 103.892 56.7874 95.7279 66.8576 95.7279 76.9277 95.7279 85.0917 103.892 85.0917 113.962 85.0917 124.032 76.9277 132.196 66.8576 132.196 56.7874 132.196 48.6237 124.032 48.6237 113.962Z" stroke="#FFFFFF" stroke-width="1.01299" stroke-miterlimit="8" fill="#A5A5A5" fill-rule="evenodd" transform="matrix(1.00118 0 -0 1 10.7563 211.34)"/><path d="M48.6237 159.293C48.6237 149.363 56.7874 141.313 66.8576 141.313 76.9277 141.313 85.0917 149.363 85.0917 159.293 85.0917 169.223 76.9277 177.274 66.8576 177.274 56.7874 177.274 48.6237 169.223 48.6237 159.293Z" stroke="#FFFFFF" stroke-width="1.01299" stroke-miterlimit="8" fill="#A5A5A5" fill-rule="evenodd" transform="matrix(1.00118 0 -0 1 10.7563 211.34)"/><path d="M48.6237 204.625C48.6237 194.555 56.7874 186.391 66.8576 186.391 76.9277 186.391 85.0917 194.555 85.0917 204.625 85.0917 214.695 76.9277 222.859 66.8576 222.859 56.7874 222.859 48.6237 214.695 48.6237 204.625Z" stroke="#FFFFFF" stroke-width="1.01299" stroke-miterlimit="8" fill="#A5A5A5" fill-rule="evenodd" transform="matrix(1.00118 0 -0 1 10.7563 211.34)"/><path d="M48.1172 249.956C48.1172 240.026 56.2809 231.976 66.3511 231.976 76.4213 231.976 84.5852 240.026 84.5852 249.956 84.5852 259.886 76.4213 267.937 66.3511 267.937 56.2809 267.937 48.1172 259.886 48.1172 249.956Z" stroke="#FFFFFF" stroke-width="1.01299" stroke-miterlimit="8" fill="#A5A5A5" fill-rule="evenodd" transform="matrix(1.00118 0 -0 1 10.7563 211.34)"/><path d="M191.456 113.962C191.456 103.892 199.506 95.7279 209.436 95.7279 219.367 95.7279 227.417 103.892 227.417 113.962 227.417 124.032 219.367 132.196 209.436 132.196 199.506 132.196 191.456 124.032 191.456 113.962Z" stroke="#FFFFFF" stroke-width="1.01299" stroke-miterlimit="8" fill="#A5A5A5" fill-rule="evenodd" transform="matrix(1.00118 0 -0 1 10.7563 211.34)"/><path d="M191.456 159.293C191.456 149.363 199.506 141.313 209.436 141.313 219.367 141.313 227.417 149.363 227.417 159.293 227.417 169.223 219.367 177.274 209.436 177.274 199.506 177.274 191.456 169.223 191.456 159.293Z" stroke="#FFFFFF" stroke-width="1.01299" stroke-miterlimit="8" fill="#A5A5A5" fill-rule="evenodd" transform="matrix(1.00118 0 -0 1 10.7563 211.34)"/><path d="M191.456 204.625C191.456 194.555 199.506 186.391 209.436 186.391 219.367 186.391 227.417 194.555 227.417 204.625 227.417 214.695 219.367 222.859 209.436 222.859 199.506 222.859 191.456 214.695 191.456 204.625Z" stroke="#FFFFFF" stroke-width="1.01299" stroke-miterlimit="8" fill="#A5A5A5" fill-rule="evenodd" transform="matrix(1.00118 0 -0 1 10.7563 211.34)"/><path d="M190.949 249.956C190.949 240.026 199 231.976 208.93 231.976 218.86 231.976 226.911 240.026 226.911 249.956 226.911 259.886 218.86 267.937 208.93 267.937 199 267.937 190.949 259.886 190.949 249.956Z" stroke="#FFFFFF" stroke-width="1.01299" stroke-miterlimit="8" fill="#A5A5A5" fill-rule="evenodd" transform="matrix(1.00118 0 -0 1 10.7563 211.34)"/><path d="M191.456 68.377C191.456 58.3069 199.506 50.1432 209.436 50.1432 219.367 50.1432 227.417 58.3069 227.417 68.377 227.417 78.447 219.367 86.6109 209.436 86.6109 199.506 86.6109 191.456 78.447 191.456 68.377Z" stroke="#FFFFFF" stroke-width="1.01299" stroke-miterlimit="8" fill="#A5A5A5" fill-rule="evenodd" transform="matrix(1.00118 0 -0 1 10.7563 211.34)"/><path d="M191.456 295.541C191.456 285.611 199.506 277.56 209.436 277.56 219.367 277.56 227.417 285.611 227.417 295.541 227.417 305.471 219.367 313.522 209.436 313.522 199.506 313.522 191.456 305.471 191.456 295.541Z" stroke="#FFFFFF" stroke-width="1.01299" stroke-miterlimit="8" fill="#A5A5A5" fill-rule="evenodd" transform="matrix(1.00118 0 -0 1 10.7563 211.34)"/><path d="M308.457 113.962C308.457 103.892 316.506 95.7279 326.437 95.7279 336.368 95.7279 344.418 103.892 344.418 113.962 344.418 124.032 336.368 132.196 326.437 132.196 316.506 132.196 308.457 124.032 308.457 113.962Z" stroke="#FFFFFF" stroke-width="1.01299" stroke-miterlimit="8" fill="#A5A5A5" fill-rule="evenodd" transform="matrix(1.00118 0 -0 1 10.7563 211.34)"/><path d="M308.457 159.293C308.457 149.363 316.506 141.313 326.437 141.313 336.368 141.313 344.418 149.363 344.418 159.293 344.418 169.223 336.368 177.274 326.437 177.274 316.506 177.274 308.457 169.223 308.457 159.293Z" stroke="#FFFFFF" stroke-width="1.01299" stroke-miterlimit="8" fill="#A5A5A5" fill-rule="evenodd" transform="matrix(1.00118 0 -0 1 10.7563 211.34)"/><path d="M308.457 204.625C308.457 194.555 316.506 186.391 326.437 186.391 336.368 186.391 344.418 194.555 344.418 204.625 344.418 214.695 336.368 222.859 326.437 222.859 316.506 222.859 308.457 214.695 308.457 204.625Z" stroke="#FFFFFF" stroke-width="1.01299" stroke-miterlimit="8" fill="#A5A5A5" fill-rule="evenodd" transform="matrix(1.00118 0 -0 1 10.7563 211.34)"/><path d="M307.95 249.956C307.95 240.026 316 231.976 325.931 231.976 335.861 231.976 343.911 240.026 343.911 249.956 343.911 259.886 335.861 267.937 325.931 267.937 316 267.937 307.95 259.886 307.95 249.956Z" stroke="#FFFFFF" stroke-width="1.01299" stroke-miterlimit="8" fill="#A5A5A5" fill-rule="evenodd" transform="matrix(1.00118 0 -0 1 10.7563 211.34)"/><path d="M308.457 68.377C308.457 58.3069 316.506 50.1432 326.437 50.1432 336.368 50.1432 344.418 58.3069 344.418 68.377 344.418 78.447 336.368 86.6109 326.437 86.6109 316.506 86.6109 308.457 78.447 308.457 68.377Z" stroke="#FFFFFF" stroke-width="1.01299" stroke-miterlimit="8" fill="#A5A5A5" fill-rule="evenodd" transform="matrix(1.00118 0 -0 1 10.7563 211.34)"/><path d="M308.457 295.541C308.457 285.611 316.506 277.56 326.437 277.56 336.368 277.56 344.418 285.611 344.418 295.541 344.418 305.471 336.368 313.522 326.437 313.522 316.506 313.522 308.457 305.471 308.457 295.541Z" stroke="#FFFFFF" stroke-width="1.01299" stroke-miterlimit="8" fill="#A5A5A5" fill-rule="evenodd" transform="matrix(1.00118 0 -0 1 10.7563 211.34)"/><path d="M415.327 113.962C415.327 103.892 423.378 95.7279 433.308 95.7279 443.238 95.7279 451.288 103.892 451.288 113.962 451.288 124.032 443.238 132.196 433.308 132.196 423.378 132.196 415.327 124.032 415.327 113.962Z" stroke="#FFFFFF" stroke-width="1.01299" stroke-miterlimit="8" fill="#A5A5A5" fill-rule="evenodd" transform="matrix(1.00118 0 -0 1 10.7563 211.34)"/><path d="M415.327 159.293C415.327 149.363 423.378 141.313 433.308 141.313 443.238 141.313 451.288 149.363 451.288 159.293 451.288 169.223 443.238 177.274 433.308 177.274 423.378 177.274 415.327 169.223 415.327 159.293Z" stroke="#FFFFFF" stroke-width="1.01299" stroke-miterlimit="8" fill="#A5A5A5" fill-rule="evenodd" transform="matrix(1.00118 0 -0 1 10.7563 211.34)"/><path d="M415.327 204.625C415.327 194.555 423.378 186.391 433.308 186.391 443.238 186.391 451.288 194.555 451.288 204.625 451.288 214.695 443.238 222.859 433.308 222.859 423.378 222.859 415.327 214.695 415.327 204.625Z" stroke="#FFFFFF" stroke-width="1.01299" stroke-miterlimit="8" fill="#A5A5A5" fill-rule="evenodd" transform="matrix(1.00118 0 -0 1 10.7563 211.34)"/><path d="M414.314 249.956C414.314 240.026 422.478 231.976 432.548 231.976 442.618 231.976 450.782 240.026 450.782 249.956 450.782 259.886 442.618 267.937 432.548 267.937 422.478 267.937 414.314 259.886 414.314 249.956Z" stroke="#FFFFFF" stroke-width="1.01299" stroke-miterlimit="8" fill="#A5A5A5" fill-rule="evenodd" transform="matrix(1.00118 0 -0 1 10.7563 211.34)"/><path d="M415.327 68.377C415.327 58.3069 423.378 50.1432 433.308 50.1432 443.238 50.1432 451.288 58.3069 451.288 68.377 451.288 78.447 443.238 86.6109 433.308 86.6109 423.378 86.6109 415.327 78.447 415.327 68.377Z" stroke="#FFFFFF" stroke-width="1.01299" stroke-miterlimit="8" fill="#A5A5A5" fill-rule="evenodd" transform="matrix(1.00118 0 -0 1 10.7563 211.34)"/><path d="M415.327 295.541C415.327 285.611 423.378 277.56 433.308 277.56 443.238 277.56 451.288 285.611 451.288 295.541 451.288 305.471 443.238 313.522 433.308 313.522 423.378 313.522 415.327 305.471 415.327 295.541Z" stroke="#FFFFFF" stroke-width="1.01299" stroke-miterlimit="8" fill="#A5A5A5" fill-rule="evenodd" transform="matrix(1.00118 0 -0 1 10.7563 211.34)"/><path d="M550.562 113.962C550.562 103.892 558.727 95.7279 568.796 95.7279 578.865 95.7279 587.03 103.892 587.03 113.962 587.03 124.032 578.865 132.196 568.796 132.196 558.727 132.196 550.562 124.032 550.562 113.962Z" stroke="#FFFFFF" stroke-width="1.01299" stroke-miterlimit="8" fill="#A5A5A5" fill-rule="evenodd" transform="matrix(1.00118 0 -0 1 10.7563 211.34)"/><path d="M550.056 249.956C550.056 240.026 558.22 231.976 568.289 231.976 578.359 231.976 586.523 240.026 586.523 249.956 586.523 259.886 578.359 267.937 568.289 267.937 558.22 267.937 550.056 259.886 550.056 249.956Z" stroke="#FFFFFF" stroke-width="1.01299" stroke-miterlimit="8" fill="#A5A5A5" fill-rule="evenodd" transform="matrix(1.00118 0 -0 1 10.7563 211.34)"/><path d="M415.327 340.872C415.327 330.802 423.378 322.639 433.308 322.639 443.238 322.639 451.288 330.802 451.288 340.872 451.288 350.942 443.238 359.106 433.308 359.106 423.378 359.106 415.327 350.942 415.327 340.872Z" stroke="#FFFFFF" stroke-width="1.01299" stroke-miterlimit="8" fill="#A5A5A5" fill-rule="evenodd" transform="matrix(1.00118 0 -0 1 10.7563 211.34)"/><path d="M414.314 23.0456C414.314 13.1152 422.478 5.06497 432.548 5.06497 442.618 5.06497 450.782 13.1152 450.782 23.0456 450.782 32.976 442.618 41.0262 432.548 41.0262 422.478 41.0262 414.314 32.976 414.314 23.0456Z" stroke="#FFFFFF" stroke-width="1.01299" stroke-miterlimit="8" fill="#A5A5A5" fill-rule="evenodd" transform="matrix(1.00118 0 -0 1 10.7563 211.34)"/><path d="M0.198669-0.465907 103.557 43.6075 103.16 44.5393-0.198669 0.465907ZM103.531 41.9449 106.464 45.3978 101.942 45.6721Z" transform="matrix(1.00118 8.75258e-08 8.74228e-08 -1 95.9477 325.114)"/><path d="M85.0917 113.455 188.178 113.455 188.178 114.468 85.0917 114.468ZM187.503 111.936 191.555 113.962 187.503 115.987Z" transform="matrix(1.00118 0 -0 1 10.7563 211.34)"/><path d="M85.2898 113.496 188.648 157.569 188.251 158.501 84.8928 114.428ZM188.623 155.907 191.555 159.359 187.033 159.634Z" transform="matrix(1.00118 0 -0 1 10.7563 211.34)"/><path d="M85.4199 113.576 189.314 202.181 188.657 202.952 84.7628 114.347ZM189.787 200.586 191.555 204.758 187.158 203.67Z" transform="matrix(1.00118 0 -0 1 10.7563 211.34)"/><path d="M85.4907 113.651 189.321 247.179 188.522 247.801 84.6919 114.273ZM190.106 245.713 190.994 250.155 186.908 248.2Z" transform="matrix(1.00118 0 -0 1 10.7563 211.34)"/><path d="M85.5286 113.706 190.285 292.385 189.411 292.897 84.654 114.218ZM191.254 291.033 191.555 295.553 187.758 293.082Z" transform="matrix(1.00118 0 -0 1 10.7563 211.34)"/><path d="M85.4907 158.728 189.875 292.262 189.077 292.885 84.6926 159.352ZM190.656 290.793 191.555 295.233 187.464 293.289Z" transform="matrix(1.00118 0 -0 1 10.7563 211.34)"/><path d="M85.4212 158.655 188.76 247.253 188.101 248.022 84.7614 159.425ZM189.237 245.66 190.994 249.836 186.599 248.736Z" transform="matrix(1.00118 0 -0 1 10.7563 211.34)"/><path d="M85.2898 158.574 188.648 202.647 188.251 203.58 84.8928 159.506ZM188.623 200.985 191.555 204.438 187.033 204.712Z" transform="matrix(1.00118 0 -0 1 10.7563 211.34)"/><path d="M85.0917 158.534 188.178 158.534 188.178 159.546 85.0917 159.546ZM187.503 157.014 191.555 159.04 187.503 161.066Z" transform="matrix(1.00118 0 -0 1 10.7563 211.34)"/><path d="M0.198669-0.465907 103.557 43.6075 103.16 44.5393-0.198669 0.465907ZM103.531 41.9449 106.464 45.3978 101.942 45.6721Z" transform="matrix(1.00118 8.75258e-08 8.74228e-08 -1 95.9477 370.699)"/><path d="M0.328664-0.385381 104.223 88.2189 103.566 88.9903-0.328664 0.385381ZM104.696 86.6247 106.464 90.7958 102.066 89.7079Z" transform="matrix(1.00118 8.75258e-08 8.74228e-08 -1 95.9477 370.513)"/><path d="M0.399043-0.311936 104.784 133.222 103.986 133.846-0.399043 0.311936ZM105.565 131.753 106.464 136.193 102.373 134.249Z" transform="matrix(1.00118 8.75258e-08 8.74228e-08 -1 95.9477 415.91)"/><path d="M0.328664-0.385381 104.223 88.2189 103.566 88.9903-0.328664 0.385381ZM104.696 86.6247 106.464 90.7958 102.066 89.7079Z" transform="matrix(1.00118 8.75258e-08 8.74228e-08 -1 95.9477 416.097)"/><path d="M0.198669-0.465907 103.557 43.6075 103.16 44.5393-0.198669 0.465907ZM103.531 41.9449 106.464 45.3978 101.942 45.6721Z" transform="matrix(1.00118 8.75258e-08 8.74228e-08 -1 95.9477 415.777)"/><path d="M85.0917 204.118 188.178 204.118 188.178 205.131 85.0917 205.131ZM187.503 202.598 191.555 204.625 187.503 206.65Z" transform="matrix(1.00118 0 -0 1 10.7563 211.34)"/><path d="M85.2912 204.159 188.09 248.227 187.691 249.158 84.8921 205.09ZM188.068 246.564 190.994 250.022 186.472 250.289Z" transform="matrix(1.00118 0 -0 1 10.7563 211.34)"/><path d="M85.4199 204.239 189.314 292.844 188.657 293.614 84.7628 205.01ZM189.787 291.249 191.555 295.421 187.158 294.333Z" transform="matrix(1.00118 0 -0 1 10.7563 211.34)"/><path d="M84.7827 249.743 188.699 293.822 188.304 294.754 84.3871 250.676ZM188.672 292.16 191.611 295.607 187.089 295.89Z" transform="matrix(1.00118 0 -0 1 10.7563 211.34)"/><path d="M84.5852 249.703 187.672 249.703 187.672 250.716 84.5852 250.716ZM186.997 248.183 191.049 250.209 186.997 252.235Z" transform="matrix(1.00118 0 -0 1 10.7563 211.34)"/><path d="M0.197787-0.466282 104.115 43.6129 103.719 44.5454-0.197787 0.466282ZM104.087 41.9504 107.026 45.3978 102.504 45.6807Z" transform="matrix(1.00118 8.75258e-08 8.74228e-08 -1 95.4409 461.362)"/><path d="M0.327663-0.386233 104.779 88.2251 104.123 88.9978-0.327663 0.386233ZM105.247 86.6295 107.026 90.7958 102.625 89.7196Z" transform="matrix(1.00118 8.75258e-08 8.74228e-08 -1 95.4409 461.176)"/><path d="M0.398244-0.312954 105.337 133.226 104.541 133.851-0.398244 0.312954ZM106.115 131.756 107.026 136.193 102.929 134.26Z" transform="matrix(1.00118 8.75258e-08 8.74228e-08 -1 95.4409 461.495)"/><path d="M0.436349-0.257173 105.748 178.426 104.874 178.94-0.436349 0.257173ZM106.714 177.072 107.026 181.591 103.222 179.129Z" transform="matrix(1.00118 8.75258e-08 8.74228e-08 -1 95.4409 461.308)"/><path d="M227.417 67.8706 304.844 67.8706 304.844 68.8835 227.417 68.8835ZM304.169 66.3511 308.221 68.377 304.169 70.4027Z" transform="matrix(1.00118 0 -0 1 10.7563 211.34)"/><path d="M227.665 67.9354 305.524 111.679 305.029 112.562 227.169 68.8188ZM305.68 110.024 308.221 113.775 303.695 113.556Z" transform="matrix(1.00118 0 -0 1 10.7563 211.34)"/><path d="M227.796 68.0402 306.354 156.314 305.597 156.987 227.039 68.7139ZM307.04 154.799 308.221 159.173 304.013 157.493Z" transform="matrix(1.00118 0 -0 1 10.7563 211.34)"/><path d="M227.853 68.1187 306.933 201.408 306.061 201.925 226.982 68.6353ZM307.895 200.052 308.221 204.57 304.411 202.119Z" transform="matrix(1.00118 0 -0 1 10.7563 211.34)"/><path d="M227.88 68.1724 306.758 246.676 305.831 247.086 226.953 68.5817ZM307.875 245.443 307.659 249.968 304.168 247.081Z" transform="matrix(1.00118 0 -0 1 10.7563 211.34)"/><path d="M227.894 68.2074 307.565 292.015 306.611 292.354 226.94 68.5467ZM308.77 290.87 308.221 295.366 304.953 292.229Z" transform="matrix(1.00118 0 -0 1 10.7563 211.34)"/><path d="M0.248091-0.441576 78.1071 43.3023 77.6116 44.1854-0.248091 0.441576ZM78.2632 41.6468 80.8036 45.3978 76.2782 45.1794Z" transform="matrix(1.00118 8.75258e-08 8.74228e-08 -1 238.441 325.114)"/><path d="M227.417 113.455 304.844 113.455 304.844 114.468 227.417 114.468ZM304.169 111.936 308.221 113.962 304.169 115.987Z" transform="matrix(1.00118 0 -0 1 10.7563 211.34)"/><path d="M227.665 113.52 305.524 157.264 305.029 158.147 227.169 114.403ZM305.68 155.609 308.221 159.359 303.695 159.141Z" transform="matrix(1.00118 0 -0 1 10.7563 211.34)"/><path d="M227.796 113.625 306.354 201.899 305.597 202.572 227.039 114.299ZM307.04 200.383 308.221 204.758 304.013 203.077Z" transform="matrix(1.00118 0 -0 1 10.7563 211.34)"/><path d="M227.853 113.704 306.381 246.989 305.508 247.504 226.98 114.219ZM307.348 245.636 307.659 250.155 303.856 247.692Z" transform="matrix(1.00118 0 -0 1 10.7563 211.34)"/><path d="M227.88 113.755 307.311 292.263 306.386 292.675 226.954 114.168ZM308.424 291.027 308.221 295.553 304.722 292.674Z" transform="matrix(1.00118 0 -0 1 10.7563 211.34)"/><path d="M227.417 158.534 304.844 158.534 304.844 159.546 227.417 159.546ZM304.169 157.014 308.221 159.04 304.169 161.066Z" transform="matrix(1.00118 0 -0 1 10.7563 211.34)"/><path d="M0.378362-0.336721 78.9369 87.9368 78.18 88.6098-0.378362 0.336721ZM79.6229 86.4217 80.8036 90.7958 76.5961 89.1155Z" transform="matrix(1.00118 8.75258e-08 8.74228e-08 -1 238.441 370.513)"/><path d="M0.248091-0.441576 78.1071 43.3023 77.6116 44.1854-0.248091 0.441576ZM78.2632 41.6468 80.8036 45.3978 76.2782 45.1794Z" transform="matrix(1.00118 8.75258e-08 8.74228e-08 -1 238.441 370.699)"/><path d="M227.665 158.598 305.524 202.342 305.029 203.225 227.169 159.482ZM305.68 200.687 308.221 204.438 303.695 204.219Z" transform="matrix(1.00118 0 -0 1 10.7563 211.34)"/><path d="M227.665 158.598 305.524 202.342 305.029 203.225 227.169 159.482ZM305.68 200.687 308.221 204.438 303.695 204.219Z" transform="matrix(1.00118 0 -0 1 10.7563 211.34)"/><path d="M227.796 158.705 305.802 246.97 305.043 247.641 227.038 159.375ZM306.494 245.458 307.659 249.836 303.458 248.141Z" transform="matrix(1.00118 0 -0 1 10.7563 211.34)"/><path d="M227.853 158.781 306.933 292.071 306.061 292.588 226.982 159.298ZM307.895 290.715 308.221 295.233 304.411 292.782Z" transform="matrix(1.00118 0 -0 1 10.7563 211.34)"/><path d="M227.796 204.288 306.354 292.562 305.597 293.234 227.039 204.961ZM307.04 291.046 308.221 295.421 304.013 293.74Z" transform="matrix(1.00118 0 -0 1 10.7563 211.34)"/><path d="M227.666 204.184 304.97 247.919 304.471 248.801 227.168 205.065ZM305.13 246.264 307.659 250.022 303.134 249.79Z" transform="matrix(1.00118 0 -0 1 10.7563 211.34)"/><path d="M227.417 204.118 304.844 204.118 304.844 205.131 227.417 205.131ZM304.169 202.598 308.221 204.625 304.169 206.65Z" transform="matrix(1.00118 0 -0 1 10.7563 211.34)"/><path d="M0.248091-0.441576 78.1071 43.3023 77.6116 44.1854-0.248091 0.441576ZM78.2632 41.6468 80.8036 45.3978 76.2782 45.1794Z" transform="matrix(1.00118 8.75258e-08 8.74228e-08 -1 238.441 415.777)"/><path d="M0.378362-0.336721 78.9369 87.9368 78.18 88.6098-0.378362 0.336721ZM79.6229 86.4217 80.8036 90.7958 76.5961 89.1155Z" transform="matrix(1.00118 8.75258e-08 8.74228e-08 -1 238.441 416.097)"/><path d="M0.4356-0.25844 79.5162 133.031 78.6444 133.548-0.4356 0.25844ZM80.4781 131.675 80.8036 136.193 76.9938 133.742Z" transform="matrix(1.00118 8.75258e-08 8.74228e-08 -1 238.441 415.91)"/><path d="M227.157 249.767 305.574 293.52 305.08 294.404 226.664 250.651ZM305.724 291.864 308.275 295.607 303.75 295.402Z" transform="matrix(1.00118 0 -0 1 10.7563 211.34)"/><path d="M226.911 249.703 304.337 249.703 304.337 250.716 226.911 250.716ZM303.662 248.183 307.714 250.209 303.662 252.235Z" transform="matrix(1.00118 0 -0 1 10.7563 211.34)"/><path d="M0.246787-0.442306 78.663 43.3103 78.169 44.1949-0.246787 0.442306ZM78.8137 41.6543 81.3644 45.3978 76.8389 45.1928Z" transform="matrix(1.00118 8.75258e-08 8.74228e-08 -1 237.933 461.362)"/><path d="M0.377201-0.338021 79.4887 87.943 78.7346 88.6194-0.377201 0.338021ZM80.1692 86.4258 81.3644 90.7958 77.1513 89.13Z" transform="matrix(1.00118 8.75258e-08 8.74228e-08 -1 237.933 461.176)"/><path d="M0.434811-0.259765 80.0681 133.036 79.1983 133.555-0.434811 0.259765ZM81.0259 131.676 81.3644 136.193 77.547 133.754Z" transform="matrix(1.00118 8.75258e-08 8.74228e-08 -1 237.933 461.495)"/><path d="M0.462219-0.207105 80.4465 178.303 79.5217 178.717-0.462219 0.207105ZM81.5564 177.065 81.3644 181.591 77.8594 178.722Z" transform="matrix(1.00118 8.75258e-08 8.74228e-08 -1 237.933 461.308)"/><path d="M227.417 294.781 304.844 294.781 304.844 295.794 227.417 295.794ZM304.169 293.261 308.221 295.288 304.169 297.313Z" transform="matrix(1.00118 0 -0 1 10.7563 211.34)"/><path d="M0.249407-0.440835 77.5525 43.2943 77.0536 44.176-0.249407 0.440835ZM77.7128 41.6392 80.2421 45.3978 75.7174 45.1659Z" transform="matrix(1.00118 8.75258e-08 8.74228e-08 -1 238.441 506.947)"/><path d="M0.378362-0.336721 78.9369 87.9368 78.18 88.6098-0.378362 0.336721ZM79.6229 86.4217 80.8036 90.7958 76.5961 89.1155Z" transform="matrix(1.00118 8.75258e-08 8.74228e-08 -1 238.441 506.76)"/><path d="M0.4356-0.25844 79.5162 133.031 78.6444 133.548-0.4356 0.25844ZM80.4781 131.675 80.8036 136.193 76.9938 133.742Z" transform="matrix(1.00118 8.75258e-08 8.74228e-08 -1 238.441 506.573)"/><path d="M0.462752-0.205912 79.894 178.301 78.9685 178.713-0.462752 0.205912ZM81.0073 177.065 80.8036 181.591 77.3048 178.713Z" transform="matrix(1.00118 8.75258e-08 8.74228e-08 -1 238.441 506.893)"/><path d="M0.477165-0.169861 80.1479 223.637 79.1935 223.977-0.477165 0.169861ZM81.3527 222.493 80.8036 226.989 77.536 223.851Z" transform="matrix(1.00118 8.75258e-08 8.74228e-08 -1 238.441 506.706)"/><path d="M344.693 294.862 412.337 338.431 411.789 339.283 344.143 295.714ZM412.592 336.788 414.902 340.685 410.398 340.195Z" transform="matrix(1.00118 0 -0 1 10.7563 211.34)"/><path d="M344.418 294.781 411.526 294.781 411.526 295.794 344.418 295.794ZM410.85 293.261 414.902 295.288 410.85 297.313Z" transform="matrix(1.00118 0 -0 1 10.7563 211.34)"/><path d="M0.275813-0.424813 67.3666 43.1343 66.815 43.9839-0.275813 0.424813ZM67.6275 41.4921 69.9231 45.3978 65.4212 44.8906Z" transform="matrix(1.00118 8.75258e-08 8.74228e-08 -1 355.579 506.947)"/><path d="M0.400092-0.310589 68.814 87.8178 68.0139 88.4391-0.400092 0.310589ZM69.5997 86.3529 70.4839 90.7958 66.3992 88.8375Z" transform="matrix(1.00118 8.75258e-08 8.74228e-08 -1 355.579 506.76)"/><path d="M0.449826-0.232798 69.3816 132.962 68.4824 133.427-0.449826 0.232798ZM70.4213 131.664 70.4839 136.193 66.8226 133.526Z" transform="matrix(1.00118 8.75258e-08 8.74228e-08 -1 355.579 506.573)"/><path d="M0.472176-0.183274 69.7346 178.261 68.7904 178.627-0.472176 0.183274ZM70.9064 177.081 70.4839 181.591 67.129 178.547Z" transform="matrix(1.00118 8.75258e-08 8.74228e-08 -1 355.579 506.893)"/><path d="M0.483713-0.150202 69.9665 223.615 68.9991 223.915-0.483713 0.150202ZM71.2174 222.519 70.4839 226.989 67.3478 223.72Z" transform="matrix(1.00118 8.75258e-08 8.74228e-08 -1 355.579 506.706)"/><path d="M0.49059-0.125936 69.5736 268.989 68.5923 269.241-0.49059 0.125936ZM70.8775 267.958 69.9231 272.387 66.9528 268.966Z" transform="matrix(1.00118 8.75258e-08 8.74228e-08 -1 355.579 507.025)"/><path d="M344.311 249.897 413.275 338.033 412.477 338.657 343.512 250.521ZM414.056 336.566 414.957 341.005 410.864 339.063Z" transform="matrix(1.00118 0 -0 1 10.7563 211.34)"/><path d="M344.183 249.782 412.384 293.362 411.839 294.216 343.638 250.636ZM412.633 291.718 414.957 295.607 410.452 295.132Z" transform="matrix(1.00118 0 -0 1 10.7563 211.34)"/><path d="M343.911 249.703 411.019 249.703 411.019 250.716 343.911 250.716ZM410.343 248.183 414.396 250.209 410.343 252.235Z" transform="matrix(1.00118 0 -0 1 10.7563 211.34)"/><path d="M0.272724-0.426802 68.4728 43.1528 67.9273 44.0065-0.272724 0.426802ZM68.722 41.5088 71.0461 45.3978 66.5405 44.9233Z" transform="matrix(1.00118 8.75258e-08 8.74228e-08 -1 355.072 461.362)"/><path d="M0.398894-0.312125 69.3631 87.824 68.5654 88.4488-0.398894 0.312125ZM70.144 86.3563 71.0461 90.7958 66.9528 88.8533Z" transform="matrix(1.00118 8.75258e-08 8.74228e-08 -1 355.072 461.176)"/><path d="M0.449069-0.234257 69.9328 132.966 69.0342 133.434-0.449069 0.234257ZM70.9676 131.664 71.0461 136.193 67.3752 133.538Z" transform="matrix(1.00118 8.75258e-08 8.74228e-08 -1 355.072 461.495)"/><path d="M0.471682-0.18454 70.2871 178.262 69.3438 178.631-0.471682 0.18454ZM71.4562 177.08 71.0461 181.591 67.6826 178.556Z" transform="matrix(1.00118 8.75258e-08 8.74228e-08 -1 355.072 461.308)"/><path d="M0.483713-0.150202 69.9665 223.615 68.9991 223.915-0.483713 0.150202ZM71.2174 222.519 70.4839 226.989 67.3478 223.72Z" transform="matrix(1.00118 8.75258e-08 8.74228e-08 -1 355.072 461.628)"/><path d="M344.867 204.391 413.8 337.587 412.9 338.052 343.968 204.857ZM414.839 336.288 414.902 340.818 411.24 338.151Z" transform="matrix(1.00118 0 -0 1 10.7563 211.34)"/><path d="M344.818 204.314 413.231 292.443 412.432 293.064 344.018 204.935ZM414.018 290.977 414.902 295.421 410.817 293.462Z" transform="matrix(1.00118 0 -0 1 10.7563 211.34)"/><path d="M344.694 204.199 411.784 247.759 411.232 248.609 344.141 205.049ZM412.045 246.117 414.34 250.022 409.839 249.515Z" transform="matrix(1.00118 0 -0 1 10.7563 211.34)"/><path d="M344.418 204.118 411.526 204.118 411.526 205.131 344.418 205.131ZM410.85 202.598 414.902 204.625 410.85 206.65Z" transform="matrix(1.00118 0 -0 1 10.7563 211.34)"/><path d="M0.274262-0.425816 67.9197 43.1436 67.3712 43.9952-0.274262 0.425816ZM68.1745 41.5004 70.4839 45.3978 65.9808 44.907Z" transform="matrix(1.00118 8.75258e-08 8.74228e-08 -1 355.579 415.777)"/><path d="M0.400092-0.310589 68.814 87.8178 68.0139 88.4391-0.400092 0.310589ZM69.5997 86.3529 70.4839 90.7958 66.3992 88.8375Z" transform="matrix(1.00118 8.75258e-08 8.74228e-08 -1 355.579 416.097)"/><path d="M0.449826-0.232798 69.3816 132.962 68.4824 133.427-0.449826 0.232798ZM70.4213 131.664 70.4839 136.193 66.8226 133.526Z" transform="matrix(1.00118 8.75258e-08 8.74228e-08 -1 355.579 415.91)"/><path d="M0.472667-0.182003 69.1821 178.258 68.2367 178.622-0.472667 0.182003ZM70.3573 177.082 69.9231 181.591 66.576 178.538Z" transform="matrix(1.00118 8.75258e-08 8.74228e-08 -1 355.579 416.23)"/><path d="M0.450582-0.231332 68.8312 132.958 67.9298 133.421-0.450582 0.231332ZM69.8743 131.663 69.9231 136.193 66.27 133.514Z" transform="matrix(1.00118 8.75258e-08 8.74228e-08 -1 355.579 370.832)"/><path d="M0.400092-0.310589 68.814 87.8178 68.0139 88.4391-0.400092 0.310589ZM69.5997 86.3529 70.4839 90.7958 66.3992 88.8375Z" transform="matrix(1.00118 8.75258e-08 8.74228e-08 -1 355.579 370.513)"/><path d="M0.274262-0.425816 67.9197 43.1436 67.3712 43.9952-0.274262 0.425816ZM68.1745 41.5004 70.4839 45.3978 65.9808 44.907Z" transform="matrix(1.00118 8.75258e-08 8.74228e-08 -1 355.579 370.699)"/><path d="M344.418 158.534 411.526 158.534 411.526 159.546 344.418 159.546ZM410.85 157.014 414.902 159.04 410.85 161.066Z" transform="matrix(1.00118 0 -0 1 10.7563 211.34)"/><path d="M344.693 158.614 412.337 202.183 411.789 203.035 344.143 159.466ZM412.592 200.54 414.902 204.438 410.398 203.947Z" transform="matrix(1.00118 0 -0 1 10.7563 211.34)"/><path d="M344.819 158.731 412.682 246.851 411.879 247.47 344.017 159.349ZM413.473 245.389 414.34 249.836 410.263 247.861Z" transform="matrix(1.00118 0 -0 1 10.7563 211.34)"/><path d="M344.867 158.807 413.8 292.002 412.9 292.467 343.968 159.273ZM414.839 290.704 414.902 295.233 411.24 292.566Z" transform="matrix(1.00118 0 -0 1 10.7563 211.34)"/><path d="M344.89 158.856 414.152 337.301 413.208 337.667 343.945 159.223ZM415.324 336.121 414.902 340.631 411.547 337.587Z" transform="matrix(1.00118 0 -0 1 10.7563 211.34)"/><path d="M0.401291-0.309038 68.2636 87.8116 67.4613 88.4295-0.401291 0.309038ZM69.0555 86.3488 69.9231 90.7958 65.8456 88.821Z" transform="matrix(1.00118 8.75258e-08 8.74228e-08 -1 355.579 325.434)"/><path d="M0.274262-0.425816 67.9197 43.1436 67.3712 43.9952-0.274262 0.425816ZM68.1745 41.5004 70.4839 45.3978 65.9808 44.907Z" transform="matrix(1.00118 8.75258e-08 8.74228e-08 -1 355.579 325.114)"/><path d="M344.418 113.455 411.526 113.455 411.526 114.468 344.418 114.468ZM410.85 111.936 414.902 113.962 410.85 115.987Z" transform="matrix(1.00118 0 -0 1 10.7563 211.34)"/><path d="M344.693 113.536 412.337 157.105 411.789 157.957 344.143 114.388ZM412.592 155.462 414.902 159.359 410.398 158.869Z" transform="matrix(1.00118 0 -0 1 10.7563 211.34)"/><path d="M344.818 113.651 413.231 201.78 412.432 202.401 344.018 114.272ZM414.018 200.315 414.902 204.758 410.817 202.799Z" transform="matrix(1.00118 0 -0 1 10.7563 211.34)"/><path d="M344.869 113.731 413.249 246.92 412.348 247.383 343.967 114.193ZM414.292 245.625 414.34 250.155 410.688 247.476Z" transform="matrix(1.00118 0 -0 1 10.7563 211.34)"/><path d="M344.869 113.731 413.249 246.92 412.348 247.383 343.967 114.193ZM414.292 245.625 414.34 250.155 410.688 247.476Z" transform="matrix(1.00118 0 -0 1 10.7563 211.34)"/><path d="M344.89 113.779 414.152 292.222 413.208 292.588 343.945 114.145ZM415.324 291.042 414.902 295.553 411.547 292.509Z" transform="matrix(1.00118 0 -0 1 10.7563 211.34)"/><path d="M344.902 113.811 414.384 337.577 413.417 337.877 343.934 114.112ZM415.635 336.48 414.902 340.951 411.766 337.682Z" transform="matrix(1.00118 0 -0 1 10.7563 211.34)"/><path d="M0.275813-0.424813 67.3666 43.1343 66.815 43.9839-0.275813 0.424813ZM67.6275 41.4921 69.9231 45.3978 65.4212 44.8906Z" transform="matrix(1.00118 8.75258e-08 8.74228e-08 -1 355.579 280.036)"/><path d="M344.418 67.8706 411.526 67.8706 411.526 68.8835 344.418 68.8835ZM410.85 66.3511 414.902 68.377 410.85 70.4027Z" transform="matrix(1.00118 0 -0 1 10.7563 211.34)"/><path d="M344.693 67.9511 412.337 111.52 411.789 112.372 344.143 68.803ZM412.592 109.877 414.902 113.775 410.398 113.284Z" transform="matrix(1.00118 0 -0 1 10.7563 211.34)"/><path d="M344.818 68.0666 413.231 156.195 412.432 156.816 344.018 68.6875ZM414.018 154.73 414.902 159.173 410.817 157.215Z" transform="matrix(1.00118 0 -0 1 10.7563 211.34)"/><path d="M344.867 68.1441 413.8 201.339 412.9 201.804 343.968 68.61ZM414.839 200.041 414.902 204.57 411.24 201.903Z" transform="matrix(1.00118 0 -0 1 10.7563 211.34)"/><path d="M344.89 68.1952 413.599 246.635 412.655 246.999 343.945 68.5589ZM414.775 245.459 414.34 249.968 410.994 246.915Z" transform="matrix(1.00118 0 -0 1 10.7563 211.34)"/><path d="M344.902 68.2266 414.384 291.992 413.417 292.292 343.934 68.5275ZM415.635 290.896 414.902 295.366 411.766 292.097Z" transform="matrix(1.00118 0 -0 1 10.7563 211.34)"/><path d="M344.908 68.2499 414.546 337.368 413.566 337.622 343.927 68.5042ZM415.849 336.333 414.902 340.764 411.925 337.349Z" transform="matrix(1.00118 0 -0 1 10.7563 211.34)"/><path d="M0.342555-0.373088 96.7441 88.1391 96.0588 88.885-0.342555 0.373088ZM97.274 86.5628 98.8882 90.7958 94.5334 89.5476Z" transform="matrix(1.00118 8.75258e-08 8.74228e-08 -1 462.575 552.345)"/><path d="M0.463924-0.203257 98.5586 223.693 97.6311 224.099-0.463924 0.203257ZM99.6795 222.465 99.4496 226.989 95.968 224.091Z" transform="matrix(1.00118 8.75258e-08 8.74228e-08 -1 462.575 552.291)"/><path d="M0.211318-0.460308 96.0313 43.5288 95.6081 44.4494-0.211318 0.460308ZM96.0513 41.866 98.8882 45.3978 94.3607 45.5485Z" transform="matrix(1.00118 8.75258e-08 8.74228e-08 -1 462.575 506.947)"/><path d="M0.444239-0.243291 98.273 178.388 97.384 178.874-0.444239 0.243291ZM99.2804 177.064 99.4496 181.591 95.7265 179.011Z" transform="matrix(1.00118 8.75258e-08 8.74228e-08 -1 462.575 506.893)"/><path d="M0.408247-0.299789 98.4217 133.173 97.6049 133.773-0.408247 0.299789ZM99.246 131.728 100.011 136.193 95.9804 134.127Z" transform="matrix(1.00118 8.75258e-08 8.74228e-08 -1 462.068 461.495)"/><path d="M450.782 249.703 546.854 249.703 546.854 250.716 450.782 250.716ZM546.18 248.183 550.232 250.209 546.18 252.235Z" transform="matrix(1.00118 0 -0 1 10.7563 211.34)"/><path d="M451.5 204.164 547.32 248.153 546.895 249.074 451.077 205.085ZM547.34 246.49 550.177 250.022 545.649 250.174Z" transform="matrix(1.00118 0 -0 1 10.7563 211.34)"/><path d="M0.210332-0.46076 96.5886 43.5349 96.1682 44.4564-0.210332 0.46076ZM96.6051 41.8721 99.4496 45.3978 94.9228 45.5582Z" transform="matrix(1.00118 8.75258e-08 8.74228e-08 -1 462.575 370.699)"/><path d="M0.341502-0.374053 97.298 88.1453 96.6148 88.8933-0.341502 0.374053ZM97.823 86.5676 99.4496 90.7958 95.0914 89.56Z" transform="matrix(1.00118 8.75258e-08 8.74228e-08 -1 462.575 416.097)"/><path d="M451.631 158.666 548.035 247.179 547.345 247.925 450.946 159.413ZM548.561 245.603 550.177 249.836 545.821 248.588Z" transform="matrix(1.00118 0 -0 1 10.7563 211.34)"/><path d="M451.288 113.455 547.361 113.455 547.361 114.468 451.288 114.468ZM546.687 111.936 550.739 113.962 546.687 115.987Z" transform="matrix(1.00118 0 -0 1 10.7563 211.34)"/><path d="M451.699 113.664 548.602 247.125 547.781 247.721 450.878 114.26ZM549.438 245.686 550.177 250.155 546.156 248.067Z" transform="matrix(1.00118 0 -0 1 10.7563 211.34)"/><path d="M451.733 68.1349 549.007 246.761 548.115 247.245 450.844 68.6192ZM550.02 245.441 550.177 249.968 546.459 247.379Z" transform="matrix(1.00118 0 -0 1 10.7563 211.34)"/><path d="M451.498 67.9161 547.877 111.912 547.457 112.833 451.079 68.8381ZM547.892 110.249 550.739 113.775 546.211 113.936Z" transform="matrix(1.00118 0 -0 1 10.7563 211.34)"/><path d="M451.123 22.9238 548.632 111.45 547.953 112.2 450.441 23.6738ZM549.154 109.87 550.795 114.095 546.429 112.87Z" transform="matrix(1.00118 0 -0 1 10.7563 211.34)"/><path d="M451.246 23.0956 549.341 246.991 548.414 247.398 450.318 23.5021ZM550.461 245.764 550.232 250.288 546.748 247.39Z" transform="matrix(1.00118 0 -0 1 10.7563 211.34)"/><text font-family="Calibri,Calibri_MSFontService,sans-serif" font-weight="400" font-size="24" transform="matrix(3.10504e-17 0.506497 -0.507092 3.1014e-17 576.472 385)">……</text></g></g></g></g><text font-family="Calibri,Calibri_MSFontService,sans-serif" font-weight="400" font-size="19" transform="matrix(0.687582 0 0 0.688071 65.9017 295)">Input<tspan x="174.447" y="-61.0402">Convolutional</tspan><tspan x="335.301" y="-61.0402">Convolutional</tspan><tspan x="525.825" y="-132.254">Dense</tspan><tspan x="718.913" y="0">Output</tspan></text></g></g></g></g><text font-family="Calibri,Calibri_MSFontService,sans-serif" font-weight="400" font-size="24" transform="translate(864.445 164)">Target Network</text><path d="M386 156 429.688 156 451.128 156.063 472.063 156.063 492.316 156.125 511.627 156.125 530.003 156.188 547.129 156.25 547.125 156.25 555.188 156.25 562.879 156.25 570.196 156.313 570.188 156.313 577.13 156.313 583.572 156.375 583.563 156.375 589.631 156.375 595.199 156.438 595.188 156.438 600.257 156.438 604.764 156.5 604.75 156.5 608.822 156.5 612.268 156.563 612.25 156.563 615.139 156.563 617.403 156.625 617.375 156.625 619 156.625 620.161 156.625 620.571 156.707 620.375 156.688 620.717 156.688 621.809 156.752 621.75 156.75 623.389 156.75 625.653 156.813 625.625 156.813 628.509 156.813 631.956 156.875 631.938 156.875 635.944 156.875 640.514 156.938 640.5 156.938 645.568 156.938 651.136 157 651.125 157 657.13 157 663.635 157.063 663.625 157.063 670.504 157.063 677.821 157.125 677.813 157.125 685.5 157.125 693.564 157.125 710.691 157.188 729.066 157.25 729.063 157.25 748.438 157.25 768.628 157.313 789.563 157.313 810.94 157.375 848.021 157.375 848.021 159.375 810.935 159.375 789.563 159.313 768.622 159.313 748.438 159.25 729.061 159.25 710.684 159.188 693.559 159.125 693.563 159.125 685.5 159.125 677.808 159.125 670.491 159.062 670.5 159.063 663.62 159.063 657.115 159 657.125 159 651.119 159 645.551 158.937 645.563 158.938 640.493 158.938 635.924 158.875 635.938 158.875 631.928 158.875 628.482 158.812 628.5 158.813 625.611 158.813 623.347 158.75 623.375 158.75 621.721 158.75 620.629 158.686 620.688 158.688 620.276 158.688 619.866 158.606 620.063 158.625 619 158.625 617.361 158.625 615.097 158.562 615.125 158.563 612.241 158.563 608.794 158.5 608.813 158.5 604.743 158.5 600.236 158.437 600.25 158.438 595.182 158.438 589.614 158.375 589.625 158.375 583.558 158.375 577.115 158.312 577.125 158.313 570.183 158.313 562.866 158.25 562.875 158.25 555.188 158.25 547.123 158.25 529.997 158.188 511.622 158.125 511.625 158.125 492.309 158.125 472.063 158.063 451.122 158.063 429.688 158 386 158ZM846.687 154.375 854.687 158.375 846.687 162.375Z"/><text font-family="Calibri,Calibri_MSFontService,sans-serif" font-weight="400" font-size="24" transform="translate(574.19 144)">Copy weights </text><g clip-path="url(#clip9)"><g clip-path="url(#clip10)"><g clip-path="url(#clip11)"><g clip-path="url(#clip12)"><path d="M0 0 880.105 0 880.105 495.059 0 495.059Z" fill="#FFFFFF" transform="matrix(1 0 -0 1.00071 513.243 146.973)"/><g clip-path="url(#clip13)"><g clip-path="url(#clip14)"><g clip-path="url(#clip15)"><g clip-path="url(#clip16)"><path d="M0 0 648.316 0 648.316 364.678 0 364.678Z" fill="#FFFFFF" transform="matrix(1.00118 0 -0 1 628.756 212.34)"/><path d="M48.6237 113.962C48.6237 103.892 56.7874 95.7279 66.8576 95.7279 76.9277 95.7279 85.0917 103.892 85.0917 113.962 85.0917 124.032 76.9277 132.196 66.8576 132.196 56.7874 132.196 48.6237 124.032 48.6237 113.962Z" stroke="#FFFFFF" stroke-width="1.01299" stroke-miterlimit="8" fill="#A5A5A5" fill-rule="evenodd" transform="matrix(1.00118 0 -0 1 628.756 212.34)"/><path d="M48.6237 159.293C48.6237 149.363 56.7874 141.313 66.8576 141.313 76.9277 141.313 85.0917 149.363 85.0917 159.293 85.0917 169.223 76.9277 177.274 66.8576 177.274 56.7874 177.274 48.6237 169.223 48.6237 159.293Z" stroke="#FFFFFF" stroke-width="1.01299" stroke-miterlimit="8" fill="#A5A5A5" fill-rule="evenodd" transform="matrix(1.00118 0 -0 1 628.756 212.34)"/><path d="M48.6237 204.625C48.6237 194.555 56.7874 186.391 66.8576 186.391 76.9277 186.391 85.0917 194.555 85.0917 204.625 85.0917 214.695 76.9277 222.859 66.8576 222.859 56.7874 222.859 48.6237 214.695 48.6237 204.625Z" stroke="#FFFFFF" stroke-width="1.01299" stroke-miterlimit="8" fill="#A5A5A5" fill-rule="evenodd" transform="matrix(1.00118 0 -0 1 628.756 212.34)"/><path d="M48.1172 249.956C48.1172 240.026 56.2809 231.976 66.3511 231.976 76.4213 231.976 84.5852 240.026 84.5852 249.956 84.5852 259.886 76.4213 267.937 66.3511 267.937 56.2809 267.937 48.1172 259.886 48.1172 249.956Z" stroke="#FFFFFF" stroke-width="1.01299" stroke-miterlimit="8" fill="#A5A5A5" fill-rule="evenodd" transform="matrix(1.00118 0 -0 1 628.756 212.34)"/><path d="M191.456 113.962C191.456 103.892 199.506 95.7279 209.436 95.7279 219.367 95.7279 227.417 103.892 227.417 113.962 227.417 124.032 219.367 132.196 209.436 132.196 199.506 132.196 191.456 124.032 191.456 113.962Z" stroke="#FFFFFF" stroke-width="1.01299" stroke-miterlimit="8" fill="#A5A5A5" fill-rule="evenodd" transform="matrix(1.00118 0 -0 1 628.756 212.34)"/><path d="M191.456 159.293C191.456 149.363 199.506 141.313 209.436 141.313 219.367 141.313 227.417 149.363 227.417 159.293 227.417 169.223 219.367 177.274 209.436 177.274 199.506 177.274 191.456 169.223 191.456 159.293Z" stroke="#FFFFFF" stroke-width="1.01299" stroke-miterlimit="8" fill="#A5A5A5" fill-rule="evenodd" transform="matrix(1.00118 0 -0 1 628.756 212.34)"/><path d="M191.456 204.625C191.456 194.555 199.506 186.391 209.436 186.391 219.367 186.391 227.417 194.555 227.417 204.625 227.417 214.695 219.367 222.859 209.436 222.859 199.506 222.859 191.456 214.695 191.456 204.625Z" stroke="#FFFFFF" stroke-width="1.01299" stroke-miterlimit="8" fill="#A5A5A5" fill-rule="evenodd" transform="matrix(1.00118 0 -0 1 628.756 212.34)"/><path d="M190.949 249.956C190.949 240.026 199 231.976 208.93 231.976 218.86 231.976 226.911 240.026 226.911 249.956 226.911 259.886 218.86 267.937 208.93 267.937 199 267.937 190.949 259.886 190.949 249.956Z" stroke="#FFFFFF" stroke-width="1.01299" stroke-miterlimit="8" fill="#A5A5A5" fill-rule="evenodd" transform="matrix(1.00118 0 -0 1 628.756 212.34)"/><path d="M191.456 68.377C191.456 58.3069 199.506 50.1432 209.436 50.1432 219.367 50.1432 227.417 58.3069 227.417 68.377 227.417 78.447 219.367 86.6109 209.436 86.6109 199.506 86.6109 191.456 78.447 191.456 68.377Z" stroke="#FFFFFF" stroke-width="1.01299" stroke-miterlimit="8" fill="#A5A5A5" fill-rule="evenodd" transform="matrix(1.00118 0 -0 1 628.756 212.34)"/><path d="M191.456 295.541C191.456 285.611 199.506 277.56 209.436 277.56 219.367 277.56 227.417 285.611 227.417 295.541 227.417 305.471 219.367 313.522 209.436 313.522 199.506 313.522 191.456 305.471 191.456 295.541Z" stroke="#FFFFFF" stroke-width="1.01299" stroke-miterlimit="8" fill="#A5A5A5" fill-rule="evenodd" transform="matrix(1.00118 0 -0 1 628.756 212.34)"/><path d="M308.457 113.962C308.457 103.892 316.506 95.7279 326.437 95.7279 336.368 95.7279 344.418 103.892 344.418 113.962 344.418 124.032 336.368 132.196 326.437 132.196 316.506 132.196 308.457 124.032 308.457 113.962Z" stroke="#FFFFFF" stroke-width="1.01299" stroke-miterlimit="8" fill="#A5A5A5" fill-rule="evenodd" transform="matrix(1.00118 0 -0 1 628.756 212.34)"/><path d="M308.457 159.293C308.457 149.363 316.506 141.313 326.437 141.313 336.368 141.313 344.418 149.363 344.418 159.293 344.418 169.223 336.368 177.274 326.437 177.274 316.506 177.274 308.457 169.223 308.457 159.293Z" stroke="#FFFFFF" stroke-width="1.01299" stroke-miterlimit="8" fill="#A5A5A5" fill-rule="evenodd" transform="matrix(1.00118 0 -0 1 628.756 212.34)"/><path d="M308.457 204.625C308.457 194.555 316.506 186.391 326.437 186.391 336.368 186.391 344.418 194.555 344.418 204.625 344.418 214.695 336.368 222.859 326.437 222.859 316.506 222.859 308.457 214.695 308.457 204.625Z" stroke="#FFFFFF" stroke-width="1.01299" stroke-miterlimit="8" fill="#A5A5A5" fill-rule="evenodd" transform="matrix(1.00118 0 -0 1 628.756 212.34)"/><path d="M307.95 249.956C307.95 240.026 316 231.976 325.931 231.976 335.861 231.976 343.911 240.026 343.911 249.956 343.911 259.886 335.861 267.937 325.931 267.937 316 267.937 307.95 259.886 307.95 249.956Z" stroke="#FFFFFF" stroke-width="1.01299" stroke-miterlimit="8" fill="#A5A5A5" fill-rule="evenodd" transform="matrix(1.00118 0 -0 1 628.756 212.34)"/><path d="M308.457 68.377C308.457 58.3069 316.506 50.1432 326.437 50.1432 336.368 50.1432 344.418 58.3069 344.418 68.377 344.418 78.447 336.368 86.6109 326.437 86.6109 316.506 86.6109 308.457 78.447 308.457 68.377Z" stroke="#FFFFFF" stroke-width="1.01299" stroke-miterlimit="8" fill="#A5A5A5" fill-rule="evenodd" transform="matrix(1.00118 0 -0 1 628.756 212.34)"/><path d="M308.457 295.541C308.457 285.611 316.506 277.56 326.437 277.56 336.368 277.56 344.418 285.611 344.418 295.541 344.418 305.471 336.368 313.522 326.437 313.522 316.506 313.522 308.457 305.471 308.457 295.541Z" stroke="#FFFFFF" stroke-width="1.01299" stroke-miterlimit="8" fill="#A5A5A5" fill-rule="evenodd" transform="matrix(1.00118 0 -0 1 628.756 212.34)"/><path d="M415.327 113.962C415.327 103.892 423.378 95.7279 433.308 95.7279 443.238 95.7279 451.288 103.892 451.288 113.962 451.288 124.032 443.238 132.196 433.308 132.196 423.378 132.196 415.327 124.032 415.327 113.962Z" stroke="#FFFFFF" stroke-width="1.01299" stroke-miterlimit="8" fill="#A5A5A5" fill-rule="evenodd" transform="matrix(1.00118 0 -0 1 628.756 212.34)"/><path d="M415.327 159.293C415.327 149.363 423.378 141.313 433.308 141.313 443.238 141.313 451.288 149.363 451.288 159.293 451.288 169.223 443.238 177.274 433.308 177.274 423.378 177.274 415.327 169.223 415.327 159.293Z" stroke="#FFFFFF" stroke-width="1.01299" stroke-miterlimit="8" fill="#A5A5A5" fill-rule="evenodd" transform="matrix(1.00118 0 -0 1 628.756 212.34)"/><path d="M415.327 204.625C415.327 194.555 423.378 186.391 433.308 186.391 443.238 186.391 451.288 194.555 451.288 204.625 451.288 214.695 443.238 222.859 433.308 222.859 423.378 222.859 415.327 214.695 415.327 204.625Z" stroke="#FFFFFF" stroke-width="1.01299" stroke-miterlimit="8" fill="#A5A5A5" fill-rule="evenodd" transform="matrix(1.00118 0 -0 1 628.756 212.34)"/><path d="M414.314 249.956C414.314 240.026 422.478 231.976 432.548 231.976 442.618 231.976 450.782 240.026 450.782 249.956 450.782 259.886 442.618 267.937 432.548 267.937 422.478 267.937 414.314 259.886 414.314 249.956Z" stroke="#FFFFFF" stroke-width="1.01299" stroke-miterlimit="8" fill="#A5A5A5" fill-rule="evenodd" transform="matrix(1.00118 0 -0 1 628.756 212.34)"/><path d="M415.327 68.377C415.327 58.3069 423.378 50.1432 433.308 50.1432 443.238 50.1432 451.288 58.3069 451.288 68.377 451.288 78.447 443.238 86.6109 433.308 86.6109 423.378 86.6109 415.327 78.447 415.327 68.377Z" stroke="#FFFFFF" stroke-width="1.01299" stroke-miterlimit="8" fill="#A5A5A5" fill-rule="evenodd" transform="matrix(1.00118 0 -0 1 628.756 212.34)"/><path d="M415.327 295.541C415.327 285.611 423.378 277.56 433.308 277.56 443.238 277.56 451.288 285.611 451.288 295.541 451.288 305.471 443.238 313.522 433.308 313.522 423.378 313.522 415.327 305.471 415.327 295.541Z" stroke="#FFFFFF" stroke-width="1.01299" stroke-miterlimit="8" fill="#A5A5A5" fill-rule="evenodd" transform="matrix(1.00118 0 -0 1 628.756 212.34)"/><path d="M550.562 113.962C550.562 103.892 558.727 95.7279 568.796 95.7279 578.865 95.7279 587.03 103.892 587.03 113.962 587.03 124.032 578.865 132.196 568.796 132.196 558.727 132.196 550.562 124.032 550.562 113.962Z" stroke="#FFFFFF" stroke-width="1.01299" stroke-miterlimit="8" fill="#A5A5A5" fill-rule="evenodd" transform="matrix(1.00118 0 -0 1 628.756 212.34)"/><path d="M550.056 249.956C550.056 240.026 558.22 231.976 568.289 231.976 578.359 231.976 586.523 240.026 586.523 249.956 586.523 259.886 578.359 267.937 568.289 267.937 558.22 267.937 550.056 259.886 550.056 249.956Z" stroke="#FFFFFF" stroke-width="1.01299" stroke-miterlimit="8" fill="#A5A5A5" fill-rule="evenodd" transform="matrix(1.00118 0 -0 1 628.756 212.34)"/><path d="M415.327 340.872C415.327 330.802 423.378 322.639 433.308 322.639 443.238 322.639 451.288 330.802 451.288 340.872 451.288 350.942 443.238 359.106 433.308 359.106 423.378 359.106 415.327 350.942 415.327 340.872Z" stroke="#FFFFFF" stroke-width="1.01299" stroke-miterlimit="8" fill="#A5A5A5" fill-rule="evenodd" transform="matrix(1.00118 0 -0 1 628.756 212.34)"/><path d="M414.314 23.0456C414.314 13.1152 422.478 5.06497 432.548 5.06497 442.618 5.06497 450.782 13.1152 450.782 23.0456 450.782 32.976 442.618 41.0262 432.548 41.0262 422.478 41.0262 414.314 32.976 414.314 23.0456Z" stroke="#FFFFFF" stroke-width="1.01299" stroke-miterlimit="8" fill="#A5A5A5" fill-rule="evenodd" transform="matrix(1.00118 0 -0 1 628.756 212.34)"/><path d="M0.198669-0.465907 103.557 43.6075 103.16 44.5393-0.198669 0.465907ZM103.531 41.9449 106.464 45.3978 101.942 45.6721Z" transform="matrix(1.00118 8.75258e-08 8.74228e-08 -1 713.948 326.114)"/><path d="M85.0917 113.455 188.178 113.455 188.178 114.468 85.0917 114.468ZM187.503 111.936 191.555 113.962 187.503 115.987Z" transform="matrix(1.00118 0 -0 1 628.756 212.34)"/><path d="M85.2898 113.496 188.648 157.569 188.251 158.501 84.8928 114.428ZM188.623 155.907 191.555 159.359 187.033 159.634Z" transform="matrix(1.00118 0 -0 1 628.756 212.34)"/><path d="M85.4199 113.576 189.314 202.181 188.657 202.952 84.7628 114.347ZM189.787 200.586 191.555 204.758 187.158 203.67Z" transform="matrix(1.00118 0 -0 1 628.756 212.34)"/><path d="M85.4907 113.651 189.321 247.179 188.522 247.801 84.6919 114.273ZM190.106 245.713 190.994 250.155 186.908 248.2Z" transform="matrix(1.00118 0 -0 1 628.756 212.34)"/><path d="M85.5286 113.706 190.285 292.385 189.411 292.897 84.654 114.218ZM191.254 291.033 191.555 295.553 187.758 293.082Z" transform="matrix(1.00118 0 -0 1 628.756 212.34)"/><path d="M85.4907 158.728 189.875 292.262 189.077 292.885 84.6926 159.352ZM190.656 290.793 191.555 295.233 187.464 293.289Z" transform="matrix(1.00118 0 -0 1 628.756 212.34)"/><path d="M85.4212 158.655 188.76 247.253 188.101 248.022 84.7614 159.425ZM189.237 245.66 190.994 249.836 186.599 248.736Z" transform="matrix(1.00118 0 -0 1 628.756 212.34)"/><path d="M85.2898 158.574 188.648 202.647 188.251 203.58 84.8928 159.506ZM188.623 200.985 191.555 204.438 187.033 204.712Z" transform="matrix(1.00118 0 -0 1 628.756 212.34)"/><path d="M85.0917 158.534 188.178 158.534 188.178 159.546 85.0917 159.546ZM187.503 157.014 191.555 159.04 187.503 161.066Z" transform="matrix(1.00118 0 -0 1 628.756 212.34)"/><path d="M0.198669-0.465907 103.557 43.6075 103.16 44.5393-0.198669 0.465907ZM103.531 41.9449 106.464 45.3978 101.942 45.6721Z" transform="matrix(1.00118 8.75258e-08 8.74228e-08 -1 713.948 371.699)"/><path d="M0.328664-0.385381 104.223 88.2189 103.566 88.9903-0.328664 0.385381ZM104.696 86.6247 106.464 90.7958 102.066 89.7079Z" transform="matrix(1.00118 8.75258e-08 8.74228e-08 -1 713.948 371.513)"/><path d="M0.399043-0.311936 104.784 133.222 103.986 133.846-0.399043 0.311936ZM105.565 131.753 106.464 136.193 102.373 134.249Z" transform="matrix(1.00118 8.75258e-08 8.74228e-08 -1 713.948 416.91)"/><path d="M0.328664-0.385381 104.223 88.2189 103.566 88.9903-0.328664 0.385381ZM104.696 86.6247 106.464 90.7958 102.066 89.7079Z" transform="matrix(1.00118 8.75258e-08 8.74228e-08 -1 713.948 417.097)"/><path d="M0.198669-0.465907 103.557 43.6075 103.16 44.5393-0.198669 0.465907ZM103.531 41.9449 106.464 45.3978 101.942 45.6721Z" transform="matrix(1.00118 8.75258e-08 8.74228e-08 -1 713.948 416.777)"/><path d="M85.0917 204.118 188.178 204.118 188.178 205.131 85.0917 205.131ZM187.503 202.598 191.555 204.625 187.503 206.65Z" transform="matrix(1.00118 0 -0 1 628.756 212.34)"/><path d="M85.2912 204.159 188.09 248.227 187.691 249.158 84.8921 205.09ZM188.068 246.564 190.994 250.022 186.472 250.289Z" transform="matrix(1.00118 0 -0 1 628.756 212.34)"/><path d="M85.4199 204.239 189.314 292.844 188.657 293.614 84.7628 205.01ZM189.787 291.249 191.555 295.421 187.158 294.333Z" transform="matrix(1.00118 0 -0 1 628.756 212.34)"/><path d="M84.7827 249.743 188.699 293.822 188.304 294.754 84.3871 250.676ZM188.672 292.16 191.611 295.607 187.089 295.89Z" transform="matrix(1.00118 0 -0 1 628.756 212.34)"/><path d="M84.5852 249.703 187.672 249.703 187.672 250.716 84.5852 250.716ZM186.997 248.183 191.049 250.209 186.997 252.235Z" transform="matrix(1.00118 0 -0 1 628.756 212.34)"/><path d="M0.197787-0.466282 104.115 43.6129 103.719 44.5454-0.197787 0.466282ZM104.087 41.9504 107.026 45.3978 102.504 45.6807Z" transform="matrix(1.00118 8.75258e-08 8.74228e-08 -1 713.441 462.362)"/><path d="M0.327663-0.386233 104.779 88.2251 104.123 88.9978-0.327663 0.386233ZM105.247 86.6295 107.026 90.7958 102.625 89.7196Z" transform="matrix(1.00118 8.75258e-08 8.74228e-08 -1 713.441 462.176)"/><path d="M0.398244-0.312954 105.337 133.226 104.541 133.851-0.398244 0.312954ZM106.115 131.756 107.026 136.193 102.929 134.26Z" transform="matrix(1.00118 8.75258e-08 8.74228e-08 -1 713.441 462.495)"/><path d="M0.436349-0.257173 105.748 178.426 104.874 178.94-0.436349 0.257173ZM106.714 177.072 107.026 181.591 103.222 179.129Z" transform="matrix(1.00118 8.75258e-08 8.74228e-08 -1 713.441 462.308)"/><path d="M227.417 67.8706 304.844 67.8706 304.844 68.8835 227.417 68.8835ZM304.169 66.3511 308.221 68.377 304.169 70.4027Z" transform="matrix(1.00118 0 -0 1 628.756 212.34)"/><path d="M227.665 67.9354 305.524 111.679 305.029 112.562 227.169 68.8188ZM305.68 110.024 308.221 113.775 303.695 113.556Z" transform="matrix(1.00118 0 -0 1 628.756 212.34)"/><path d="M227.796 68.0402 306.354 156.314 305.597 156.987 227.039 68.7139ZM307.04 154.799 308.221 159.173 304.013 157.493Z" transform="matrix(1.00118 0 -0 1 628.756 212.34)"/><path d="M227.853 68.1187 306.933 201.408 306.061 201.925 226.982 68.6353ZM307.895 200.052 308.221 204.57 304.411 202.119Z" transform="matrix(1.00118 0 -0 1 628.756 212.34)"/><path d="M227.88 68.1724 306.758 246.676 305.831 247.086 226.953 68.5817ZM307.875 245.443 307.659 249.968 304.168 247.081Z" transform="matrix(1.00118 0 -0 1 628.756 212.34)"/><path d="M227.894 68.2074 307.565 292.015 306.611 292.354 226.94 68.5467ZM308.77 290.87 308.221 295.366 304.953 292.229Z" transform="matrix(1.00118 0 -0 1 628.756 212.34)"/><path d="M0.248091-0.441576 78.1071 43.3023 77.6116 44.1854-0.248091 0.441576ZM78.2632 41.6468 80.8036 45.3978 76.2782 45.1794Z" transform="matrix(1.00118 8.75258e-08 8.74228e-08 -1 856.441 326.114)"/><path d="M227.417 113.455 304.844 113.455 304.844 114.468 227.417 114.468ZM304.169 111.936 308.221 113.962 304.169 115.987Z" transform="matrix(1.00118 0 -0 1 628.756 212.34)"/><path d="M227.665 113.52 305.524 157.264 305.029 158.147 227.169 114.403ZM305.68 155.609 308.221 159.359 303.695 159.141Z" transform="matrix(1.00118 0 -0 1 628.756 212.34)"/><path d="M227.796 113.625 306.354 201.899 305.597 202.572 227.039 114.299ZM307.04 200.383 308.221 204.758 304.013 203.077Z" transform="matrix(1.00118 0 -0 1 628.756 212.34)"/><path d="M227.853 113.704 306.381 246.989 305.508 247.504 226.98 114.219ZM307.348 245.636 307.659 250.155 303.856 247.692Z" transform="matrix(1.00118 0 -0 1 628.756 212.34)"/><path d="M227.88 113.755 307.311 292.263 306.386 292.675 226.954 114.168ZM308.424 291.027 308.221 295.553 304.722 292.674Z" transform="matrix(1.00118 0 -0 1 628.756 212.34)"/><path d="M227.417 158.534 304.844 158.534 304.844 159.546 227.417 159.546ZM304.169 157.014 308.221 159.04 304.169 161.066Z" transform="matrix(1.00118 0 -0 1 628.756 212.34)"/><path d="M0.378362-0.336721 78.9369 87.9368 78.18 88.6098-0.378362 0.336721ZM79.6229 86.4217 80.8036 90.7958 76.5961 89.1155Z" transform="matrix(1.00118 8.75258e-08 8.74228e-08 -1 856.441 371.513)"/><path d="M0.248091-0.441576 78.1071 43.3023 77.6116 44.1854-0.248091 0.441576ZM78.2632 41.6468 80.8036 45.3978 76.2782 45.1794Z" transform="matrix(1.00118 8.75258e-08 8.74228e-08 -1 856.441 371.699)"/><path d="M227.665 158.598 305.524 202.342 305.029 203.225 227.169 159.482ZM305.68 200.687 308.221 204.438 303.695 204.219Z" transform="matrix(1.00118 0 -0 1 628.756 212.34)"/><path d="M227.665 158.598 305.524 202.342 305.029 203.225 227.169 159.482ZM305.68 200.687 308.221 204.438 303.695 204.219Z" transform="matrix(1.00118 0 -0 1 628.756 212.34)"/><path d="M227.796 158.705 305.802 246.97 305.043 247.641 227.038 159.375ZM306.494 245.458 307.659 249.836 303.458 248.141Z" transform="matrix(1.00118 0 -0 1 628.756 212.34)"/><path d="M227.853 158.781 306.933 292.071 306.061 292.588 226.982 159.298ZM307.895 290.715 308.221 295.233 304.411 292.782Z" transform="matrix(1.00118 0 -0 1 628.756 212.34)"/><path d="M227.796 204.288 306.354 292.562 305.597 293.234 227.039 204.961ZM307.04 291.046 308.221 295.421 304.013 293.74Z" transform="matrix(1.00118 0 -0 1 628.756 212.34)"/><path d="M227.666 204.184 304.97 247.919 304.471 248.801 227.168 205.065ZM305.13 246.264 307.659 250.022 303.134 249.79Z" transform="matrix(1.00118 0 -0 1 628.756 212.34)"/><path d="M227.417 204.118 304.844 204.118 304.844 205.131 227.417 205.131ZM304.169 202.598 308.221 204.625 304.169 206.65Z" transform="matrix(1.00118 0 -0 1 628.756 212.34)"/><path d="M0.248091-0.441576 78.1071 43.3023 77.6116 44.1854-0.248091 0.441576ZM78.2632 41.6468 80.8036 45.3978 76.2782 45.1794Z" transform="matrix(1.00118 8.75258e-08 8.74228e-08 -1 856.441 416.777)"/><path d="M0.378362-0.336721 78.9369 87.9368 78.18 88.6098-0.378362 0.336721ZM79.6229 86.4217 80.8036 90.7958 76.5961 89.1155Z" transform="matrix(1.00118 8.75258e-08 8.74228e-08 -1 856.441 417.097)"/><path d="M0.4356-0.25844 79.5162 133.031 78.6444 133.548-0.4356 0.25844ZM80.4781 131.675 80.8036 136.193 76.9938 133.742Z" transform="matrix(1.00118 8.75258e-08 8.74228e-08 -1 856.441 416.91)"/><path d="M227.157 249.767 305.574 293.52 305.08 294.404 226.664 250.651ZM305.724 291.864 308.275 295.607 303.75 295.402Z" transform="matrix(1.00118 0 -0 1 628.756 212.34)"/><path d="M226.911 249.703 304.337 249.703 304.337 250.716 226.911 250.716ZM303.662 248.183 307.714 250.209 303.662 252.235Z" transform="matrix(1.00118 0 -0 1 628.756 212.34)"/><path d="M0.246787-0.442306 78.663 43.3103 78.169 44.1949-0.246787 0.442306ZM78.8137 41.6543 81.3644 45.3978 76.8389 45.1928Z" transform="matrix(1.00118 8.75258e-08 8.74228e-08 -1 855.933 462.362)"/><path d="M0.377201-0.338021 79.4887 87.943 78.7346 88.6194-0.377201 0.338021ZM80.1692 86.4258 81.3644 90.7958 77.1513 89.13Z" transform="matrix(1.00118 8.75258e-08 8.74228e-08 -1 855.933 462.176)"/><path d="M0.434811-0.259765 80.0681 133.036 79.1983 133.555-0.434811 0.259765ZM81.0259 131.676 81.3644 136.193 77.547 133.754Z" transform="matrix(1.00118 8.75258e-08 8.74228e-08 -1 855.933 462.495)"/><path d="M0.462219-0.207105 80.4465 178.303 79.5217 178.717-0.462219 0.207105ZM81.5564 177.065 81.3644 181.591 77.8594 178.722Z" transform="matrix(1.00118 8.75258e-08 8.74228e-08 -1 855.933 462.308)"/><path d="M227.417 294.781 304.844 294.781 304.844 295.794 227.417 295.794ZM304.169 293.261 308.221 295.288 304.169 297.313Z" transform="matrix(1.00118 0 -0 1 628.756 212.34)"/><path d="M0.249407-0.440835 77.5525 43.2943 77.0536 44.176-0.249407 0.440835ZM77.7128 41.6392 80.2421 45.3978 75.7174 45.1659Z" transform="matrix(1.00118 8.75258e-08 8.74228e-08 -1 856.441 507.947)"/><path d="M0.378362-0.336721 78.9369 87.9368 78.18 88.6098-0.378362 0.336721ZM79.6229 86.4217 80.8036 90.7958 76.5961 89.1155Z" transform="matrix(1.00118 8.75258e-08 8.74228e-08 -1 856.441 507.76)"/><path d="M0.4356-0.25844 79.5162 133.031 78.6444 133.548-0.4356 0.25844ZM80.4781 131.675 80.8036 136.193 76.9938 133.742Z" transform="matrix(1.00118 8.75258e-08 8.74228e-08 -1 856.441 507.573)"/><path d="M0.462752-0.205912 79.894 178.301 78.9685 178.713-0.462752 0.205912ZM81.0073 177.065 80.8036 181.591 77.3048 178.713Z" transform="matrix(1.00118 8.75258e-08 8.74228e-08 -1 856.441 507.893)"/><path d="M0.477165-0.169861 80.1479 223.637 79.1935 223.977-0.477165 0.169861ZM81.3527 222.493 80.8036 226.989 77.536 223.851Z" transform="matrix(1.00118 8.75258e-08 8.74228e-08 -1 856.441 507.706)"/><path d="M344.693 294.862 412.337 338.431 411.789 339.283 344.143 295.714ZM412.592 336.788 414.902 340.685 410.398 340.195Z" transform="matrix(1.00118 0 -0 1 628.756 212.34)"/><path d="M344.418 294.781 411.526 294.781 411.526 295.794 344.418 295.794ZM410.85 293.261 414.902 295.288 410.85 297.313Z" transform="matrix(1.00118 0 -0 1 628.756 212.34)"/><path d="M0.275813-0.424813 67.3666 43.1343 66.815 43.9839-0.275813 0.424813ZM67.6275 41.4921 69.9231 45.3978 65.4212 44.8906Z" transform="matrix(1.00118 8.75258e-08 8.74228e-08 -1 973.579 507.947)"/><path d="M0.400092-0.310589 68.814 87.8178 68.0139 88.4391-0.400092 0.310589ZM69.5997 86.3529 70.4839 90.7958 66.3992 88.8375Z" transform="matrix(1.00118 8.75258e-08 8.74228e-08 -1 973.579 507.76)"/><path d="M0.449826-0.232798 69.3816 132.962 68.4824 133.427-0.449826 0.232798ZM70.4213 131.664 70.4839 136.193 66.8226 133.526Z" transform="matrix(1.00118 8.75258e-08 8.74228e-08 -1 973.579 507.573)"/><path d="M0.472176-0.183274 69.7346 178.261 68.7904 178.627-0.472176 0.183274ZM70.9064 177.081 70.4839 181.591 67.129 178.547Z" transform="matrix(1.00118 8.75258e-08 8.74228e-08 -1 973.579 507.893)"/><path d="M0.483713-0.150202 69.9665 223.615 68.9991 223.915-0.483713 0.150202ZM71.2174 222.519 70.4839 226.989 67.3478 223.72Z" transform="matrix(1.00118 8.75258e-08 8.74228e-08 -1 973.579 507.706)"/><path d="M0.49059-0.125936 69.5736 268.989 68.5923 269.241-0.49059 0.125936ZM70.8775 267.958 69.9231 272.387 66.9528 268.966Z" transform="matrix(1.00118 8.75258e-08 8.74228e-08 -1 973.579 508.025)"/><path d="M344.311 249.897 413.275 338.033 412.477 338.657 343.512 250.521ZM414.056 336.566 414.957 341.005 410.864 339.063Z" transform="matrix(1.00118 0 -0 1 628.756 212.34)"/><path d="M344.183 249.782 412.384 293.362 411.839 294.216 343.638 250.636ZM412.633 291.718 414.957 295.607 410.452 295.132Z" transform="matrix(1.00118 0 -0 1 628.756 212.34)"/><path d="M343.911 249.703 411.019 249.703 411.019 250.716 343.911 250.716ZM410.343 248.183 414.396 250.209 410.343 252.235Z" transform="matrix(1.00118 0 -0 1 628.756 212.34)"/><path d="M0.272724-0.426802 68.4728 43.1528 67.9273 44.0065-0.272724 0.426802ZM68.722 41.5088 71.0461 45.3978 66.5405 44.9233Z" transform="matrix(1.00118 8.75258e-08 8.74228e-08 -1 973.072 462.362)"/><path d="M0.398894-0.312125 69.3631 87.824 68.5654 88.4488-0.398894 0.312125ZM70.144 86.3563 71.0461 90.7958 66.9528 88.8533Z" transform="matrix(1.00118 8.75258e-08 8.74228e-08 -1 973.072 462.176)"/><path d="M0.449069-0.234257 69.9328 132.966 69.0342 133.434-0.449069 0.234257ZM70.9676 131.664 71.0461 136.193 67.3752 133.538Z" transform="matrix(1.00118 8.75258e-08 8.74228e-08 -1 973.072 462.495)"/><path d="M0.471682-0.18454 70.2871 178.262 69.3438 178.631-0.471682 0.18454ZM71.4562 177.08 71.0461 181.591 67.6826 178.556Z" transform="matrix(1.00118 8.75258e-08 8.74228e-08 -1 973.072 462.308)"/><path d="M0.483713-0.150202 69.9665 223.615 68.9991 223.915-0.483713 0.150202ZM71.2174 222.519 70.4839 226.989 67.3478 223.72Z" transform="matrix(1.00118 8.75258e-08 8.74228e-08 -1 973.072 462.628)"/><path d="M344.867 204.391 413.8 337.587 412.9 338.052 343.968 204.857ZM414.839 336.288 414.902 340.818 411.24 338.151Z" transform="matrix(1.00118 0 -0 1 628.756 212.34)"/><path d="M344.818 204.314 413.231 292.443 412.432 293.064 344.018 204.935ZM414.018 290.977 414.902 295.421 410.817 293.462Z" transform="matrix(1.00118 0 -0 1 628.756 212.34)"/><path d="M344.694 204.199 411.784 247.759 411.232 248.609 344.141 205.049ZM412.045 246.117 414.34 250.022 409.839 249.515Z" transform="matrix(1.00118 0 -0 1 628.756 212.34)"/><path d="M344.418 204.118 411.526 204.118 411.526 205.131 344.418 205.131ZM410.85 202.598 414.902 204.625 410.85 206.65Z" transform="matrix(1.00118 0 -0 1 628.756 212.34)"/><path d="M0.274262-0.425816 67.9197 43.1436 67.3712 43.9952-0.274262 0.425816ZM68.1745 41.5004 70.4839 45.3978 65.9808 44.907Z" transform="matrix(1.00118 8.75258e-08 8.74228e-08 -1 973.579 416.777)"/><path d="M0.400092-0.310589 68.814 87.8178 68.0139 88.4391-0.400092 0.310589ZM69.5997 86.3529 70.4839 90.7958 66.3992 88.8375Z" transform="matrix(1.00118 8.75258e-08 8.74228e-08 -1 973.579 417.097)"/><path d="M0.449826-0.232798 69.3816 132.962 68.4824 133.427-0.449826 0.232798ZM70.4213 131.664 70.4839 136.193 66.8226 133.526Z" transform="matrix(1.00118 8.75258e-08 8.74228e-08 -1 973.579 416.91)"/><path d="M0.472667-0.182003 69.1821 178.258 68.2367 178.622-0.472667 0.182003ZM70.3573 177.082 69.9231 181.591 66.576 178.538Z" transform="matrix(1.00118 8.75258e-08 8.74228e-08 -1 973.579 417.23)"/><path d="M0.450582-0.231332 68.8312 132.958 67.9298 133.421-0.450582 0.231332ZM69.8743 131.663 69.9231 136.193 66.27 133.514Z" transform="matrix(1.00118 8.75258e-08 8.74228e-08 -1 973.579 371.832)"/><path d="M0.400092-0.310589 68.814 87.8178 68.0139 88.4391-0.400092 0.310589ZM69.5997 86.3529 70.4839 90.7958 66.3992 88.8375Z" transform="matrix(1.00118 8.75258e-08 8.74228e-08 -1 973.579 371.513)"/><path d="M0.274262-0.425816 67.9197 43.1436 67.3712 43.9952-0.274262 0.425816ZM68.1745 41.5004 70.4839 45.3978 65.9808 44.907Z" transform="matrix(1.00118 8.75258e-08 8.74228e-08 -1 973.579 371.699)"/><path d="M344.418 158.534 411.526 158.534 411.526 159.546 344.418 159.546ZM410.85 157.014 414.902 159.04 410.85 161.066Z" transform="matrix(1.00118 0 -0 1 628.756 212.34)"/><path d="M344.693 158.614 412.337 202.183 411.789 203.035 344.143 159.466ZM412.592 200.54 414.902 204.438 410.398 203.947Z" transform="matrix(1.00118 0 -0 1 628.756 212.34)"/><path d="M344.819 158.731 412.682 246.851 411.879 247.47 344.017 159.349ZM413.473 245.389 414.34 249.836 410.263 247.861Z" transform="matrix(1.00118 0 -0 1 628.756 212.34)"/><path d="M344.867 158.807 413.8 292.002 412.9 292.467 343.968 159.273ZM414.839 290.704 414.902 295.233 411.24 292.566Z" transform="matrix(1.00118 0 -0 1 628.756 212.34)"/><path d="M344.89 158.856 414.152 337.301 413.208 337.667 343.945 159.223ZM415.324 336.121 414.902 340.631 411.547 337.587Z" transform="matrix(1.00118 0 -0 1 628.756 212.34)"/><path d="M0.401291-0.309038 68.2636 87.8116 67.4613 88.4295-0.401291 0.309038ZM69.0555 86.3488 69.9231 90.7958 65.8456 88.821Z" transform="matrix(1.00118 8.75258e-08 8.74228e-08 -1 973.579 326.434)"/><path d="M0.274262-0.425816 67.9197 43.1436 67.3712 43.9952-0.274262 0.425816ZM68.1745 41.5004 70.4839 45.3978 65.9808 44.907Z" transform="matrix(1.00118 8.75258e-08 8.74228e-08 -1 973.579 326.114)"/><path d="M344.418 113.455 411.526 113.455 411.526 114.468 344.418 114.468ZM410.85 111.936 414.902 113.962 410.85 115.987Z" transform="matrix(1.00118 0 -0 1 628.756 212.34)"/><path d="M344.693 113.536 412.337 157.105 411.789 157.957 344.143 114.388ZM412.592 155.462 414.902 159.359 410.398 158.869Z" transform="matrix(1.00118 0 -0 1 628.756 212.34)"/><path d="M344.818 113.651 413.231 201.78 412.432 202.401 344.018 114.272ZM414.018 200.315 414.902 204.758 410.817 202.799Z" transform="matrix(1.00118 0 -0 1 628.756 212.34)"/><path d="M344.869 113.731 413.249 246.92 412.348 247.383 343.967 114.193ZM414.292 245.625 414.34 250.155 410.688 247.476Z" transform="matrix(1.00118 0 -0 1 628.756 212.34)"/><path d="M344.869 113.731 413.249 246.92 412.348 247.383 343.967 114.193ZM414.292 245.625 414.34 250.155 410.688 247.476Z" transform="matrix(1.00118 0 -0 1 628.756 212.34)"/><path d="M344.89 113.779 414.152 292.222 413.208 292.588 343.945 114.145ZM415.324 291.042 414.902 295.553 411.547 292.509Z" transform="matrix(1.00118 0 -0 1 628.756 212.34)"/><path d="M344.902 113.811 414.384 337.577 413.417 337.877 343.934 114.112ZM415.635 336.48 414.902 340.951 411.766 337.682Z" transform="matrix(1.00118 0 -0 1 628.756 212.34)"/><path d="M0.275813-0.424813 67.3666 43.1343 66.815 43.9839-0.275813 0.424813ZM67.6275 41.4921 69.9231 45.3978 65.4212 44.8906Z" transform="matrix(1.00118 8.75258e-08 8.74228e-08 -1 973.579 281.036)"/><path d="M344.418 67.8706 411.526 67.8706 411.526 68.8835 344.418 68.8835ZM410.85 66.3511 414.902 68.377 410.85 70.4027Z" transform="matrix(1.00118 0 -0 1 628.756 212.34)"/><path d="M344.693 67.9511 412.337 111.52 411.789 112.372 344.143 68.803ZM412.592 109.877 414.902 113.775 410.398 113.284Z" transform="matrix(1.00118 0 -0 1 628.756 212.34)"/><path d="M344.818 68.0666 413.231 156.195 412.432 156.816 344.018 68.6875ZM414.018 154.73 414.902 159.173 410.817 157.215Z" transform="matrix(1.00118 0 -0 1 628.756 212.34)"/><path d="M344.867 68.1441 413.8 201.339 412.9 201.804 343.968 68.61ZM414.839 200.041 414.902 204.57 411.24 201.903Z" transform="matrix(1.00118 0 -0 1 628.756 212.34)"/><path d="M344.89 68.1952 413.599 246.635 412.655 246.999 343.945 68.5589ZM414.775 245.459 414.34 249.968 410.994 246.915Z" transform="matrix(1.00118 0 -0 1 628.756 212.34)"/><path d="M344.902 68.2266 414.384 291.992 413.417 292.292 343.934 68.5275ZM415.635 290.896 414.902 295.366 411.766 292.097Z" transform="matrix(1.00118 0 -0 1 628.756 212.34)"/><path d="M344.908 68.2499 414.546 337.368 413.566 337.622 343.927 68.5042ZM415.849 336.333 414.902 340.764 411.925 337.349Z" transform="matrix(1.00118 0 -0 1 628.756 212.34)"/><path d="M0.342555-0.373088 96.7441 88.1391 96.0588 88.885-0.342555 0.373088ZM97.274 86.5628 98.8882 90.7958 94.5334 89.5476Z" transform="matrix(1.00118 8.75258e-08 8.74228e-08 -1 1080.57 553.345)"/><path d="M0.463924-0.203257 98.5586 223.693 97.6311 224.099-0.463924 0.203257ZM99.6795 222.465 99.4496 226.989 95.968 224.091Z" transform="matrix(1.00118 8.75258e-08 8.74228e-08 -1 1080.57 553.291)"/><path d="M0.211318-0.460308 96.0313 43.5288 95.6081 44.4494-0.211318 0.460308ZM96.0513 41.866 98.8882 45.3978 94.3607 45.5485Z" transform="matrix(1.00118 8.75258e-08 8.74228e-08 -1 1080.57 507.947)"/><path d="M0.444239-0.243291 98.273 178.388 97.384 178.874-0.444239 0.243291ZM99.2804 177.064 99.4496 181.591 95.7265 179.011Z" transform="matrix(1.00118 8.75258e-08 8.74228e-08 -1 1080.57 507.893)"/><path d="M0.408247-0.299789 98.4217 133.173 97.6049 133.773-0.408247 0.299789ZM99.246 131.728 100.011 136.193 95.9804 134.127Z" transform="matrix(1.00118 8.75258e-08 8.74228e-08 -1 1080.07 462.495)"/><path d="M450.782 249.703 546.854 249.703 546.854 250.716 450.782 250.716ZM546.18 248.183 550.232 250.209 546.18 252.235Z" transform="matrix(1.00118 0 -0 1 628.756 212.34)"/><path d="M451.5 204.164 547.32 248.153 546.895 249.074 451.077 205.085ZM547.34 246.49 550.177 250.022 545.649 250.174Z" transform="matrix(1.00118 0 -0 1 628.756 212.34)"/><path d="M0.210332-0.46076 96.5886 43.5349 96.1682 44.4564-0.210332 0.46076ZM96.6051 41.8721 99.4496 45.3978 94.9228 45.5582Z" transform="matrix(1.00118 8.75258e-08 8.74228e-08 -1 1080.57 371.699)"/><path d="M0.341502-0.374053 97.298 88.1453 96.6148 88.8933-0.341502 0.374053ZM97.823 86.5676 99.4496 90.7958 95.0914 89.56Z" transform="matrix(1.00118 8.75258e-08 8.74228e-08 -1 1080.57 417.097)"/><path d="M451.631 158.666 548.035 247.179 547.345 247.925 450.946 159.413ZM548.561 245.603 550.177 249.836 545.821 248.588Z" transform="matrix(1.00118 0 -0 1 628.756 212.34)"/><path d="M451.288 113.455 547.361 113.455 547.361 114.468 451.288 114.468ZM546.687 111.936 550.739 113.962 546.687 115.987Z" transform="matrix(1.00118 0 -0 1 628.756 212.34)"/><path d="M451.699 113.664 548.602 247.125 547.781 247.721 450.878 114.26ZM549.438 245.686 550.177 250.155 546.156 248.067Z" transform="matrix(1.00118 0 -0 1 628.756 212.34)"/><path d="M451.733 68.1349 549.007 246.761 548.115 247.245 450.844 68.6192ZM550.02 245.441 550.177 249.968 546.459 247.379Z" transform="matrix(1.00118 0 -0 1 628.756 212.34)"/><path d="M451.498 67.9161 547.877 111.912 547.457 112.833 451.079 68.8381ZM547.892 110.249 550.739 113.775 546.211 113.936Z" transform="matrix(1.00118 0 -0 1 628.756 212.34)"/><path d="M451.123 22.9238 548.632 111.45 547.953 112.2 450.441 23.6738ZM549.154 109.87 550.795 114.095 546.429 112.87Z" transform="matrix(1.00118 0 -0 1 628.756 212.34)"/><path d="M451.246 23.0956 549.341 246.991 548.414 247.398 450.318 23.5021ZM550.461 245.764 550.232 250.288 546.748 247.39Z" transform="matrix(1.00118 0 -0 1 628.756 212.34)"/><text font-family="Calibri,Calibri_MSFontService,sans-serif" font-weight="400" font-size="24" transform="matrix(3.10504e-17 0.506497 -0.507092 3.1014e-17 1194.47 386)">……</text></g></g></g></g><text font-family="Calibri,Calibri_MSFontService,sans-serif" font-weight="400" font-size="19" transform="matrix(0.687582 0 0 0.688071 683.902 296)">Input<tspan x="174.447" y="-61.0402">Convolutional</tspan><tspan x="335.301" y="-61.0402">Convolutional</tspan><tspan x="525.825" y="-132.254">Dense</tspan><tspan x="718.913" y="0">Output</tspan></text></g></g></g></g></g></svg>